<svg xmlns="http://www.w3.org/2000/svg" xmlns:xlink="http://www.w3.org/1999/xlink" viewBox="0 0 344.05 390.43"><defs><style>.cls-1{fill:#268baa;}.cls-2{fill:#11778e;}.cls-3{fill:#72bfe5;}.cls-4{fill:#011c22;}.cls-5{fill:#52abce;}.cls-6{fill:#3d96b2;}.cls-7{fill:#e1ebf8;}.cls-8{fill:#a8dbef;}.cls-9{fill:#1f566a;}.cls-10{fill:url(#radial-gradient);}.cls-11{fill:#0b4751;}.cls-12{fill:#fff;}.cls-13{fill:#aef7fe;}.cls-14{fill:url(#radial-gradient-2);}.cls-15{fill:#0b353f;}.cls-16{fill:#ffd5a1;}</style><radialGradient id="radial-gradient" cx="510.23" cy="-226.1" r="29.16" gradientTransform="translate(-90.42 195.58) scale(0.47 0.51)" gradientUnits="userSpaceOnUse"><stop offset="0" stop-color="#fff"/><stop offset="1" stop-color="#0b353f"/></radialGradient><radialGradient id="radial-gradient-2" cx="648.05" cy="-247.55" r="29.16" xlink:href="#radial-gradient"/></defs><title>Fichier 2</title><g id="Calque_2" data-name="Calque 2"><g id="Calque_1-2" data-name="Calque 1"><rect class="cls-1" x="182.85" y="148.66" width="20.06" height="28.43"/><path class="cls-1" d="M203.52,177.76H182.24V148h21.28Zm-20.06-1.33H202.3V149.32H183.46Z"/><path class="cls-2" d="M202.91,148.66v7.21a.69.69,0,0,1-.62.71c-3,.2-6,.29-9.14.29-3.28,0-6.51-.1-9.69-.32a.69.69,0,0,1-.61-.71v-7.18Z"/><path class="cls-2" d="M193.15,158.19c-3.33,0-6.62-.11-9.76-.32a2,2,0,0,1-1.76-2v-8.5h22.5v8.53a2,2,0,0,1-1.76,2C199.4,158.09,196.3,158.19,193.15,158.19Zm-9.08-2.92a148,148,0,0,0,17.62,0V150H184.07Z"/><path class="cls-2" d="M202.91,163.6v7.3c-3.2.23-6.46.33-9.76.33-3.49,0-6.93-.11-10.3-.36V163.6a.55.55,0,0,1,.53-.57h19A.55.55,0,0,1,202.91,163.6Z"/><path class="cls-2" d="M193.15,172.55c-3.56,0-7.06-.12-10.38-.36l-1.14-.09v-8.5a1.83,1.83,0,0,1,1.75-1.9h19a1.83,1.83,0,0,1,1.75,1.9v8.54l-1.14.08C199.84,172.44,196.53,172.55,193.15,172.55Zm-9.08-2.92a148,148,0,0,0,17.62,0v-5.31H184.07Z"/><path class="cls-1" d="M107.1,204.7c-1.06,0-2.08,0-3.09-.12a56.28,56.28,0,0,1-13.12-2.31,50,50,0,0,1-5.83-2.18,1,1,0,0,1-.21-.1c-.94-.42-1.83-.88-2.69-1.33L80.94,198c-.89-.51-1.72-1-2.52-1.57a42.84,42.84,0,0,1-5.08-4,37,37,0,0,1-8.86-11.72l-9.35,4.54a49.11,49.11,0,0,0,13.81,17.57,54.06,54.06,0,0,0,12.5,7.71c.4.19.81.36,1.23.53,1.41.58,2.89,1.13,4.42,1.63.4.12.79.26,1.19.36,1.8.55,3.68,1,5.67,1.43a72.54,72.54,0,0,0,13,1.34l0-2.65Z"/><path class="cls-1" d="M107.55,216.45h-.61a74.06,74.06,0,0,1-13.1-1.35c-2-.4-3.9-.88-5.72-1.44l-.9-.27-.3-.1c-1.54-.5-3-1.05-4.47-1.65-.41-.16-.84-.34-1.25-.53a54.54,54.54,0,0,1-12.63-7.79,49.88,49.88,0,0,1-14-17.84l-.24-.59,10.46-5.08.25.6a36.31,36.31,0,0,0,8.69,11.48,43,43,0,0,0,5,4c.92.6,1.71,1.1,2.48,1.54.4.24.8.46,1.22.69.9.48,1.79.92,2.64,1.31l.21.1a49,49,0,0,0,5.76,2.15,56,56,0,0,0,13,2.29c1,.07,2,.1,3.07.12h.61ZM56,185.54a49.93,49.93,0,0,0,13.36,16.72,54.22,54.22,0,0,0,12.36,7.62c.39.18.8.36,1.21.52,1.41.58,2.89,1.13,4.39,1.62l.3.09.86.26a57.18,57.18,0,0,0,5.63,1.42,71.82,71.82,0,0,0,12.29,1.32l.13-9.76c-.85,0-1.68-.06-2.51-.11a57.07,57.07,0,0,1-13.25-2.33,51.44,51.44,0,0,1-5.9-2.21,2.41,2.41,0,0,1-.28-.14c-.81-.36-1.72-.81-2.65-1.31-.43-.23-.84-.47-1.25-.7-.79-.46-1.6-1-2.54-1.59a42.77,42.77,0,0,1-5.16-4.07,39,39,0,0,1-8.75-11.35Z"/><path class="cls-2" d="M105.5,204.89a56.57,56.57,0,0,1-12.26-2,.53.53,0,0,0-.63.67c.88,3.56,1.84,7.39,2.75,10.9a.51.51,0,0,0,.4.4,72.33,72.33,0,0,0,12.68,1.28l0-2.65Z"/><path class="cls-2" d="M109.65,217.43l-1.22,0a73.68,73.68,0,0,1-12.88-1.3,1.77,1.77,0,0,1-1.37-1.34c-.91-3.52-1.87-7.35-2.75-10.92a2,2,0,0,1,.44-1.8,1.65,1.65,0,0,1,1.68-.49,55.49,55.49,0,0,0,12,2l.8.05,3.33,9.59Zm-13.24-3.84a70.27,70.27,0,0,0,10.83,1.15v-1.06l-2.61-7.52a58.76,58.76,0,0,1-10.53-1.72C94.86,207.47,95.65,210.63,96.41,213.59Z"/><path class="cls-2" d="M78.21,196.25a42,42,0,0,1-4.87-3.86l-4.4,10.39a51.5,51.5,0,0,0,6.18,4.4.33.33,0,0,0,.5-.21c.83-3.12,1.89-7.1,2.74-10.32A.39.39,0,0,0,78.21,196.25Z"/><path class="cls-2" d="M75.29,208.55a1.46,1.46,0,0,1-.77-.22,52.83,52.83,0,0,1-6.32-4.5l-.78-.63,5.48-12.95,1.23,1.13a39.94,39.94,0,0,0,4.73,3.75,1.74,1.74,0,0,1,.67,1.88c-.85,3.23-1.9,7.2-2.74,10.33a1.65,1.65,0,0,1-.9,1.09A1.57,1.57,0,0,1,75.29,208.55Zm-4.83-6.19a48.25,48.25,0,0,0,4.3,3.07L77,197c-1.11-.78-2.18-1.61-3.21-2.48Z"/><path class="cls-2" d="M86.37,201.2a1,1,0,0,0-.55-.73l-.76-.38a1,1,0,0,1-.21-.1c-.79-.38-2.12-1.05-2.55-1.26-.06,0-.13,0-.13.09l.47,11.52a1,1,0,0,0,.61.91c1.13.46,4.07,1.46,4.87,1.71.08,0,.15-.05.13-.14C87.61,208.87,86.91,204.51,86.37,201.2Z"/><path class="cls-2" d="M88.15,214.29a1.19,1.19,0,0,1-.37-.06c-.81-.25-3.79-1.27-5-1.74a2.34,2.34,0,0,1-1.4-2.09l-.5-12.26.61-.5a1.23,1.23,0,0,1,1.29-.11c.43.21,1.75.88,2.52,1.25l.27.13c.22.12.45.23.69.34A2.3,2.3,0,0,1,87.57,201l2,12.35-.54.6A1.29,1.29,0,0,1,88.15,214.29Zm-4.29-4.2c.69.27,1.86.68,2.88,1l-1.55-9.5-.61-.31a2.44,2.44,0,0,1-.28-.14l-.83-.4Z"/><path class="cls-3" d="M55.87,198.28c5.25,6.37,15,15.44,16.18,14.55.94-.71,1.73-4.09,2.23-5.26l6.42-15.18a6,6,0,0,0-2.45-7.58c-6.55-3.55-12.1-9.16-17.2-15.06a5.1,5.1,0,0,0-5.81-1.47L44.33,172.7a3.42,3.42,0,0,0-1.53,4.86C46.06,183.23,52.59,194.3,55.87,198.28Z"/><path class="cls-3" d="M72,213.5c-2.85,0-13.16-10.68-16.54-14.78s-10.33-15.94-13.13-20.81a4.2,4.2,0,0,1-.36-3.38,3.87,3.87,0,0,1,2.2-2.45L55,167.66a5.66,5.66,0,0,1,6.47,1.64c4.59,5.3,10.2,11.22,17,14.92a6.67,6.67,0,0,1,2.74,8.45l-6.43,15.17c-.14.33-.3.84-.48,1.41-.64,2-1.18,3.54-1.95,4.12A.73.73,0,0,1,72,213.5ZM57.13,168.56a4.53,4.53,0,0,0-1.68.33l-10.9,4.43A2.58,2.58,0,0,0,43.07,175a2.85,2.85,0,0,0,.25,2.25c2.78,4.84,9.63,16.54,13,20.63,5.33,6.47,13.87,14.19,15.44,14.39a12.58,12.58,0,0,0,1.42-3.41c.2-.62.38-1.17.53-1.53l6.43-15.17A5.31,5.31,0,0,0,78,185.4c-7-3.79-12.72-9.81-17.38-15.2A4.61,4.61,0,0,0,57.13,168.56Z"/><path class="cls-4" d="M21.29,169.18l14.65,1.51.22-4.34-14.71-.28A1.51,1.51,0,0,0,20,167.54,1.53,1.53,0,0,0,21.29,169.18Z"/><path class="cls-4" d="M36.51,171.41l-15.28-1.57a2.17,2.17,0,0,1-1.86-2.34,2.15,2.15,0,0,1,2.09-2.09l15.35.29Zm-15.17-2.89,14,1.44.15-3-14.08-.26a.83.83,0,0,0-.85.85.89.89,0,0,0,.75.94Z"/><path class="cls-4" d="M17.07,166.27l22,1.26.1-4.35-22,0a1.54,1.54,0,0,0-.07,3.07Z"/><path class="cls-4" d="M39.64,168.22,17,166.94a2.16,2.16,0,0,1-1.93-2.31,2.11,2.11,0,0,1,2-2.09l22.64,0Zm-1.11-4.38-21.39,0a.85.85,0,0,0-.81.84.87.87,0,0,0,.77.92l21.36,1.21Z"/><path class="cls-4" d="M16.38,161.18l22.24,2,.23-4.34-22.3-.77a1.49,1.49,0,0,0-1.47,1.45A1.51,1.51,0,0,0,16.38,161.18Z"/><path class="cls-4" d="M39.19,163.94l-22.86-2.1a2.14,2.14,0,0,1-1.86-2.32,2.06,2.06,0,0,1,2.1-2.07l22.93.8ZM16.5,158.77a.88.88,0,0,0-.07,1.75l21.61,2,.16-3-21.67-.75Z"/><path class="cls-4" d="M19.73,156.53l18.18,2.59.4-4.33L20,153.45a1.47,1.47,0,0,0-1.52,1.39A1.53,1.53,0,0,0,19.73,156.53Z"/><path class="cls-4" d="M38.46,159.86l-18.81-2.68a2.16,2.16,0,0,1-1.76-2.41,2.11,2.11,0,0,1,2.17-2L39,154.18Zm-18.54-5.75a.85.85,0,0,0-.82.8.87.87,0,0,0,.71,1l17.56,2.51.27-3L20,154.11Z"/><path class="cls-4" d="M30,149.61l10.05,5.58,1.65-4-10.5-4.48a1.42,1.42,0,0,0-1.86.81A1.63,1.63,0,0,0,30,149.61Z"/><path class="cls-4" d="M40.36,156.1l-10.62-5.9a2.33,2.33,0,0,1-.94-2.91,2,2,0,0,1,2.64-1.16l11.11,4.74ZM30.3,149l9.48,5.27,1.12-2.7L31,147.36a.82.82,0,0,0-1.08.48A.93.93,0,0,0,30.3,149Z"/><path class="cls-4" d="M45.66,152.55a9.46,9.46,0,0,0-13.61,1.29c-3.24,4.14-2.52,11.44,1.43,15s12.15,3.51,15.4-.63S49.61,156.16,45.66,152.55Z"/><path class="cls-4" d="M41,172.15a11.9,11.9,0,0,1-7.93-2.75,12.19,12.19,0,0,1-3.62-7.77,11.61,11.61,0,0,1,2.13-8.22A10,10,0,0,1,46.05,152c4.31,4,6.74,12.25,3.29,16.65a10.23,10.23,0,0,1-7.88,3.45Zm-1.44-21.24a9,9,0,0,0-7,3.35,10.18,10.18,0,0,0-1.84,7.23,10.73,10.73,0,0,0,3.19,6.9,10.83,10.83,0,0,0,7.55,2.43c3-.09,5.6-1.21,7-3,2.92-3.73.71-11.24-3.15-14.78A8.37,8.37,0,0,0,39.57,150.91Z"/><path class="cls-1" d="M279.31,206.5c1-.29,2-.58,3-.9a58.17,58.17,0,0,0,12.24-5.6,49.72,49.72,0,0,0,5.19-3.61,1,1,0,0,0,.19-.15c.81-.65,1.58-1.32,2.31-2,.36-.33.71-.65,1-1,.75-.72,1.44-1.45,2.1-2.17a43.66,43.66,0,0,0,4.06-5.19,38.78,38.78,0,0,0,6.05-13.65l10.08,2c-.11.72-1.86,10.32-9.57,20.6a56,56,0,0,1-5.37,6.18,58.28,58.28,0,0,1-5.09,4.51c-.36.28-.72.56-1.09.82-1.24.93-2.56,1.84-3.94,2.72-.36.22-.71.45-1.08.66q-2.43,1.49-5.19,2.82a73,73,0,0,1-12.34,4.63l-.61-2.56Z"/><path class="cls-1" d="M281.44,218l-2.87-12,.59-.17c1-.28,2-.57,2.95-.89a58.13,58.13,0,0,0,12.12-5.54,50.36,50.36,0,0,0,5.13-3.57l.18-.15c.75-.6,1.5-1.24,2.29-2l1-1c.66-.63,1.32-1.31,2.08-2.14a44.39,44.39,0,0,0,4-5.12,37.9,37.9,0,0,0,5.94-13.38l.11-.65,11.27,2.26-.1.64c0,.1-1.65,10.18-9.7,20.91a58.73,58.73,0,0,1-10.57,10.8q-.54.44-1.11.84c-1.25.93-2.59,1.86-4,2.74l-.28.17c-.27.17-.54.34-.82.5-1.63,1-3.4,2-5.23,2.85A74.82,74.82,0,0,1,282,217.87ZM280.06,207l2.26,9.45A72.52,72.52,0,0,0,294,212a58.21,58.21,0,0,0,5.14-2.8l.8-.48.28-.18c1.35-.86,2.66-1.76,3.89-2.68.38-.27.73-.54,1.07-.81a55.77,55.77,0,0,0,5-4.47,54.89,54.89,0,0,0,5.31-6.1,52.29,52.29,0,0,0,9.32-19.66L315.94,173a40.81,40.81,0,0,1-6,13.27,45.81,45.81,0,0,1-4.12,5.26c-.78.86-1.46,1.55-2.13,2.2l-1.05,1c-.81.73-1.58,1.39-2.35,2a1.3,1.3,0,0,1-.22.18,52.48,52.48,0,0,1-5.22,3.63,58.66,58.66,0,0,1-12.36,5.65C281.68,206.49,280.88,206.74,280.06,207Z"/><path class="cls-2" d="M280.91,206.29a58.53,58.53,0,0,0,11.46-5.14.51.51,0,0,1,.76.49c-.08,3.69-.17,7.66-.28,11.3a.55.55,0,0,1-.31.49,73.75,73.75,0,0,1-12,4.49l-.61-2.57Z"/><path class="cls-2" d="M279.62,219.53l-1-4.09,1.15-10.17.76-.25a57.45,57.45,0,0,0,11.24-5,1.63,1.63,0,0,1,1.74,0,1.89,1.89,0,0,1,.82,1.64c-.07,3.69-.17,7.66-.28,11.3a1.88,1.88,0,0,1-1,1.66,75.49,75.49,0,0,1-12.24,4.55Zm1.51-4.26.24,1a74.65,74.65,0,0,0,10.27-3.88c.09-3.08.17-6.35.24-9.49a59.49,59.49,0,0,1-9.86,4.36Z"/><path class="cls-2" d="M305.54,190.91a43.14,43.14,0,0,0,3.88-5l6.56,9a57.26,57.26,0,0,1-5.05,5.86.33.33,0,0,1-.53-.08l-4.92-9.33A.4.4,0,0,1,305.54,190.91Z"/><path class="cls-2" d="M310.69,202.17l-.24,0a1.54,1.54,0,0,1-1.11-.83c-1.49-2.82-3.39-6.41-4.92-9.33a1.78,1.78,0,0,1,.25-2,42.52,42.52,0,0,0,3.76-4.85l.95-1.42,8.16,11.18-.61.83a57.34,57.34,0,0,1-5.17,6A1.48,1.48,0,0,1,310.69,202.17Zm-3.82-10.85c1.28,2.42,2.75,5.22,4,7.63,1.22-1.28,2.39-2.65,3.51-4.08l-5-6.79C308.64,189.19,307.78,190.28,306.87,191.32Z"/><path class="cls-2" d="M298.69,197.81a1,1,0,0,1,.37-.85c.23-.19.45-.37.66-.57a1,1,0,0,0,.19-.15c.68-.57,1.82-1.55,2.19-1.87a.09.09,0,0,1,.15.06l2.06,11.31a1.07,1.07,0,0,1-.39,1c-1,.73-3.63,2.46-4.36,2.9-.07,0-.15,0-.16-.1C299.16,205.58,298.89,201.16,298.69,197.81Z"/><path class="cls-2" d="M299.59,211.19l-.7-.34a1.45,1.45,0,0,1-.71-1.17l-.71-11.78a2.41,2.41,0,0,1,.86-2l.6-.51.15-.12c.73-.61,1.8-1.54,2.21-1.9a1.29,1.29,0,0,1,1.32-.26l.65.26.19.81,2.06,11.31a2.4,2.4,0,0,1-.91,2.38c-1,.75-3.7,2.51-4.43,3Zm.33-13.28.58,9.63c.91-.6,2-1.3,2.57-1.74l-1.66-9.15-.71.6-.24.2C300.28,197.61,300.11,197.76,299.92,197.91Z"/><path class="cls-3" d="M327.69,187.18c-3.71,7.53-11.21,18.83-12.54,18.27-1.08-.45-2.58-3.53-3.32-4.54l-9.56-13.11a6.11,6.11,0,0,1,.73-8c5.58-5.12,9.75-12,13.42-19a5.26,5.26,0,0,1,5.32-2.92l11.57,1.52a3.32,3.32,0,0,1,2.55,4.33C333.93,170.05,330,182.47,327.69,187.18Z"/><path class="cls-3" d="M315.16,206.11a.59.59,0,0,1-.23,0c-.88-.37-1.75-1.75-2.8-3.51-.3-.51-.57-1-.78-1.25l-9.56-13.1a6.79,6.79,0,0,1,.81-8.91c5.83-5.34,10-12.52,13.29-18.84a5.83,5.83,0,0,1,5.92-3.25l11.57,1.51a3.65,3.65,0,0,1,2.67,1.82,4.2,4.2,0,0,1,.39,3.38c-1.66,5.44-5.78,18.64-8.21,23.57S317.71,206.11,315.16,206.11Zm5.93-47.63A4.72,4.72,0,0,0,317,161.1c-3.35,6.43-7.58,13.74-13.56,19.21a5.4,5.4,0,0,0-.64,7.08l9.56,13.11c.23.3.52.79.85,1.34a11.84,11.84,0,0,0,2.13,2.95c1.48-.59,8.09-10.27,11.86-17.92,2.39-4.84,6.48-18,8.13-23.37a2.81,2.81,0,0,0-.26-2.25,2.46,2.46,0,0,0-1.79-1.22l-11.56-1.51A3.86,3.86,0,0,0,321.09,158.48Z"/><path class="cls-4" d="M315.12,136.37l9.29,6.95L322,146.77l-8.61-7.9a1.66,1.66,0,0,1-.21-2.16A1.38,1.38,0,0,1,315.12,136.37Z"/><path class="cls-4" d="M322.05,147.72l-9.1-8.35a2.36,2.36,0,0,1-.3-3.06,2,2,0,0,1,2.82-.48l9.81,7.34Zm-7.76-11a.85.85,0,0,0-.67.36,1,1,0,0,0,.12,1.25l8.13,7.46,1.66-2.35-8.76-6.55A.8.8,0,0,0,314.29,136.75Z"/><path class="cls-4" d="M323.58,152.22c-3.54-4.08-3.16-11,.5-14.76s10.44-3.31,14,.77,3.86,13,.2,16.66S327.13,156.3,323.58,152.22Z"/><path class="cls-4" d="M333.28,157.43a14.22,14.22,0,0,1-10.14-4.76,11.52,11.52,0,0,1-2.62-8,11.73,11.73,0,0,1,3.14-7.7,9.69,9.69,0,0,1,7.49-2.71,10.53,10.53,0,0,1,7.36,3.51c3.91,4.5,4,13.71.17,17.59A7.38,7.38,0,0,1,333.28,157.43ZM324,151.77c3.46,4,10.52,6,13.81,2.64s3.22-11.77-.22-15.73a9.41,9.41,0,0,0-6.54-3.1A8.51,8.51,0,0,0,324.5,138a10.3,10.3,0,0,0-2.76,6.79,10.15,10.15,0,0,0,2.29,7Z"/><path class="cls-4" d="M326.83,122l-.78,19.81-4-.32L324,121.79a1.47,1.47,0,0,1,1.53-1.38A1.52,1.52,0,0,1,326.83,122Z"/><path class="cls-4" d="M326.63,142.54l-5.26-.42,2-20.4a2.07,2.07,0,0,1,2.18-2,2.13,2.13,0,0,1,1.89,2.29Zm-3.92-1.64,2.76.22.75-19.13a.82.82,0,1,0-1.63-.13Z"/><path class="cls-4" d="M324.31,147.34l3.62-13.57a1.59,1.59,0,0,1,2.15-.89l.33.12a1.74,1.74,0,0,1,1.23,2.09L327,148.31a1.28,1.28,0,0,1-1.7.64A1.42,1.42,0,0,1,324.31,147.34Z"/><path class="cls-4" d="M325.87,149.71a2.18,2.18,0,0,1-.74-.13,2.07,2.07,0,0,1-1.41-2.42l3.62-13.57a2,2,0,0,1,.93-1.2,2.39,2.39,0,0,1,2-.13l.33.12a2.6,2.6,0,0,1,1.53,1.39,2,2,0,0,1,.08,1.55l-4.62,13.22A1.77,1.77,0,0,1,325.87,149.71Zm3.52-16.28a1.12,1.12,0,0,0-.55.13.64.64,0,0,0-.32.4l-3.63,13.57a.8.8,0,0,0,.62.79.72.72,0,0,0,.94-.25l4.62-13.21a.69.69,0,0,0,0-.52,1.37,1.37,0,0,0-.81-.71l-.33-.12A1.49,1.49,0,0,0,329.39,133.43Z"/><path class="cls-4" d="M339,152.53l4.34-9.47a1.89,1.89,0,0,0-.84-2.31,1.43,1.43,0,0,0-2.19.59l-3.55,9.86a1.49,1.49,0,0,0,.69,1.71A1,1,0,0,0,339,152.53Z"/><path class="cls-4" d="M338.06,153.76a1.82,1.82,0,0,1-.94-.27,2.17,2.17,0,0,1-1-2.53l3.55-9.86a1.94,1.94,0,0,1,1.1-1.16,2.16,2.16,0,0,1,1.89.2,2.6,2.6,0,0,1,1.16,3.22l-4.34,9.46a1.6,1.6,0,0,1-.93.86A1.82,1.82,0,0,1,338.06,153.76Zm3.46-12.63a.94.94,0,0,0-.3.05.63.63,0,0,0-.38.4l-3.55,9.86a.83.83,0,0,0,.42.9.61.61,0,0,0,.5.08.35.35,0,0,0,.2-.18l4.35-9.47a1.22,1.22,0,0,0-.6-1.44A1.24,1.24,0,0,0,341.52,141.13Z"/><path class="cls-4" d="M334.72,152l5.55-13.22a1.68,1.68,0,0,0-.92-2l-.31-.17a1.27,1.27,0,0,0-1.9.47l-4.67,13.65a1.4,1.4,0,0,0,.75,1.52C333.84,152.64,334.51,152.51,334.72,152Z"/><path class="cls-4" d="M333.92,153.14a2,2,0,0,1-1-.27,2,2,0,0,1-1-2.34l4.67-13.65a1.63,1.63,0,0,1,.91-1,2.12,2.12,0,0,1,1.84.15l.31.17a2.32,2.32,0,0,1,1.19,2.82l-5.54,13.23a1.41,1.41,0,0,1-.81.78A1.67,1.67,0,0,1,333.92,153.14Zm4.28-16.06a.68.68,0,0,0-.27,0,.31.31,0,0,0-.21.21L333.05,151c-.06.15.1.5.46.71a.7.7,0,0,0,.56.1l.1-.08,5.54-13.22c.12-.29-.13-.82-.64-1.1l-.3-.17A1.24,1.24,0,0,0,338.2,137.08Z"/><path class="cls-4" d="M331.37,150.85l5.24-15.24a1.86,1.86,0,0,0-1.37-2.19,1.73,1.73,0,0,0-2.34.93l-4.22,15.57a1.36,1.36,0,0,0,1,1.52A1.26,1.26,0,0,0,331.37,150.85Z"/><path class="cls-4" d="M330.26,152.2a2.46,2.46,0,0,1-.75-.13,2,2,0,0,1-1.42-2.34l4.22-15.57a2.06,2.06,0,0,1,.95-1.22,2.67,2.67,0,0,1,2.17-.15,2.82,2.82,0,0,1,1.66,1.47,2.12,2.12,0,0,1,.09,1.58l-5.24,15.24A1.71,1.71,0,0,1,330.26,152.2ZM334.48,134a1.24,1.24,0,0,0-.64.16.73.73,0,0,0-.36.42l-4.22,15.58c-.05.18.17.54.63.7s.85,0,.91-.19L336,135.38a.74.74,0,0,0-.05-.54,1.55,1.55,0,0,0-.93-.79A1.69,1.69,0,0,0,334.48,134Z"/><path class="cls-5" d="M127.86,195.64v26.81c0,5.85-4.38,10.59-9.8,10.59h-8.83c-6.38,0-11.6-5.64-11.6-12.55v-22.9c0-6.89,5.22-12.54,11.6-12.54h8.83C123.48,185.05,127.86,189.79,127.86,195.64Z"/><path class="cls-5" d="M118.06,233.7h-8.83c-6.74,0-12.22-5.93-12.22-13.21v-22.9c0-7.28,5.48-13.21,12.22-13.21h8.83c5.74,0,10.41,5.06,10.41,11.26v26.81C128.47,228.65,123.8,233.7,118.06,233.7Zm-8.83-48c-6.06,0-11,5.33-11,11.88v22.9c0,6.55,4.93,11.89,11,11.89h8.83c5.07,0,9.19-4.46,9.19-9.93V195.64c0-5.48-4.12-9.93-9.19-9.93Z"/><path class="cls-5" d="M286.87,197.59v22.9c0,6.91-5.23,12.55-11.61,12.55h-8.83c-5.41,0-9.8-4.74-9.8-10.59V195.64c0-5.85,4.39-10.59,9.8-10.59h8.83C281.64,185.05,286.87,190.7,286.87,197.59Z"/><path class="cls-5" d="M275.26,233.7h-8.83c-5.74,0-10.41-5-10.41-11.25V195.64c0-6.2,4.67-11.26,10.41-11.26h8.83c6.74,0,12.22,5.93,12.22,13.21v22.9C287.48,227.77,282,233.7,275.26,233.7Zm-8.83-48c-5.07,0-9.19,4.45-9.19,9.93v26.81c0,5.47,4.12,9.93,9.19,9.93h8.83c6.06,0,11-5.34,11-11.89v-22.9c0-6.55-4.93-11.88-11-11.88Z"/><path class="cls-3" d="M270,220l-10.87,26.39-21.12,51.23c-7.92,19.2-25.4,31.94-44.86,32.09h-.91c-19.45-.15-36.94-12.89-44.85-32.09l-21.12-51.23L115.43,220c-12.48-23.37,3.13-52.57,28.07-52.57H242C266.92,167.43,282.53,196.63,270,220Z"/><path class="cls-3" d="M192.28,330.37c-19.51-.15-37.34-12.9-45.41-32.48l-32-77.62a37.78,37.78,0,0,1,0-35.64c6-11.18,16.66-17.86,28.6-17.86H242c11.94,0,22.63,6.68,28.6,17.86a37.84,37.84,0,0,1,0,35.67l-32,77.59c-8.07,19.58-25.9,32.33-45.41,32.48ZM143.5,168.09c-11.5,0-21.79,6.43-27.54,17.2a36.42,36.42,0,0,0,0,34.38l32,77.68c7.87,19.11,25.26,31.55,44.3,31.7h.9c19-.15,36.43-12.59,44.3-31.7l32-77.68a36.42,36.42,0,0,0,0-34.38c-5.75-10.77-16-17.2-27.54-17.2Z"/><path class="cls-5" d="M268.56,223,258.49,248a2.13,2.13,0,0,1-1.94,1.37H218.42A2.21,2.21,0,0,1,216.3,247V218.1a2.21,2.21,0,0,0-2.12-2.29H168.13A2.21,2.21,0,0,0,166,218.1V247a2.21,2.21,0,0,1-2.12,2.29H129.11a2.12,2.12,0,0,1-1.94-1.37L117.1,223s0-.11-.08-.16c-12.16-23.36,3.13-52.48,27.55-52.48h96.52c24.42,0,39.71,29.12,27.55,52.48Z"/><path class="cls-5" d="M256.55,250H218.42a2.84,2.84,0,0,1-2.73-2.95V218.1a1.58,1.58,0,0,0-1.51-1.63H168.13a1.58,1.58,0,0,0-1.51,1.63V247a2.84,2.84,0,0,1-2.73,2.95H129.11a2.71,2.71,0,0,1-2.5-1.77l-10.07-24.93a38.5,38.5,0,0,1,.22-36.17c5.9-10.9,16.29-17.41,27.81-17.41h96.52c11.51,0,21.91,6.51,27.8,17.41a38.4,38.4,0,0,1,.28,36.06l-.05.11-10.07,24.93A2.71,2.71,0,0,1,256.55,250Zm-88.42-34.83h46.05a2.85,2.85,0,0,1,2.73,2.95V247a1.58,1.58,0,0,0,1.51,1.63h38.13a1.5,1.5,0,0,0,1.38-1L268,222.75a1.63,1.63,0,0,1,.11-.23,37,37,0,0,0-.27-34.74C262.16,177.29,252.16,171,241.09,171H144.57c-11.08,0-21.08,6.26-26.75,16.75a37,37,0,0,0-.27,34.74,1.63,1.63,0,0,1,.11.23l10.07,24.93a1.5,1.5,0,0,0,1.38,1h34.78A1.58,1.58,0,0,0,165.4,247V218.1A2.85,2.85,0,0,1,168.13,215.15Z"/><path class="cls-6" d="M127.86,195.64v26.81c0,5.85-4.38,10.59-9.8,10.59h-.83l-5-12.26a37.1,37.1,0,0,1,.39-35.73h5.49C123.48,185.05,127.86,189.79,127.86,195.64Z"/><path class="cls-6" d="M118.06,233.7h-1.22l-5.22-12.65a37.58,37.58,0,0,1,.43-36.35l.18-.32h5.83c5.74,0,10.41,5.06,10.41,11.26v26.81C128.47,228.65,123.8,233.7,118.06,233.7Zm-.43-1.32h.43c5.07,0,9.19-4.46,9.19-9.93V195.64c0-5.48-4.12-9.93-9.19-9.93h-5.15a36.25,36.25,0,0,0-.2,34.74Z"/><path class="cls-6" d="M273.11,220.38,267.9,233H267c-5.42,0-9.81-4.74-9.81-10.59V195.64c0-5.85,4.39-10.59,9.81-10.59h6A37.09,37.09,0,0,1,273.11,220.38Z"/><path class="cls-6" d="M268.29,233.7H267c-5.75,0-10.42-5-10.42-11.25V195.64c0-6.2,4.67-11.26,10.42-11.26h6.32l.18.33a37.77,37.77,0,0,1,.18,36Zm-1.31-48c-5.07,0-9.2,4.45-9.2,9.93v26.81c0,5.47,4.13,9.93,9.2,9.93h.52l5.09-12.33a36.36,36.36,0,0,0,0-34.34Z"/><path class="cls-7" d="M270,220l-10.87,26.39H219.59a.72.72,0,0,1-.69-.75V215a2.09,2.09,0,0,0-2-2.16H165.16a2.09,2.09,0,0,0-2,2.16v30.6a.72.72,0,0,1-.69.75H126.31L115.43,220c-12.48-23.37,3.13-52.57,28.07-52.57H242C266.92,167.43,282.53,196.63,270,220Z"/><path class="cls-7" d="M259.56,247.05h-40a1.36,1.36,0,0,1-1.3-1.41V215a1.45,1.45,0,0,0-1.39-1.5H165.16a1.45,1.45,0,0,0-1.39,1.5v30.6a1.36,1.36,0,0,1-1.3,1.41H125.91l-11-26.78a37.78,37.78,0,0,1,0-35.64c6-11.18,16.66-17.86,28.6-17.86H242c11.94,0,22.63,6.68,28.6,17.86a37.84,37.84,0,0,1,0,35.67Zm-132.85-1.32h35.76l.08-30.69a2.72,2.72,0,0,1,2.61-2.82H216.9a2.72,2.72,0,0,1,2.61,2.82v30.6l39.26.09,10.75-26.06a36.42,36.42,0,0,0,0-34.38c-5.75-10.77-16-17.2-27.54-17.2H143.5c-11.5,0-21.79,6.43-27.54,17.2a36.42,36.42,0,0,0,0,34.38Z"/><path class="cls-5" d="M213.07,261.52a3.21,3.21,0,0,1-3.08,3.33H172.58a2.36,2.36,0,0,1-2.31-2.37s.41-37.56.41-37.56a4.64,4.64,0,0,1,4.27-4.73l36-1.44a2,2,0,0,1,1.84,1.09,2.33,2.33,0,0,1,.29,1.14Z"/><path class="cls-5" d="M210,265.51H172.58a3,3,0,0,1-2.92-3l.41-37.57a5.26,5.26,0,0,1,4.85-5.38l36-1.44a2.62,2.62,0,0,1,2.39,1.41,3.1,3.1,0,0,1,.38,1.48v40.54A3.86,3.86,0,0,1,210,265.51Zm1-46.1-36,1.44a4,4,0,0,0-3.68,4.08l-.41,37.54a1.73,1.73,0,0,0,1.7,1.72H210a2.58,2.58,0,0,0,2.47-2.67V221a1.67,1.67,0,0,0-.2-.8A1.43,1.43,0,0,0,211,219.41Z"/><rect class="cls-3" x="170.33" y="218.75" width="41.57" height="44.49" rx="1.19"/><path class="cls-5" d="M210.15,263.9H172.07a2.47,2.47,0,0,1-2.36-2.55V220.64a2.46,2.46,0,0,1,2.36-2.55h38.08a2.46,2.46,0,0,1,2.36,2.55v40.71A2.47,2.47,0,0,1,210.15,263.9Zm-38.08-44.49a1.19,1.19,0,0,0-1.13,1.23v40.71a1.19,1.19,0,0,0,1.13,1.23h38.08a1.19,1.19,0,0,0,1.14-1.23V220.64a1.19,1.19,0,0,0-1.14-1.23Z"/><path class="cls-4" d="M95.14,44.72a96.57,96.57,0,0,0-.39,10.63q.06,5.32.58,10.61c.35,3.51.83,7,1.51,10.45s1.5,6.83,2.44,10.17l-4.22,1.26c-.71-3.59-1.36-7.19-1.73-10.82s-.64-7.25-.72-10.87,0-7.25.23-10.86a100.09,100.09,0,0,1,1.23-10.76Z"/><path class="cls-4" d="M94.6,88.66,94.46,88c-.64-3.23-1.35-7-1.73-10.87-.41-3.43-.64-7-.73-10.94-.09-3.52,0-7.19.23-10.92a99.52,99.52,0,0,1,1.24-10.83l.11-.64,2.23.41-.06.61a95.5,95.5,0,0,0-.39,10.55c0,3.62.24,7.17.58,10.55.37,3.75.86,7.15,1.49,10.38.64,3.54,1.55,7,2.43,10.12L100,87Zm-.22-42.24c-.41,2.7-.71,5.58-.93,8.92-.24,3.68-.31,7.31-.23,10.79.09,3.88.32,7.42.72,10.81s1,7,1.58,10.07l3-.88c-.83-3-1.67-6.25-2.27-9.59S95.1,69.83,94.73,66c-.35-3.42-.55-7-.59-10.67C94.1,52.09,94.18,49.14,94.38,46.42Z"/><path class="cls-4" d="M100.17,41.32a4.65,4.65,0,0,1-3.62,5.35,4.4,4.4,0,0,1-5-3.91,4.67,4.67,0,0,1,3.62-5.36A4.41,4.41,0,0,1,100.17,41.32Z"/><path class="cls-4" d="M95.88,47.39A5.09,5.09,0,0,1,91,42.86a5.32,5.32,0,0,1,4.13-6.11,5,5,0,0,1,5.65,4.47,5.67,5.67,0,0,1-.89,4,4.89,4.89,0,0,1-3.24,2.13A5,5,0,0,1,95.88,47.39Zm0-9.38a2.75,2.75,0,0,0-.57.05,4,4,0,0,0-3.11,4.6A3.77,3.77,0,0,0,96.45,46a3.68,3.68,0,0,0,2.44-1.6,4.22,4.22,0,0,0,.67-3A3.82,3.82,0,0,0,95.88,38Z"/><path class="cls-8" d="M92.59,64.81c.85,0,1.75-.07,2.63-.12,0-.19,0-.39,0-.58-.84,0-1.73.09-2.58.11Z"/><path class="cls-8" d="M92,65.48l0-1.91h.61c.84,0,1.72-.06,2.55-.11l.59,0,.17,1.9-.64,0c-.89.05-1.79.1-2.64.12Z"/><path class="cls-8" d="M97.17,78.08l-.12-.62L93.7,80c0,.21.06.42.1.63C94.92,79.8,96.05,78.94,97.17,78.08Z"/><path class="cls-8" d="M93.35,81.78,93,79.7l.31-.24c1.12-.84,2.23-1.68,3.34-2.54l.76-.58.41,2-.34.25-3.38,2.57Z"/><path class="cls-8" d="M92.73,57.36l2.06-.15c0-.19,0-.38,0-.58-.67.06-1.34.1-2,.14Z"/><path class="cls-8" d="M92.08,58.06l.1-1.92.79,0c.59,0,1.17-.06,1.76-.11l.64-.06,0,1.9-.58,0L92.76,58Z"/><path class="cls-8" d="M95.49,67.34c0-.21,0-.42-.07-.64q-1.38.87-2.73,1.77c0,.22,0,.44,0,.66C93.63,68.52,94.56,67.93,95.49,67.34Z"/><path class="cls-8" d="M92.15,70.27l-.09-2.15.31-.21c.91-.6,1.82-1.2,2.74-1.78l.81-.51.22,2.08-.35.22q-1.38.87-2.76,1.77Z"/><path class="cls-8" d="M93.41,49.08l1.43.17c0-.2,0-.39,0-.59l-1.39-.16C93.46,48.69,93.43,48.89,93.41,49.08Z"/><polygon class="cls-8" points="95.42 49.98 92.72 49.66 92.96 47.77 95.51 48.07 95.42 49.98"/><path class="cls-8" d="M93,53.82c0,.24,0,.47,0,.7l1.84-1.08v-.67Z"/><polygon class="cls-8" points="92.2 55.68 92.37 53.42 95.36 51.65 95.35 53.1 95.35 53.44 95.35 53.83 92.2 55.68"/><path class="cls-8" d="M93,74c0,.19,0,.39,0,.58l1-.11,2.31-.26c0-.19-.07-.38-.1-.58l-2.27.25Z"/><path class="cls-8" d="M92.53,75.3l-.17-1.9L94,73.22,96.27,73l.57-.06.32,1.88-.66.07-2.31.25Z"/><path class="cls-8" d="M92.6,60.76v.68l2.29-1.38c0-.22,0-.44,0-.65Z"/><polygon class="cls-8" points="91.97 62.57 92 60.37 95.43 58.31 95.52 60.44 91.97 62.57"/><path class="cls-4" d="M261.87,16.67a97.63,97.63,0,0,1,3.36,10c1,3.4,1.78,6.84,2.42,10.3s1.18,6.95,1.51,10.45.48,7,.53,10.5l4.37-.19c-.33-3.66-.72-7.29-1.39-10.87s-1.43-7.12-2.37-10.6-2-6.91-3.27-10.27a94.89,94.89,0,0,0-4.2-9.85Z"/><path class="cls-4" d="M269.09,58.6v-.68c0-3.31-.14-6.86-.53-10.43-.31-3.3-.8-6.7-1.5-10.39-.62-3.33-1.43-6.78-2.4-10.24a95.4,95.4,0,0,0-3.34-9.92l-.24-.57,2-1.12.29.57a96,96,0,0,1,4.23,9.92c1.27,3.46,2.38,6.94,3.28,10.33,1,3.76,1.8,7.24,2.39,10.66.7,3.77,1.1,7.64,1.4,10.92l.06.7Zm-6-40.56c.95,2.52,1.86,5.3,2.75,8.43,1,3.51,1.8,7,2.43,10.36.71,3.74,1.21,7.18,1.51,10.52s.48,6.72.53,9.87l3.1-.14c-.29-3.09-.67-6.64-1.32-10.1s-1.35-6.83-2.36-10.55c-.89-3.34-2-6.78-3.25-10.2C265.32,23.12,264.22,20.48,263.07,18Z"/><path class="cls-4" d="M256.12,15.08A4.39,4.39,0,0,0,261.07,19a4.66,4.66,0,0,0,3.62-5.36,4.38,4.38,0,0,0-4.95-3.91A4.66,4.66,0,0,0,256.12,15.08Z"/><path class="cls-4" d="M260.4,19.71a4.7,4.7,0,0,1-2.91-1,5.4,5.4,0,0,1-2-3.5,5.61,5.61,0,0,1,.89-4,4.86,4.86,0,0,1,3.24-2.13,5,5,0,0,1,5.65,4.46,5.67,5.67,0,0,1-.9,4,4.86,4.86,0,0,1-3.23,2.13A4.08,4.08,0,0,1,260.4,19.71Zm0-9.38a3.86,3.86,0,0,0-.58,0A3.69,3.69,0,0,0,257.4,12a4.25,4.25,0,0,0-.68,3,4.09,4.09,0,0,0,1.49,2.64,3.52,3.52,0,0,0,2.77.73,3.71,3.71,0,0,0,2.44-1.61,4.29,4.29,0,0,0,.67-3A3.84,3.84,0,0,0,260.41,10.33Z"/><path class="cls-8" d="M269.94,35c-.82.26-1.68.51-2.54.75,0-.19-.07-.38-.11-.58.81-.22,1.67-.47,2.49-.74C269.83,34.59,269.89,34.78,269.94,35Z"/><path class="cls-8" d="M266.94,36.53l-.38-1.87.58-.15c.8-.23,1.65-.48,2.46-.74l.58-.19.52,1.83-.59.19c-.82.27-1.69.52-2.55.76Z"/><path class="cls-8" d="M269.31,49.12l-.06-.63c1.3.44,2.6.89,3.91,1.32l.09.64Z"/><path class="cls-8" d="M274,51.39l-.92-.31-3.94-1.33-.39-.13-.18-2.07.88.31,3.9,1.32.36.12Z"/><path class="cls-8" d="M267.72,27.91q-1,.29-2,.54l-.15-.55c.66-.17,1.31-.36,2-.54C267.59,27.55,267.65,27.73,267.72,27.91Z"/><path class="cls-8" d="M265.29,29.24l-.5-1.83.63-.16c.57-.14,1.13-.3,1.69-.46l.78-.22.64,1.8-.66.18c-.67.19-1.34.37-2,.54Z"/><path class="cls-8" d="M267.9,38.33l-.12-.63c1,.25,2.07.52,3.1.79.05.21.11.42.16.63Z"/><path class="cls-8" d="M271.9,40l-1-.27c-1-.27-2.08-.53-3.13-.78l-.39-.1-.37-2,.91.21c1,.25,2.08.52,3.11.8l.35.09Z"/><path class="cls-8" d="M264.74,20.25l-1.31.63c-.06-.18-.13-.36-.19-.55l1.27-.61C264.58,19.9,264.66,20.08,264.74,20.25Z"/><polygon class="cls-8" points="263.08 21.77 262.5 20.09 262.99 19.73 264.8 18.86 265.56 20.58 263.08 21.77"/><path class="cls-8" d="M266.51,24.62c.08.22.17.43.25.65l-2.07-.43-.18-.64Z"/><path class="cls-8" d="M267.74,26.15l-3.52-.73-.62-2.08L267,24l.13.33-.45.2a4.8,4.8,0,0,0,.48-.12Z"/><path class="cls-8" d="M272.11,43.86c0,.19.07.38.11.57l-1,.23-2.27.52c0-.2-.05-.39-.07-.59l2.23-.5Z"/><polygon class="cls-8" points="268.39 45.97 268.17 44.08 272.57 43.08 272.94 44.94 268.39 45.97"/><path class="cls-8" d="M268.79,31.12c.07.21.13.42.2.64l-2.58-.56-.15-.63Z"/><polygon class="cls-8" points="269.9 32.63 265.92 31.77 265.41 29.71 269.25 30.54 269.9 32.63"/><path class="cls-5" d="M118.27,96.51,121.21,117a16.41,16.41,0,0,1-7,16.11,14,14,0,0,1-5.31,2.08c-8.05,1.35-18.3-4.44-19.55-13.12l-2.95-20.48c-1.18-8.21,6.11-16.08,13.71-18a11.78,11.78,0,0,1,1.31-.29,13.81,13.81,0,0,1,11,2.88A16.11,16.11,0,0,1,118.27,96.51Z"/><path class="cls-5" d="M106.54,136a19.59,19.59,0,0,1-10.25-3.08,15.81,15.81,0,0,1-7.52-10.79l-2.94-20.48C84.57,93,92.14,84.91,100,82.88a10.29,10.29,0,0,1,1.36-.3,14.35,14.35,0,0,1,11.4,3,16.71,16.71,0,0,1,6.11,10.83l2.95,20.47a17,17,0,0,1-7.27,16.77,14.36,14.36,0,0,1-5.53,2.17A15.47,15.47,0,0,1,106.54,136Zm-2.8-52.32a13.69,13.69,0,0,0-2.2.18,11.22,11.22,0,0,0-1.25.28C93.11,86,85.9,93.59,87,101.47l3,20.47a14.49,14.49,0,0,0,6.93,9.86,17.54,17.54,0,0,0,11.92,2.71,13.22,13.22,0,0,0,5.09-2,15.66,15.66,0,0,0,6.69-15.43l-3-20.48a15.39,15.39,0,0,0-5.62-10A13.34,13.34,0,0,0,103.74,83.7Z"/><path class="cls-5" d="M285.86,71.28,288,86c1.48,10.24-5.07,19.93-14.55,21.53a13.72,13.72,0,0,1-4,.07c-6.39-.82-11.75-6.15-12.79-13.35l-2.94-20.48a16.82,16.82,0,0,1,2.66-11.84,14.6,14.6,0,0,1,9.63-6.34,15.19,15.19,0,0,1,2.75-.21C277.09,55.36,284.53,62,285.86,71.28Z"/><path class="cls-5" d="M271.15,108.34a14.21,14.21,0,0,1-1.84-.12c-6.79-.87-12.27-6.59-13.32-13.91l-3-20.47a17.48,17.48,0,0,1,2.78-12.33,15.11,15.11,0,0,1,10-6.61,15.34,15.34,0,0,1,2.85-.22c8.77,0,16.41,7.12,17.76,16.5l2.12,14.68c1.53,10.63-5.23,20.63-15.06,22.28A14.58,14.58,0,0,1,271.15,108.34ZM268.47,56a15.51,15.51,0,0,0-2.43.2,14,14,0,0,0-9.24,6.08,16.15,16.15,0,0,0-2.55,11.35L257.2,94.1c1,6.74,6,12,12.25,12.81a13.28,13.28,0,0,0,3.88-.07c9.17-1.55,15.46-10.87,14-20.78l-2.12-14.68C284,62.63,276.87,56,268.69,56Z"/><path class="cls-6" d="M118.27,96.51,121.21,117a16.41,16.41,0,0,1-7,16.11c-7.07-7.92-11.88-18.08-13.69-30.63a80.36,80.36,0,0,1-.41-18.94,11.78,11.78,0,0,1,1.31-.29,13.81,13.81,0,0,1,11,2.88A16.11,16.11,0,0,1,118.27,96.51Z"/><path class="cls-6" d="M114.13,133.92l-.33-.37c-7.43-8.32-12.09-18.75-13.85-31a81,81,0,0,1-.42-19.11l0-.45.41-.12a10.8,10.8,0,0,1,1.37-.3,14.35,14.35,0,0,1,11.4,3,16.71,16.71,0,0,1,6.11,10.83l2.95,20.47a17,17,0,0,1-7.27,16.77ZM100.71,84.05a79.63,79.63,0,0,0,.45,18.31c1.69,11.78,6.12,21.83,13.17,29.88a15.69,15.69,0,0,0,6.28-15.15l-3-20.48a15.39,15.39,0,0,0-5.62-10,13.29,13.29,0,0,0-10.5-2.76Z"/><path class="cls-6" d="M273.89,73.89c1.8,12.53.06,23.82-4.51,33.67-6.39-.82-11.75-6.15-12.79-13.35l-2.94-20.48a16.82,16.82,0,0,1,2.66-11.84,14.6,14.6,0,0,1,9.63-6.34,15.19,15.19,0,0,1,2.75-.21A76.09,76.09,0,0,1,273.89,73.89Z"/><path class="cls-6" d="M269.74,108.27l-.43,0c-6.79-.87-12.27-6.59-13.32-13.91l-3-20.47a17.48,17.48,0,0,1,2.78-12.33,15.11,15.11,0,0,1,10-6.61,15.34,15.34,0,0,1,2.85-.22h.39l.16.39a77.08,77.08,0,0,1,5.24,18.72c1.77,12.26.23,23.72-4.56,34.07ZM268.3,56a15.93,15.93,0,0,0-2.26.2,14,14,0,0,0-9.24,6.08,16.15,16.15,0,0,0-2.55,11.35L257.2,94.1c.94,6.59,5.78,11.76,11.83,12.74,4.52-10,6-21,4.25-32.85A75.24,75.24,0,0,0,268.3,56Z"/><path class="cls-3" d="M270.36,74.18c6.1,42.34-28.33,70.24-74.38,78s-86.35-7.58-92.44-49.92C98.38,66.39,119.18,24.64,153.68,8a73.56,73.56,0,0,1,40.44-6.89C232.19,5.42,265.18,38.21,270.36,74.18Z"/><path class="cls-3" d="M173.52,154.79c-39,0-65.81-19.28-70.58-52.43-5.33-37,16.85-78.73,50.49-94.94a75,75,0,0,1,20-6.4A74,74,0,0,1,194.19.48c37.72,4.25,71.45,36.58,76.78,73.6,5.64,39.23-23.76,70.13-74.9,78.74A135.71,135.71,0,0,1,173.52,154.79ZM185.74,1.32a73,73,0,0,0-31.81,7.31c-33.17,16-55,57.05-49.79,93.52,5.54,38.43,41.55,57.81,91.74,49.36,50.41-8.48,79.41-38.79,73.88-77.22-5.25-36.46-38.5-68.31-75.7-72.5A74.85,74.85,0,0,0,185.74,1.32Z"/><path class="cls-5" d="M251.25,87c4.12,28.62-17.28,38.79-46.72,44.82l-2.88-10.19-20.94,3.52.12,10.61c-29.18,3.67-52.13.72-56.19-27.46C120,76.19,121,37,176.55,27.65S246.63,54.88,251.25,87Z"/><path class="cls-5" d="M163.22,137.71c-19.18,0-35.81-5.88-39.18-29.29-2.1-14.56-3.6-33.32,3.43-49.26,7.67-17.39,23.69-27.91,49-32.16,25.06-4.22,44.22.6,57,14.31,9.44,10.15,15.47,25.07,18.43,45.6,4.41,30.65-20.09,40-47.21,45.58l-.54.11-2.89-10.21-19.89,3.35.12,10.62-.55.07A142.48,142.48,0,0,1,163.22,137.71ZM193.05,26.84a99.52,99.52,0,0,0-16.4,1.46c-24.87,4.18-40.59,14.46-48.07,31.42-6.89,15.62-5.4,34.12-3.33,48.5,4.18,29.05,28.82,30.2,55,27l-.12-10.58,22-3.7L205,131.08c26.31-5.45,49.91-14.62,45.69-44-2.92-20.25-8.83-34.93-18.08-44.88C223,32,209.79,26.84,193.05,26.84Z"/><path class="cls-9" d="M249.32,86.83c4,27.78-16.77,37.65-45.35,43.5l-2.79-9.89-20.33,3.42.12,10.29c-28.32,3.57-50.6.71-54.54-26.65-4.49-31.18-3.55-69.22,50.38-78.29S244.83,55.64,249.32,86.83Z"/><path class="cls-8" d="M163.87,136.05c-18.62,0-34.77-5.71-38-28.45-2-14.13-3.49-32.34,3.33-47.82,7.45-16.88,23-27.09,47.56-31.23,24.33-4.09,42.94.59,55.32,13.9,9.16,9.86,15,24.34,17.88,44.28,4.29,29.76-19.49,38.85-45.83,44.25l-.54.11-2.8-9.91-19.28,3.24.12,10.32-.55.07A140.06,140.06,0,0,1,163.87,136.05Zm29-107.61a95.71,95.71,0,0,0-15.92,1.42c-24.13,4.06-39.38,14-46.64,30.49C123.58,75.5,125,93.45,127,107.4c4,28.18,28,29.3,53.31,26.16l-.12-10.26,21.38-3.6,2.79,9.87c25.52-5.29,48.41-14.19,44.31-42.64-2.82-19.65-8.56-33.89-17.54-43.54C221.93,33.44,209.07,28.44,192.83,28.44Z"/><path class="cls-4" d="M169,76.7c1.5,10.4-5.08,20.14-14.7,21.76s-18.63-5.5-20.13-15.9,5.09-20.13,14.71-21.75S167.52,66.31,169,76.7Z"/><path class="cls-4" d="M151.56,99.35a17.23,17.23,0,0,1-10.72-3.8,19.9,19.9,0,0,1-7.26-12.89A20.83,20.83,0,0,1,136.87,68a18,18,0,0,1,11.92-7.85c9.94-1.67,19.28,5.71,20.83,16.45a20.81,20.81,0,0,1-3.3,14.66,17.93,17.93,0,0,1-11.92,7.85A17.1,17.1,0,0,1,151.56,99.35Zm.07-38.11a15.88,15.88,0,0,0-2.65.22,16.79,16.79,0,0,0-11.12,7.32,19.42,19.42,0,0,0-3.07,13.68,18.51,18.51,0,0,0,6.77,12,16,16,0,0,0,12.65,3.33,16.77,16.77,0,0,0,11.12-7.33,19.36,19.36,0,0,0,3.08-13.68,18.57,18.57,0,0,0-6.78-12A16.07,16.07,0,0,0,151.63,61.24Z"/><path class="cls-10" d="M165.26,77.33c1.18,8.16-4,15.81-11.53,17.08s-14.62-4.32-15.79-12.48,4-15.8,11.53-17.07S164.09,69.18,165.26,77.33Z"/><path class="cls-11" d="M151.59,95.25c-7,0-13.15-5.52-14.26-13.22-1.22-8.5,4.18-16.5,12-17.82s15.26,4.52,16.49,13-4.18,16.5-12.05,17.83A14.19,14.19,0,0,1,151.59,95.25Zm0-29.91a12.76,12.76,0,0,0-2,.17,13,13,0,0,0-8.64,5.69,15.08,15.08,0,0,0-2.39,10.63c1.12,7.79,7.89,13.13,15.09,11.92a13,13,0,0,0,8.64-5.69,15.1,15.1,0,0,0,2.39-10.62C163.64,70.39,158,65.34,151.61,65.34Z"/><path class="cls-12" d="M159.73,78.27c.69,4.85-2.38,9.39-6.87,10.15s-8.69-2.57-9.39-7.42,2.38-9.4,6.86-10.15S159,73.41,159.73,78.27Z"/><path class="cls-12" d="M151.58,89.19a8.37,8.37,0,0,1-5.19-1.84,9.63,9.63,0,0,1-3.52-6.25c-.75-5.2,2.56-10.09,7.37-10.9a8.27,8.27,0,0,1,6.57,1.72,9.61,9.61,0,0,1,3.52,6.24c.75,5.21-2.56,10.1-7.37,10.91A8,8,0,0,1,151.58,89.19Zm0-17.79a6.72,6.72,0,0,0-1.18.1c-4.15.7-7,4.92-6.35,9.4a8.31,8.31,0,0,0,3,5.38,7.12,7.12,0,0,0,5.66,1.49c4.15-.7,7-4.92,6.35-9.4a8.31,8.31,0,0,0-3-5.38A7.19,7.19,0,0,0,151.61,71.4Z"/><path class="cls-13" d="M159.73,78.27c.69,4.85-2.38,9.39-6.87,10.15s-8.69-2.57-9.39-7.42,2.38-9.4,6.86-10.15S159,73.41,159.73,78.27Z"/><path class="cls-13" d="M151.58,89.19a8.37,8.37,0,0,1-5.19-1.84,9.63,9.63,0,0,1-3.52-6.25c-.75-5.2,2.56-10.09,7.37-10.9a8.27,8.27,0,0,1,6.57,1.72,9.61,9.61,0,0,1,3.52,6.24c.75,5.21-2.56,10.1-7.37,10.91A8,8,0,0,1,151.58,89.19Zm0-17.79a6.72,6.72,0,0,0-1.18.1c-4.15.7-7,4.92-6.35,9.4a8.31,8.31,0,0,0,3,5.38,7.12,7.12,0,0,0,5.66,1.49c4.15-.7,7-4.92,6.35-9.4a8.31,8.31,0,0,0-3-5.38A7.19,7.19,0,0,0,151.61,71.4Z"/><path class="cls-4" d="M234.38,65.7c1.5,10.4-5.08,20.14-14.7,21.76s-18.63-5.5-20.13-15.9,5.09-20.13,14.71-21.75S232.89,55.31,234.38,65.7Z"/><path class="cls-4" d="M216.93,88.35a17.17,17.17,0,0,1-10.72-3.8A19.88,19.88,0,0,1,199,71.67c-1.55-10.74,5.28-20.84,15.21-22.51a17.05,17.05,0,0,1,13.57,3.56A19.88,19.88,0,0,1,235,65.6a20.76,20.76,0,0,1-3.3,14.66,17.91,17.91,0,0,1-11.92,7.85A17.1,17.1,0,0,1,216.93,88.35ZM217,50.24a15.88,15.88,0,0,0-2.65.22c-9.27,1.56-15.63,11-14.19,21a18.51,18.51,0,0,0,6.77,12,16,16,0,0,0,12.65,3.33,16.79,16.79,0,0,0,11.12-7.32,19.38,19.38,0,0,0,3.08-13.68,18.57,18.57,0,0,0-6.78-12A16.07,16.07,0,0,0,217,50.24Z"/><ellipse class="cls-14" cx="216.97" cy="68.63" rx="13.83" ry="14.95"/><path class="cls-11" d="M216.94,84.25a13.66,13.66,0,0,1-8.49-3A15.77,15.77,0,0,1,202.7,71c-1.22-8.5,4.18-16.5,12.05-17.82s15.26,4.52,16.49,13-4.18,16.5-12.05,17.83A13.23,13.23,0,0,1,216.94,84.25Zm0-29.91a11.72,11.72,0,0,0-2,.18,13,13,0,0,0-8.64,5.68,15.08,15.08,0,0,0-2.39,10.63,14.4,14.4,0,0,0,5.26,9.34A12.38,12.38,0,0,0,219,82.75c7.2-1.21,12.15-8.53,11-16.31C229,59.39,223.37,54.34,217,54.34Z"/><path class="cls-13" d="M225.09,67.27c.7,4.85-2.37,9.39-6.86,10.15s-8.69-2.57-9.39-7.42,2.38-9.4,6.86-10.15S224.4,62.41,225.09,67.27Z"/><path class="cls-13" d="M217,78.19a8.31,8.31,0,0,1-5.19-1.84,9.63,9.63,0,0,1-3.52-6.25,10,10,0,0,1,1.59-7.1,8.72,8.72,0,0,1,5.78-3.8,8.27,8.27,0,0,1,6.57,1.72,9.61,9.61,0,0,1,3.52,6.25c.75,5.2-2.56,10.09-7.37,10.9A8,8,0,0,1,217,78.19Zm0-17.79a6.75,6.75,0,0,0-1.19.1,7.5,7.5,0,0,0-5,3.28,8.64,8.64,0,0,0-1.37,6.12,8.27,8.27,0,0,0,3,5.38,7.11,7.11,0,0,0,5.66,1.49c4.15-.7,7-4.92,6.35-9.4a8.31,8.31,0,0,0-3-5.38A7.19,7.19,0,0,0,217,60.4Z"/><path class="cls-5" d="M194.12,1.14l1,7.09a7.56,7.56,0,0,1-5.88,8.7l-26.52,4.46A7.14,7.14,0,0,1,154.69,15l-1-7a73.56,73.56,0,0,1,40.44-6.89Z"/><path class="cls-5" d="M161.65,22.15a7.89,7.89,0,0,1-7.57-7L153,7.63l.43-.21a75,75,0,0,1,20-6.4A74,74,0,0,1,194.19.48l.46.05,1.1,7.6a8.77,8.77,0,0,1-1.39,6.16,7.53,7.53,0,0,1-5,3.29l-26.53,4.47A7.83,7.83,0,0,1,161.65,22.15Zm-7.3-13.72.94,6.5a6.53,6.53,0,0,0,7.35,5.81l26.53-4.46a6.33,6.33,0,0,0,4.2-2.77,7.35,7.35,0,0,0,1.17-5.18l-.95-6.59a73,73,0,0,0-19.92.59A73.73,73.73,0,0,0,154.35,8.43Z"/><path class="cls-8" d="M220.7,13.88a12.36,12.36,0,0,0-8.08-.06c-2,.71-3.51,1.85-1.34,3.56,4.33,3.42,20,9.1,25,13.59C241.07,35.24,241.57,21,220.7,13.88Z"/><path class="cls-8" d="M237.85,32.41a3,3,0,0,1-1.95-.93c-2.73-2.43-8.85-5.32-14.25-7.87-4.5-2.12-8.74-4.12-10.73-5.7a2.63,2.63,0,0,1-1.3-2.37c.14-1,1.06-1.74,2.81-2.35a12.85,12.85,0,0,1,8.46.06C235,18,239.3,26,239.6,29.53a2.67,2.67,0,0,1-1,2.68A1.59,1.59,0,0,1,237.85,32.41ZM216.48,13.83a10.94,10.94,0,0,0-3.68.62c-1.79.63-2,1.19-2,1.3s.27.66.82,1.1c1.88,1.48,6.07,3.46,10.5,5.55,5.74,2.71,11.68,5.52,14.53,8.06.7.62,1.17.71,1.39.58s.38-.69.32-1.39c-.32-3.76-5.33-10.89-17.86-15.14A12.5,12.5,0,0,0,216.48,13.83Z"/><path class="cls-8" d="M274.51,60.14s6.44,0,8.23,8.55-.8,12.59-2.13,8.07-2.32-7.47-3.13-10.3-3.12-4.52-3.4-5.51S274.51,60.14,274.51,60.14Z"/><path class="cls-8" d="M281.9,79.31c-.54,0-1.3-.41-1.88-2.35-.68-2.31-1.27-4.21-1.79-5.9s-.94-3-1.34-4.4a10.65,10.65,0,0,0-2.29-3.84,5.41,5.41,0,0,1-1.11-1.68,1.39,1.39,0,0,1,.17-1.35,1,1,0,0,1,.91-.31c.74,0,7,.54,8.76,9.07,1.14,5.49.66,10.19-1.1,10.71A1.14,1.14,0,0,1,281.9,79.31Zm-7.22-18.5a7,7,0,0,0,.83,1.13,12,12,0,0,1,2.55,4.32c.4,1.38.83,2.78,1.33,4.38s1.11,3.6,1.8,5.92c.37,1.28.73,1.42.74,1.42.45-.16,1.44-3.23.21-9.14C280.64,61.6,275.65,60.88,274.68,60.81Z"/><path class="cls-15" d="M205.49,93.81c-.28,9.38-6.69,17.53-15.59,19s-17.31-4.16-20.21-13Z"/><path class="cls-15" d="M187.05,113.74c-8,0-15.21-5.39-17.93-13.69l-.25-.75L206.12,93l0,.8C205.81,103.7,199,112,190,113.5A18.31,18.31,0,0,1,187.05,113.74Zm-16.52-13.38c3.07,8.26,11.05,13.21,19.27,11.83s14.44-8.72,15-17.6Z"/><path class="cls-12" d="M197.69,95.12l.43,3a3.21,3.21,0,0,1-2.49,3.68l-14.3,2.41a3,3,0,0,1-3.4-2.7l-.43-3Z"/><path class="cls-12" d="M180.87,104.9a3.43,3.43,0,0,1-2.12-.75,4,4,0,0,1-1.43-2.54L176.8,98l21.4-3.6.52,3.64a4.08,4.08,0,0,1-.65,2.89,3.5,3.5,0,0,1-2.35,1.54l-14.29,2.41A3.64,3.64,0,0,1,180.87,104.9Zm-2.68-5.83.34,2.33a2.56,2.56,0,0,0,.95,1.68,2.18,2.18,0,0,0,1.76.46l14.29-2.4a2.34,2.34,0,0,0,1.55-1,2.68,2.68,0,0,0,.43-1.91l-.33-2.34Z"/><path class="cls-12" d="M232.14,177.38s13-2.73,21.33,4.3,9.76,14.86,6.51,15.25-11.57-7.43-15.91-8.6S228.53,182.07,232.14,177.38Z"/><path class="cls-12" d="M259.74,197.6c-2,0-5.17-2.15-8.5-4.42-2.68-1.82-5.45-3.71-7.31-4.21-3.53-.95-11.69-4.44-12.94-8.58a3.69,3.69,0,0,1,.69-3.43l.13-.18.22,0c.54-.12,13.38-2.71,21.82,4.42,6.39,5.41,9,11.52,8.21,14.53a2.33,2.33,0,0,1-2,1.89ZM232.48,178a2.24,2.24,0,0,0-.33,2c1,3.22,8.26,6.68,12.07,7.71,2.06.55,4.91,2.5,7.67,4.38,3,2.06,6.44,4.39,8,4.2a1.1,1.1,0,0,0,1-.94c.59-2.22-1.44-7.76-7.78-13.13C245.68,175.92,234.21,177.68,232.48,178Z"/><path class="cls-16" d="M50.75,93.19c-.7-12.94-11.47-15.74-17-15.85a1.07,1.07,0,0,0-.18,0c-5.71.11-17,3.3-17.75,16.23-.41,7.6,2.42,12,4.9,14.42a19.55,19.55,0,0,1,5.21,8.93l1.57,5.75,7.2.06s4.92.07,4.92.07l2-7.23a17.11,17.11,0,0,1,4.35-7.44C48.3,105.71,51.18,101.09,50.75,93.19Z"/><path class="cls-16" d="M40.12,123.54l-5.21-.13-.23,0-7.7-.07-1.71-6.27a18.81,18.81,0,0,0-5-8.59c-2.58-2.48-5.55-7.1-5.12-15,.71-13,11.66-16.75,18.12-16.91l.17,0,.13.74,0-.73a1.18,1.18,0,0,1,.19,0c7.75.17,17,4.59,17.64,16.53.44,8.12-2.5,12.93-5,15.52a16.42,16.42,0,0,0-4.16,7.12ZM34,121.9l.69,0,4.4.1,1.82-6.68a18,18,0,0,1,4.53-7.77c2.34-2.38,5-6.81,4.62-14.37-.77-14.15-13.76-15.11-16.35-15.16h-.18c-6.12.12-16.41,3.52-17.07,15.56-.39,7.31,2.33,11.56,4.68,13.82a20.37,20.37,0,0,1,5.41,9.27L28,121.94l6,.06Z"/><path class="cls-4" d="M39.44,125.06l-.36,0,1-21.59a30.94,30.94,0,0,1-2.63-2l-.92.92-.75-1.27-1.09,1.62L34,101.06l-1.08,1.3L32,101.22l-.9,1.06-.94-.92a8.18,8.18,0,0,1-3.35,3.25L28.62,125l-.36,0-1.83-20.27a3.11,3.11,0,0,1-2.23-.14c-.79-.35-1.2-.79-1.2-1.32,0-1.39,2.84-2.73,3.17-2.87l.22-.11.36,3.92A8.14,8.14,0,0,0,29.93,101l.11-.21,1,1,.93-1.09.93,1.14,1.18-1.41.7,1.56,1-1.56.8,1.36.83-.83a33.5,33.5,0,0,0,2.67,2.1l.13-2.84.23.09c.18.07,4.26,1.74,3.59,4a.84.84,0,0,1-.55.59c-.69.22-1.9-.37-3.07-1.14Zm1-21.83c1.18.79,2.36,1.4,3,1.22a.45.45,0,0,0,.3-.34c.49-1.61-2.3-3-3.13-3.39Zm-14.39-2.37c-.93.46-2.73,1.52-2.72,2.4,0,.36.33.69,1,1a2.88,2.88,0,0,0,2.07.11Z"/><path class="cls-4" d="M39.67,125.33l-.84,0,1-21.7c-1-.69-1.9-1.43-2.37-1.83l-1,1-.71-1.21-1.12,1.66-.75-1.67-1,1.23L32,101.61l-.88,1-.91-.89a8.36,8.36,0,0,1-3.13,3l1.85,20.42-.84.09-1.83-20.24a3.35,3.35,0,0,1-2.11-.22c-.89-.39-1.35-.91-1.35-1.56,0-1.53,2.76-2.86,3.31-3.11l.53-.24.35,3.9a8.17,8.17,0,0,0,2.77-3l.26-.49,1.05,1,.95-1.11.92,1.14,1.24-1.48.68,1.52,1-1.52.83,1.42.77-.77.28.25c.51.44,1.32,1.1,2.18,1.72L40,99.8l.54.21c.45.19,4.45,1.87,3.73,4.3a1.11,1.11,0,0,1-.71.76c-.62.2-1.58-.11-2.92-.94Zm1-22.24c1.73,1.14,2.4,1.18,2.64,1.11a.24.24,0,0,0,.15-.17c.37-1.25-1.76-2.46-2.69-2.92Zm-14.84-1.83c-1.17.62-2.27,1.46-2.27,2,0,.24.29.49.82.73a2.68,2.68,0,0,0,1.72.15Z"/><path class="cls-4" d="M41.26,124.64l-14.61-.1a.74.74,0,0,1-.71-.78.7.7,0,0,1,.72-.77l14.6.1a.74.74,0,0,1,.71.78A.75.75,0,0,1,41.26,124.64Z"/><path class="cls-4" d="M41.26,125l-14.61-.09a1,1,0,0,1-.76-.35,1.16,1.16,0,0,1-.31-.82,1.22,1.22,0,0,1,.36-.89.93.93,0,0,1,.75-.27l14.57.1A1,1,0,0,1,42,123a1.24,1.24,0,0,1,.31.83A1.12,1.12,0,0,1,41.26,125Zm-14.65-1.65a.24.24,0,0,0-.19.08.46.46,0,0,0-.13.31.41.41,0,0,0,.11.28.33.33,0,0,0,.25.11l14.61.1v0a.39.39,0,0,0,.25-.66.37.37,0,0,0-.25-.12l-14.61-.09Z"/><path class="cls-4" d="M40.34,126l-13.09-.07a.78.78,0,0,1,0-1.55l13.1.07a.78.78,0,0,1,0,1.55Z"/><path class="cls-4" d="M40.34,126.4l-13.09-.08a1.16,1.16,0,0,1,0-2.32l13.1.07a1.17,1.17,0,0,1,0,2.33Zm-13.08-1.63a.39.39,0,0,0-.37.39.38.38,0,0,0,.36.39l13.09.07v0a.39.39,0,0,0,0-.77Z"/><path class="cls-4" d="M39.53,127.55l-11.61-.09a.77.77,0,0,1-.71-.79.74.74,0,0,1,.72-.76l11.61.09a.75.75,0,0,1,.71.78A.76.76,0,0,1,39.53,127.55Z"/><path class="cls-4" d="M39.53,127.94l-11.61-.1a1,1,0,0,1-.76-.34,1.24,1.24,0,0,1-.31-.83,1.13,1.13,0,0,1,1.08-1.15l11.61.09a1,1,0,0,1,.76.35,1.21,1.21,0,0,1,.31.82A1.13,1.13,0,0,1,39.53,127.94Zm-11.6-1.65a.38.38,0,0,0-.36.39.43.43,0,0,0,.1.27.33.33,0,0,0,.25.12l11.61.09v0a.37.37,0,0,0,.36-.38.45.45,0,0,0-.1-.28.36.36,0,0,0-.26-.11Z"/><path class="cls-4" d="M38.93,129l-10.49-.07a.75.75,0,0,1-.71-.78.74.74,0,0,1,.71-.77l10.49.07a.74.74,0,0,1,.71.78A.75.75,0,0,1,38.93,129Z"/><path class="cls-4" d="M38.93,129.37l-10.49-.08a1,1,0,0,1-.76-.34,1.24,1.24,0,0,1-.31-.83A1.12,1.12,0,0,1,28.44,127l10.49.07a1,1,0,0,1,.76.35,1.21,1.21,0,0,1,.31.82A1.12,1.12,0,0,1,38.93,129.37Zm-10.48-1.63a.4.4,0,0,0-.26.66.33.33,0,0,0,.25.12l10.49.07v0a.38.38,0,0,0,.36-.38.41.41,0,0,0-.11-.28.34.34,0,0,0-.25-.11Z"/><path class="cls-4" d="M38.75,130.26l-10-.07a.74.74,0,0,1,0-1.47l10,.07a.74.74,0,0,1,0,1.47Z"/><path class="cls-4" d="M38.75,130.65l-10-.07a1.13,1.13,0,0,1,0-2.25l10,.07a1,1,0,0,1,.73.34,1.17,1.17,0,0,1,.3.79A1.09,1.09,0,0,1,38.75,130.65Zm-10-1.54a.34.34,0,0,0-.33.35.34.34,0,0,0,.33.34l10,.07v0a.33.33,0,0,0,.32-.34.37.37,0,0,0-.09-.25.29.29,0,0,0-.23-.1Z"/><path class="cls-4" d="M38.84,131.59l-10-.07a.74.74,0,0,1,0-1.47l10,.07a.71.71,0,0,1,.68.74A.71.71,0,0,1,38.84,131.59Z"/><path class="cls-4" d="M38.84,132l-10-.07a1.08,1.08,0,0,1-1-1.13,1.09,1.09,0,0,1,1-1.12l10,.07a1,1,0,0,1,.74.34,1.17,1.17,0,0,1,.3.79A1.09,1.09,0,0,1,38.84,132Zm-10-1.54a.34.34,0,0,0-.33.35.34.34,0,0,0,.33.35l10,.07v0a.34.34,0,0,0,.32-.35.38.38,0,0,0-.09-.25.33.33,0,0,0-.23-.1Z"/><path class="cls-16" d="M10.89,91.72l-10.54.1a.22.22,0,0,1-.22-.23v-.82a.22.22,0,0,1,.21-.23l10.54-.1a.22.22,0,0,1,.22.23v.81A.23.23,0,0,1,10.89,91.72Z"/><path class="cls-16" d="M10.66,91.86.59,92A.62.62,0,0,1,0,91.34V91a.6.6,0,0,1,.58-.63l10.07-.1a.6.6,0,0,1,.58.62v.31A.6.6,0,0,1,10.66,91.86ZM.58,90.68A.34.34,0,0,0,.26,91v.31a.34.34,0,0,0,.33.34l10.07-.1a.34.34,0,0,0,.32-.35v-.31a.33.33,0,0,0-.32-.34Z"/><path class="cls-16" d="M16.27,78.63,6.91,71.46a.59.59,0,0,1-.12-.77c.26-.4.58-.46.81-.28L17,77.58a.6.6,0,0,1,.13.78C16.82,78.75,16.5,78.81,16.27,78.63Z"/><path class="cls-16" d="M16.57,78.88a.6.6,0,0,1-.38-.13L6.83,71.58a.71.71,0,0,1-.26-.46.73.73,0,0,1,.11-.52c.3-.46.71-.54,1-.31L17,77.46a.73.73,0,0,1,.16,1C17,78.78,16.77,78.88,16.57,78.88ZM7.3,70.46a.35.35,0,0,0-.3.17c-.15.23-.18.34-.16.44a.46.46,0,0,0,.15.27l9.36,7.17a.35.35,0,0,0,.52-.1c.21-.32.17-.58,0-.7L7.52,70.53A.36.36,0,0,0,7.3,70.46Z"/><path class="cls-16" d="M66.07,91.06l-10.63.1a.22.22,0,0,1-.22-.23v-.82a.22.22,0,0,1,.22-.23l10.63-.11a.23.23,0,0,1,.21.24v.81A.23.23,0,0,1,66.07,91.06Z"/><path class="cls-16" d="M65.83,91.2l-10.15.1a.61.61,0,0,1-.59-.63v-.3a.61.61,0,0,1,.57-.64l10.16-.09a.59.59,0,0,1,.58.62v.3A.61.61,0,0,1,65.83,91.2ZM55.67,90a.35.35,0,0,0-.32.36v.3a.34.34,0,0,0,.33.35l10.15-.1a.34.34,0,0,0,.32-.35v-.31a.34.34,0,0,0-.32-.35Z"/><path class="cls-16" d="M26.37,70.72l-1,.28a.16.16,0,0,1-.19-.13L22.55,59.45a.16.16,0,0,1,.11-.2l1-.28a.16.16,0,0,1,.19.13l2.63,11.42A.16.16,0,0,1,26.37,70.72Z"/><path class="cls-16" d="M25.57,71.06a.55.55,0,0,1-.32-.1.65.65,0,0,1-.28-.4L22.51,59.83A.67.67,0,0,1,23,59l.37-.1a.58.58,0,0,1,.46.08.65.65,0,0,1,.28.4l2.47,10.73a.78.78,0,0,1-.07.5.63.63,0,0,1-.38.3l-.37.1Zm-2.1-11.88c-.09,0-.46.11-.46.11a.4.4,0,0,0-.27.48l2.47,10.72a.39.39,0,0,0,.16.25.35.35,0,0,0,.28,0l.37-.1a.35.35,0,0,0,.23-.18.44.44,0,0,0,0-.3L23.82,59.48a.39.39,0,0,0-.16-.25A.34.34,0,0,0,23.47,59.18Z"/><path class="cls-16" d="M42.26,71.52l-.95-.47a.17.17,0,0,1-.08-.22l4.49-10.72a.15.15,0,0,1,.21-.08l1,.46a.19.19,0,0,1,.08.23L42.47,71.43A.15.15,0,0,1,42.26,71.52Z"/><path class="cls-16" d="M42.16,71.55a.57.57,0,0,1-.25-.06l-.35-.17a.69.69,0,0,1-.31-.87l4.22-10.07a.6.6,0,0,1,.81-.33l.35.17a.67.67,0,0,1,.3.87L42.71,71.16A.61.61,0,0,1,42.16,71.55ZM46,60.26a.35.35,0,0,0-.33.23L41.48,70.56a.4.4,0,0,0,.18.52l.35.17a.34.34,0,0,0,.28,0,.38.38,0,0,0,.2-.21L46.71,61a.42.42,0,0,0-.18-.53l-.35-.17Z"/><path class="cls-16" d="M50.88,78.46l-.41-1a.19.19,0,0,1,.09-.24L60.91,72.3a.16.16,0,0,1,.22.09l.42,1a.2.2,0,0,1-.09.24L51.1,78.55A.16.16,0,0,1,50.88,78.46Z"/><path class="cls-16" d="M51.22,78.58a.64.64,0,0,1-.59-.41l-.13-.33a.72.72,0,0,1,0-.52.66.66,0,0,1,.34-.39l9.71-4.6a.62.62,0,0,1,.85.35l.13.33a.74.74,0,0,1,0,.53.67.67,0,0,1-.34.38l-9.72,4.6A.54.54,0,0,1,51.22,78.58Zm-.36-.52a.38.38,0,0,0,.51.22l9.72-4.61a.4.4,0,0,0,.21-.23.47.47,0,0,0,0-.33l-.13-.32a.39.39,0,0,0-.52-.22l-9.71,4.61a.4.4,0,0,0-.21.23.42.42,0,0,0,0,.33Z"/><ellipse class="cls-7" cx="192.99" cy="376.69" rx="67.62" ry="12.98"/><path class="cls-7" d="M193,390.43c-33.12,0-68.32-4.82-68.32-13.74S159.87,363,193,363s68.32,4.82,68.32,13.74S226.11,390.43,193,390.43Zm0-26c-40,0-66.93,6.32-66.93,12.23S153,388.92,193,388.92s66.93-6.33,66.93-12.23S233,364.46,193,364.46Z"/></g></g></svg>