<svg xmlns="http://www.w3.org/2000/svg" xmlns:xlink="http://www.w3.org/1999/xlink" viewBox="0 0 805.52 767.43"><defs><style>.cls-1{fill:#268baa;}.cls-2{fill:#11778e;}.cls-3{fill:#72bfe5;}.cls-4{fill:#011c22;}.cls-5{fill:#52abce;}.cls-6{fill:#3d96b2;}.cls-7{fill:#e1ebf8;}.cls-8{fill:#a8dbef;}.cls-9{fill:#1f566a;}.cls-10{fill:url(#radial-gradient);}.cls-11{fill:#0b4751;}.cls-12{fill:#fff;}.cls-13{fill:#c5f7fe;}.cls-14{fill:url(#radial-gradient-2);}.cls-15{fill:#0b353f;}.cls-16{fill:#ffd5a1;}.cls-17{fill:#ff7c6b;}</style><radialGradient id="radial-gradient" cx="239.04" cy="144.35" r="29.15" gradientUnits="userSpaceOnUse"><stop offset="0" stop-color="#fff"/><stop offset="1" stop-color="#0b353f"/></radialGradient><radialGradient id="radial-gradient-2" cx="378.51" cy="144.35" r="29.15" xlink:href="#radial-gradient"/></defs><title>Fichier 1</title><g id="Calque_2" data-name="Calque 2"><g id="_Layer_" data-name="&lt;Layer&gt;"><rect class="cls-1" x="286.87" y="291.07" width="42.3" height="55.45"/><path class="cls-1" d="M330.45,347.81H285.58v-58h44.87Zm-42.3-2.58h39.73V292.36H288.15Z"/><path class="cls-2" d="M329.17,291.07v14.06a1.4,1.4,0,0,1-1.31,1.39c-6.33.38-12.77.56-19.27.56q-10.38,0-20.43-.63a1.37,1.37,0,0,1-1.29-1.39v-14Z"/><path class="cls-2" d="M308.59,309.65c-7,0-14-.21-20.59-.62a4,4,0,0,1-3.71-4V288.5h47.45v16.63a4,4,0,0,1-3.72,4C321.75,309.47,315.21,309.65,308.59,309.65ZM289.44,304a331.19,331.19,0,0,0,37.15.06V293.65H289.44Z"/><path class="cls-2" d="M329.17,320.2v14.25c-6.75.43-13.63.64-20.58.64q-11.05,0-21.72-.71V320.2a1.12,1.12,0,0,1,1.12-1.12H328A1.13,1.13,0,0,1,329.17,320.2Z"/><path class="cls-2" d="M308.59,337.66c-7.53,0-14.9-.24-21.9-.71l-2.4-.16V320.2a3.7,3.7,0,0,1,3.7-3.69H328a3.7,3.7,0,0,1,3.7,3.69v16.66l-2.41.16C322.7,337.45,315.73,337.66,308.59,337.66ZM289.44,332a333.63,333.63,0,0,0,37.15.06V321.66H289.44Z"/><path class="cls-1" d="M128.62,417.67c-2.06.85-4.05,1.7-6,2.59A127.46,127.46,0,0,0,98.5,434.53,111.14,111.14,0,0,0,88.6,443a2.77,2.77,0,0,0-.34.35c-1.53,1.48-3,3-4.32,4.48Q83,448.89,82,450c-1.37,1.6-2.63,3.2-3.82,4.78a87.61,87.61,0,0,0-7.13,11.18C62.9,481,62,493,62,494L40.41,493c0-1.42,1.18-20.47,14.63-42.51A111,111,0,0,1,64.64,437a116.22,116.22,0,0,1,9.47-10.16c.66-.64,1.35-1.28,2.06-1.89,2.35-2.15,4.87-4.28,7.52-6.36.68-.53,1.37-1.08,2.08-1.58,3.13-2.38,6.49-4.69,10.11-6.93a163.69,163.69,0,0,1,24.58-12.41l1.94,4.78Z"/><path class="cls-1" d="M63.22,495.37l-24.14-1.2,0-1.26c0-.2.8-20.15,14.82-43.14a112.93,112.93,0,0,1,9.71-13.6,120.83,120.83,0,0,1,9.57-10.26c.67-.65,1.38-1.31,2.1-1.94,2.35-2.14,4.91-4.3,7.57-6.39l.45-.35c.56-.43,1.12-.87,1.69-1.27,3.12-2.37,6.55-4.73,10.17-7A166.87,166.87,0,0,1,120,396.47l1.19-.48,9.14,22.39-1.19.49c-2,.84-4,1.67-5.94,2.56a126.15,126.15,0,0,0-23.88,14.12,110.19,110.19,0,0,0-9.79,8.34l-.34.34c-1.4,1.36-2.79,2.8-4.27,4.42-.65.72-1.28,1.44-1.89,2.17-1.2,1.4-2.44,2.94-3.77,4.72a87.08,87.08,0,0,0-7,11c-8.28,15.27-8.92,27.41-8.92,27.53Zm-21.44-3.64,19,.94c.38-3.61,2-14.3,9.12-27.34A90.05,90.05,0,0,1,77.17,454c1.37-1.82,2.63-3.4,3.87-4.84.62-.74,1.27-1.49,1.95-2.23,1.51-1.66,2.94-3.15,4.37-4.54a2.93,2.93,0,0,1,.43-.41,107.61,107.61,0,0,1,9.94-8.47,129.33,129.33,0,0,1,24.36-14.41c1.58-.73,3.19-1.43,4.85-2.11l-7.19-17.63a163.84,163.84,0,0,0-23.2,11.83c-3.54,2.2-6.9,4.5-10,6.86-.58.41-1.1.81-1.62,1.22l-.45.35c-2.61,2.05-5.12,4.16-7.45,6.29-.71.62-1.38,1.25-2,1.87a115.75,115.75,0,0,0-9.36,10.05,110.57,110.57,0,0,0-9.5,13.29C44.47,470.24,42.2,487.08,41.78,491.73Z"/><path class="cls-2" d="M125.34,418.54a129,129,0,0,0-22.62,13.15A1.07,1.07,0,0,1,101,431c-.8-7.15-1.63-14.84-2.35-21.91a1.08,1.08,0,0,1,.51-1,165.16,165.16,0,0,1,24-12.06l1.94,4.78Z"/><path class="cls-2" d="M102.07,434.48a3.75,3.75,0,0,1-1.47-.3,3.63,3.63,0,0,1-2.15-2.94c-.8-7.15-1.63-14.86-2.35-21.93a3.63,3.63,0,0,1,1.73-3.5,166.59,166.59,0,0,1,24.37-12.24l2.39-1,3.09,7.61.26,20-1.53.7a126.52,126.52,0,0,0-22.17,12.88A3.66,3.66,0,0,1,102.07,434.48Zm-.75-24.76c.61,6,1.29,12.32,2,18.4a131.48,131.48,0,0,1,19.46-11.21l-.21-15.66-.78-1.92A161,161,0,0,0,101.32,409.72Z"/><path class="cls-2" d="M77.88,455.19a89.44,89.44,0,0,0-6.81,10.75l-16-15.5a111.88,111.88,0,0,1,9-12.73.73.73,0,0,1,1.14,0c3.85,5,8.75,11.44,12.7,16.64A.69.69,0,0,1,77.88,455.19Z"/><path class="cls-2" d="M71.73,470.17l-20-19.31,1.07-1.76a116.16,116.16,0,0,1,9.22-13,3.32,3.32,0,0,1,2.57-1.21,3.26,3.26,0,0,1,2.61,1.28c3.84,5,8.75,11.45,12.7,16.65a3.3,3.3,0,0,1,0,3.94,85.81,85.81,0,0,0-6.61,10.43ZM58.33,450l12.13,11.73q2.08-3.57,4.53-7l-10.4-13.63A108,108,0,0,0,58.33,450Z"/><path class="cls-2" d="M90.39,439.93a1.94,1.94,0,0,1-.55,1.76c-.43.42-.85.84-1.24,1.27a2.77,2.77,0,0,0-.34.35c-1.27,1.29-3.4,3.52-4.1,4.24a.2.2,0,0,1-.33-.07l-7.24-21.29a2,2,0,0,1,.55-2.12c1.89-1.69,6.94-5.77,8.34-6.84a.22.22,0,0,1,.36.15C87.39,425.06,89.1,433.51,90.39,439.93Z"/><path class="cls-2" d="M85,450.38l-1.6-.26a2.78,2.78,0,0,1-2-1.82L74.15,427a4.56,4.56,0,0,1,1.27-4.87c2-1.74,7.08-5.88,8.49-7l1.13-.87,1.55.46a2.82,2.82,0,0,1,1.78,2.08l4.55,22.56a4.49,4.49,0,0,1-1.28,4.1c-.38.38-.76.77-1.11,1.16l-.29.28c-1.41,1.44-3.52,3.65-4.21,4.37Zm-5.88-24.65L85,443c.5-.53,1-1,1.4-1.45a2.92,2.92,0,0,1,.38-.39c.32-.34.65-.69,1-1l-3.72-18.45C82.33,423.05,80.32,424.71,79.15,425.73Z"/><path class="cls-3" d="M32.58,468.65c5.79-15.6,18.5-39.56,21.44-38.85,2.36.57,6.3,6.11,8.11,7.85l23.39,22.63a11.3,11.3,0,0,1,.57,15.66C75.75,487.41,68.83,501.87,63,516.49a11.32,11.32,0,0,1-10.36,7.14L28.08,524a6.47,6.47,0,0,1-6.46-7.65C24,503.51,29,478.4,32.58,468.65Z"/><path class="cls-3" d="M28,525.25a7.75,7.75,0,0,1-7.64-9.18c2-11,7.23-37.65,11-47.87,4-10.66,18.11-40.82,23-39.65,1.93.47,4.11,2.89,6.76,6,.77.9,1.44,1.69,1.94,2.18l23.39,22.63a12.51,12.51,0,0,1,.64,17.44c-10.8,12-17.61,27-22.85,40.17a12.58,12.58,0,0,1-11.54,7.95l-24.56.33Zm5.8-56.16c-3.73,10-8.87,36.53-10.91,47.46A5.18,5.18,0,0,0,24,520.83a5.12,5.12,0,0,0,4,1.84l24.56-.33A10,10,0,0,0,61.8,516c5.33-13.36,12.27-28.67,23.33-40.93a10,10,0,0,0-.51-13.87L61.23,438.58c-.55-.53-1.28-1.39-2.11-2.36-1.48-1.73-3.9-4.58-5.22-5.11-2.95,1.57-14.23,22.14-20.11,38Z"/><path class="cls-4" d="M2.32,564.35l23.25-20.56,5.36,6.57L6.16,569.05a3,3,0,0,1-3.84-4.7Z"/><path class="cls-4" d="M4.33,571a4.33,4.33,0,0,1-2.86-7.57l24.25-21.45,7.06,8.64L6.94,570.08A4.34,4.34,0,0,1,4.33,571Zm-1.16-5.65A1.75,1.75,0,0,0,5.39,568l23.7-17.88-3.67-4.49L3.17,565.32Z"/><path class="cls-4" d="M6.4,593.08l21.25-41.26,7.42,4.08L11.66,596a3,3,0,0,1-5.26-2.88Z"/><path class="cls-4" d="M9.07,598.74a4.29,4.29,0,0,1-3.81-6.25l21.85-42.44,9.74,5.36-24.08,41.2A4.27,4.27,0,0,1,9.07,598.74Zm19.11-45.16L7.55,593.67a1.71,1.71,0,0,0,3,1.64l22.74-38.92Z"/><path class="cls-4" d="M30.07,603.21l3.29-46.94,8.43.82L36,603.78a3,3,0,0,1-6-.57Z"/><path class="cls-4" d="M33.07,607.71l-.42,0a4.28,4.28,0,0,1-3.87-4.57l3.38-48.25,11.07,1.06-5.91,48A4.26,4.26,0,0,1,33.07,607.71Zm-1.72-4.41a1.71,1.71,0,0,0,3.41.33l5.59-45.39-5.8-.56Z"/><path class="cls-4" d="M54.64,595.67,40.1,559.85l7.95-2.94L60.3,593.58a3,3,0,0,1-5.66,2.09Z"/><path class="cls-4" d="M57.42,598.84a4.27,4.27,0,0,1-4-2.69l-15.05-37,10.45-3.86,12.67,37.93a4.29,4.29,0,0,1-2.59,5.4A4.23,4.23,0,0,1,57.42,598.84ZM41.79,560.59l14.05,34.6a1.72,1.72,0,0,0,3.23-1.2L47.25,558.58Z"/><path class="cls-4" d="M66.29,561,45.07,550.19l4.22-7.36,20.05,12.85a3.07,3.07,0,0,1-3,5.32Z"/><path class="cls-4" d="M67.68,562.62a4.36,4.36,0,0,1-2-.47L43.28,550.72l5.56-9.7L70,554.59a4.36,4.36,0,0,1-2.35,8Zm-20.82-13,20,10.19a1.78,1.78,0,0,0,1.77-3.09L49.73,544.65Z"/><path class="cls-4" d="M57.15,551.56c0,10.91-9.89,20.26-20.47,20.26s-20.46-10.37-20.46-21.28,11.36-24,21.94-24S57.15,540.65,57.15,551.56Z"/><path class="cls-4" d="M36.68,573.1c-11.18,0-21.75-11-21.75-22.56,0-12,12.16-25.25,23.23-25.25,11.23,0,20.28,14.37,20.28,26.27C58.44,563,48.27,573.1,36.68,573.1Zm1.48-45.24c-9.65,0-20.65,12.08-20.65,22.68,0,10.28,9.32,20,19.17,20,10,0,19.18-9,19.18-19C55.86,540.89,47.69,527.86,38.16,527.86Z"/><path class="cls-1" d="M487.85,401.51c2.23,0,4.39.05,6.53,0a127.65,127.65,0,0,0,27.8-3.55,109.07,109.07,0,0,0,12.43-3.83,3.28,3.28,0,0,0,.45-.17c2-.76,3.91-1.58,5.74-2.41.9-.41,1.78-.83,2.63-1.25,1.9-.93,3.69-1.9,5.4-2.88a87.38,87.38,0,0,0,11-7.44c13.45-10.58,19-21.28,19.46-22.19l19.39,9.53c-.6,1.29-9.2,18.32-30.27,33.24a111.15,111.15,0,0,1-14.14,8.54,117.61,117.61,0,0,1-12.71,5.58c-.87.32-1.75.64-2.64.92q-4.53,1.57-9.43,2.86c-.84.21-1.68.45-2.53.63-3.82.94-7.82,1.73-12,2.36a164.94,164.94,0,0,1-27.48,1.67l.1-5.16Z"/><path class="cls-1" d="M491.09,424.44c-1.23,0-2.46,0-3.69,0l-1.29,0,.48-24.18,1.28,0c2.21,0,4.35,0,6.48,0a126.62,126.62,0,0,0,27.52-3.51,110.16,110.16,0,0,0,12.29-3.78l.44-.18c1.84-.7,3.7-1.48,5.67-2.37.88-.4,1.75-.82,2.59-1.24,1.67-.81,3.41-1.74,5.33-2.84A86.6,86.6,0,0,0,559,379c13.65-10.74,19-21.64,19.1-21.75l.56-1.16,21.7,10.67-.54,1.14c-.09.18-8.74,18.2-30.69,33.74a113.82,113.82,0,0,1-14.31,8.64A116.28,116.28,0,0,1,542,415.88c-.87.34-1.78.66-2.69.95-3,1-6.21,2-9.49,2.88l-.65.16c-.65.17-1.3.34-1.95.48-3.83.95-7.92,1.75-12.1,2.37A164.57,164.57,0,0,1,491.09,424.44Zm-2.35-2.59a161.7,161.7,0,0,0,26-1.68c4.1-.61,8.1-1.4,11.91-2.33.65-.15,1.27-.3,1.88-.46l.65-.17c3.2-.84,6.34-1.79,9.32-2.82.89-.29,1.76-.6,2.6-.92A116,116,0,0,0,553.66,408a111.13,111.13,0,0,0,14-8.45c18.27-12.94,27-27.51,29.26-31.61l-17.09-8.41c-1.78,3.17-7.55,12.33-19.21,21.5a90.28,90.28,0,0,1-11.14,7.55c-2,1.12-3.76,2.08-5.47,2.91-.86.43-1.75.86-2.67,1.27-2,.92-3.92,1.72-5.81,2.44a3.58,3.58,0,0,1-.55.21,109.43,109.43,0,0,1-12.49,3.84,129.06,129.06,0,0,1-28.08,3.59c-1.73,0-3.49,0-5.29,0Z"/><path class="cls-2" d="M491.2,402a128,128,0,0,0,26-3.12,1.08,1.08,0,0,1,1.28,1.36c-2.09,6.88-4.38,14.27-6.52,21.05a1.07,1.07,0,0,1-.88.75,165.33,165.33,0,0,1-26.81,1.56l.11-5.15Z"/><path class="cls-2" d="M487.9,426.23c-1.23,0-2.46,0-3.7,0l-2.58-.05.18-8.22,7.67-18.45,1.68,0a126.3,126.3,0,0,0,25.46-3.05,3.64,3.64,0,0,1,4.31,4.62c-2.09,6.89-4.38,14.29-6.52,21.07a3.62,3.62,0,0,1-3,2.52A165.34,165.34,0,0,1,487.9,426.23Zm-1-5.16a156.2,156.2,0,0,0,22.89-1.45c1.8-5.71,3.69-11.82,5.48-17.67a132.92,132.92,0,0,1-22.31,2.59l-6,14.46Z"/><path class="cls-2" d="M549.3,387.15A87.4,87.4,0,0,0,559.81,380l8.58,20.58a111.1,111.1,0,0,1-13.32,8.12.72.72,0,0,1-1-.45c-1.54-6.14-3.5-14-5.07-20.3A.71.71,0,0,1,549.3,387.15Z"/><path class="cls-2" d="M554.73,411.34a3.28,3.28,0,0,1-3.2-2.48c-1.54-6.15-3.51-14-5.07-20.31a3.31,3.31,0,0,1,1.54-3.63,84.92,84.92,0,0,0,10.21-7l2.67-2.12,10.68,25.63-1.68,1.19A115.31,115.31,0,0,1,556.26,411,3.35,3.35,0,0,1,554.73,411.34Zm-2.93-22.67c1.3,5.27,2.83,11.37,4.15,16.63,3.15-1.72,6.26-3.62,9.26-5.67l-6.49-15.58C556.5,385.68,554.18,387.23,551.8,388.67Z"/><path class="cls-2" d="M531.77,396.21a1.94,1.94,0,0,1,1.2-1.39c.56-.22,1.11-.44,1.64-.69a3.28,3.28,0,0,0,.45-.17c1.68-.69,4.52-1.89,5.44-2.28a.2.2,0,0,1,.28.2L539,414.3a2,2,0,0,1-1.34,1.72c-2.41.81-8.66,2.55-10.37,3a.23.23,0,0,1-.28-.28C528.64,411.06,530.41,402.62,531.77,396.21Z"/><path class="cls-2" d="M526.53,421.85l-1.25-1.06a2.79,2.79,0,0,1-.78-2.62l4.75-22.5a4.49,4.49,0,0,1,2.79-3.25q.76-.3,1.5-.63l.34-.13c1.73-.71,4.21-1.76,5.33-2.23l1.63-.69,1.37.87a2.78,2.78,0,0,1,1.13,2.48l-1.77,22.41a4.56,4.56,0,0,1-3.1,4c-2.46.83-8.82,2.59-10.55,3Zm7.68-24.75-3.89,18.41c2.16-.61,4.67-1.33,6.14-1.81l1.44-18.13c-.68.28-1.33.56-1.87.77a3,3,0,0,1-.5.21C535.1,396.74,534.66,396.92,534.21,397.1Z"/><path class="cls-3" d="M596.23,392.73c-11.5,12-32.66,29-35.07,27.19-1.94-1.47-3.37-8.11-4.34-10.42L544.3,379.45a11.28,11.28,0,0,1,5.68-14.6c14-6.43,26.11-17,37.26-28.1a11.32,11.32,0,0,1,12.34-2.45l22.68,9.42a6.47,6.47,0,0,1,2.9,9.59C617.9,364.12,603.41,385.22,596.23,392.73Z"/><path class="cls-3" d="M561.41,421.23a1.67,1.67,0,0,1-1-.29c-1.58-1.19-2.63-4.27-3.83-8.17-.34-1.13-.65-2.13-.92-2.78l-12.52-30a12.52,12.52,0,0,1,6.33-16.27c14.64-6.71,26.87-17.84,36.89-27.84a12.58,12.58,0,0,1,13.74-2.73l22.68,9.42a7.76,7.76,0,0,1,3.48,11.5c-6.24,9.29-21.56,31.74-29.07,39.59C589.8,401.32,567.56,421.23,561.41,421.23Zm33.83-86.51a10,10,0,0,0-7.09,2.95C578,347.82,565.53,359.14,550.51,366a10,10,0,0,0-5,12.94L558,409c.29.7.63,1.79,1,3,.66,2.17,1.76,5.74,2.77,6.75,3.32-.27,21.82-14.69,33.51-26.92,7.37-7.71,22.59-30,28.79-39.25a5.19,5.19,0,0,0,.67-4.38,5.27,5.27,0,0,0-3-3.3l-22.69-9.42A10,10,0,0,0,595.24,334.72Z"/><path class="cls-4" d="M661.91,316.84l-29.49,9.66-2.33-8.15L660.24,311a3,3,0,0,1,1.67,5.84Z"/><path class="cls-4" d="M631.55,328.14l-3.07-10.72,31.46-7.67a4.32,4.32,0,0,1,2.37,8.31Zm.15-8.85,1.59,5.57,28.22-9.25a1.75,1.75,0,0,0,1.14-2.14,1.77,1.77,0,0,0-2.1-1.22Z"/><path class="cls-4" d="M669.53,288.84l-35.84,29.48-5.21-6.69,37.37-27.52a3,3,0,0,1,3.68,4.73Z"/><path class="cls-4" d="M633.48,320.15l-6.83-8.77,38.43-28.31a4.29,4.29,0,0,1,5.27,6.77Zm-3.17-8.27,3.58,4.6,34.82-28.63a1.71,1.71,0,0,0-2.1-2.7Z"/><path class="cls-4" d="M651.81,270.17,630.21,312l-7.42-4.09,23.77-40.6a3,3,0,0,1,5.25,2.9Z"/><path class="cls-4" d="M630.74,313.73,621,308.36l24.44-41.74a4.29,4.29,0,0,1,7.51,4.14Zm-6.17-6.35,5.1,2.81,21-40.61a1.71,1.71,0,0,0-3-1.65Z"/><path class="cls-4" d="M626.26,267.36,625.43,306l-8.46-.45L620.24,267a3,3,0,0,1,6,.32Z"/><path class="cls-4" d="M626.69,307.37l-11.12-.59L619,266.93a4.3,4.3,0,0,1,8.59.46Zm-8.32-3,5.8.31.81-37.33a1.73,1.73,0,0,0-3.45-.18Z"/><path class="cls-4" d="M601.84,294.58,617,312.91,610.26,318l-13.33-19.74a3.07,3.07,0,0,1,4.91-3.68Z"/><path class="cls-4" d="M610,319.84,595.86,299a4.36,4.36,0,0,1,7-5.22l16.06,19.37Zm-10.47-25.08a1.79,1.79,0,0,0-1.48,2.78l12.57,18.61,4.62-3.46-14.34-17.28A1.78,1.78,0,0,0,599.48,294.76Z"/><path class="cls-4" d="M606.49,306.87c4.32-10,17.1-14.69,26.82-10.5S648,314,643.68,324,623.75,341.52,614,337.34,602.17,316.89,606.49,306.87Z"/><path class="cls-4" d="M620.26,339.82a16.9,16.9,0,0,1-6.73-1.3c-10.32-4.45-12.93-21.23-8.22-32.16,4.55-10.54,17.86-15.75,28.51-11.17,10.26,4.43,15.63,18.68,11,29.33-2.18,5.05-7.2,9.78-13.44,12.65A27,27,0,0,1,620.26,339.82Zm5.45-43.69c-7.49,0-15.06,4.36-18,11.25-4.23,9.8-1.88,25,6.87,28.77,4.17,1.8,10.08,1.31,15.79-1.32s10.22-6.85,12.15-11.33c4.07-9.43-.64-22-9.69-25.95A18,18,0,0,0,625.71,296.13Z"/><path class="cls-5" d="M170.94,382.69V435a20.65,20.65,0,0,1-20.67,20.65H131.66a24.54,24.54,0,0,1-24.47-24.47V386.49A24.55,24.55,0,0,1,131.66,362h18.61A20.66,20.66,0,0,1,170.94,382.69Z"/><path class="cls-5" d="M150.27,456.89H131.66a25.78,25.78,0,0,1-25.75-25.75V386.49a25.79,25.79,0,0,1,25.75-25.76h18.61a22,22,0,0,1,22,22V435A22,22,0,0,1,150.27,456.89Zm-18.61-93.58a23.21,23.21,0,0,0-23.18,23.18v44.65a23.21,23.21,0,0,0,23.18,23.18h18.61A19.39,19.39,0,0,0,169.65,435V382.69a19.4,19.4,0,0,0-19.38-19.38Z"/><path class="cls-5" d="M506.16,386.49v44.65a24.54,24.54,0,0,1-24.46,24.47H463.08A20.66,20.66,0,0,1,442.41,435V382.69A20.68,20.68,0,0,1,463.08,362H481.7A24.55,24.55,0,0,1,506.16,386.49Z"/><path class="cls-5" d="M481.7,456.89H463.08A22,22,0,0,1,441.13,435V382.69a22,22,0,0,1,21.95-22H481.7a25.79,25.79,0,0,1,25.75,25.76v44.65A25.78,25.78,0,0,1,481.7,456.89Zm-18.62-93.58a19.41,19.41,0,0,0-19.38,19.38V435a19.4,19.4,0,0,0,19.38,19.36H481.7a23.2,23.2,0,0,0,23.17-23.18V386.49a23.2,23.2,0,0,0-23.17-23.18Z"/><path class="cls-3" d="M470.7,430.18l-22.94,51.47-44.51,99.9c-16.69,37.45-53.55,62.28-94.57,62.58h-1.92c-41-.3-77.88-25.13-94.57-62.58l-44.52-99.9-22.93-51.47c-26.32-45.57,6.58-102.5,59.17-102.5H411.52C464.11,327.68,497,384.61,470.7,430.18Z"/><path class="cls-3" d="M308.69,645.42h-1.93c-41.15-.3-78.73-25.17-95.75-63.35L143.56,430.71a69.61,69.61,0,0,1,60.35-104.32H411.53a69.63,69.63,0,0,1,60.32,104.38l-67.42,151.3C387.41,620.25,349.83,645.12,308.69,645.42ZM203.91,329a67.05,67.05,0,0,0-58.06,100.57L213.37,581c16.6,37.26,53.26,61.53,93.4,61.82h1.91c40.12-.29,76.78-24.56,93.39-61.82l67.51-151.48A67,67,0,0,0,411.53,329Z"/><path class="cls-5" d="M467.58,436.06l-21.24,48.63a4.48,4.48,0,0,1-4.09,2.68H361.86a4.47,4.47,0,0,1-4.47-4.47V426.49a4.47,4.47,0,0,0-4.47-4.47H255.84a4.47,4.47,0,0,0-4.47,4.47V482.9a4.47,4.47,0,0,1-4.47,4.47H173.57a4.47,4.47,0,0,1-4.09-2.68l-21.24-48.63a3.18,3.18,0,0,0-.16-.32c-25.63-45.54,6.6-102.34,58.09-102.34H409.65c51.48,0,83.72,56.8,58.09,102.34A1.91,1.91,0,0,0,467.58,436.06Z"/><path class="cls-5" d="M442.25,488.65H361.86a5.76,5.76,0,0,1-5.76-5.75V426.49a3.18,3.18,0,0,0-3.18-3.18H255.84a3.18,3.18,0,0,0-3.18,3.18V482.9a5.77,5.77,0,0,1-5.76,5.75H173.57a5.73,5.73,0,0,1-5.27-3.45l-21.24-48.62a70.12,70.12,0,0,1,.48-70.52c12.43-21.26,34.35-33.95,58.63-33.95H409.65c24.28,0,46.2,12.69,58.62,33.95a70,70,0,0,1,.59,70.31l-.1.21L447.52,485.2A5.74,5.74,0,0,1,442.25,488.65ZM255.84,420.73h97.08a5.77,5.77,0,0,1,5.76,5.76V482.9a3.18,3.18,0,0,0,3.18,3.18h80.39a3.18,3.18,0,0,0,2.91-1.91l21.24-48.62a4.66,4.66,0,0,1,.22-.45,67.41,67.41,0,0,0-.57-67.74c-12-20.46-33.05-32.68-56.4-32.68H206.17c-23.36,0-44.44,12.22-56.4,32.68a67.43,67.43,0,0,0-.57,67.75,3.61,3.61,0,0,1,.22.44l21.24,48.62a3.16,3.16,0,0,0,2.91,1.91H246.9a3.19,3.19,0,0,0,3.18-3.18V426.49A5.76,5.76,0,0,1,255.84,420.73Z"/><path class="cls-6" d="M170.94,382.69V435a20.65,20.65,0,0,1-20.67,20.65h-1.74l-10.65-23.9A67.64,67.64,0,0,1,138.7,362h11.57A20.66,20.66,0,0,1,170.94,382.69Z"/><path class="cls-6" d="M150.27,456.89H147.7l-11-24.65a68.54,68.54,0,0,1,.9-70.89l.38-.62h12.29a22,22,0,0,1,22,22V435A22,22,0,0,1,150.27,456.89Zm-.9-2.57h.9A19.39,19.39,0,0,0,169.65,435V382.69a19.4,19.4,0,0,0-19.38-19.38H139.43a66.07,66.07,0,0,0-.44,67.76Z"/><path class="cls-6" d="M477.17,430.94l-11,24.67h-1.94A20.66,20.66,0,0,1,443.56,435V382.69A20.68,20.68,0,0,1,464.23,362h12.6A67.7,67.7,0,0,1,477.17,430.94Z"/><path class="cls-6" d="M467,456.89h-2.78a22,22,0,0,1-22-21.93V382.69a22,22,0,0,1,22-22h13.33l.38.64a68.78,68.78,0,0,1,.38,70.15Zm-2.78-93.58a19.4,19.4,0,0,0-19.38,19.38V435a19.39,19.39,0,0,0,19.38,19.36h1.11l10.71-24a66.24,66.24,0,0,0,0-67Z"/><path class="cls-7" d="M470.7,430.18l-22.94,51.47H364.33a1.46,1.46,0,0,1-1.46-1.46V420.51a4.22,4.22,0,0,0-4.21-4.21H249.57a4.21,4.21,0,0,0-4.2,4.21v59.68a1.46,1.46,0,0,1-1.46,1.46H167.67l-22.93-51.47c-26.32-45.57,6.58-102.5,59.17-102.5H411.52C464.11,327.68,497,384.61,470.7,430.18Z"/><path class="cls-7" d="M448.6,482.94H364.32a2.75,2.75,0,0,1-2.74-2.75V420.51a2.92,2.92,0,0,0-2.92-2.92H249.57a2.92,2.92,0,0,0-2.92,2.92v59.68a2.75,2.75,0,0,1-2.74,2.75H166.84l-23.28-52.23a69.61,69.61,0,0,1,60.35-104.32H411.53a69.63,69.63,0,0,1,60.32,104.38Zm-280.09-2.58h75.4l.17-59.85a5.49,5.49,0,0,1,5.49-5.49H358.66a5.5,5.5,0,0,1,5.5,5.49v59.68l82.77.17,22.65-50.82A67,67,0,0,0,411.53,329H203.91a67.05,67.05,0,0,0-58.06,100.57Z"/><path class="cls-5" d="M350.59,511.15a6.5,6.5,0,0,1-6.49,6.5H265.22a4.78,4.78,0,0,1-4.87-4.61s.87-73.26.87-73.26a9.33,9.33,0,0,1,9-9.21l75.89-2.82a4.34,4.34,0,0,1,4.5,4.34Z"/><path class="cls-5" d="M344.1,518.94H265.22a6,6,0,0,1-6.16-5.9l.87-73.27a10.62,10.62,0,0,1,10.23-10.49L346,426.47a5.62,5.62,0,0,1,5.84,5.62v79.07A7.79,7.79,0,0,1,344.1,518.94Zm2.15-89.9-76,2.82a8,8,0,0,0-7.75,7.94l-.86,73.2a3.51,3.51,0,0,0,3.58,3.36H344.1a5.2,5.2,0,0,0,5.2-5.2V432.09a3.05,3.05,0,0,0-3.05-3Z"/><rect class="cls-3" x="260.46" y="427.75" width="87.65" height="86.75" rx="1.19"/><path class="cls-5" d="M344.43,515.79H264.14a5,5,0,0,1-5-5V431.43a5,5,0,0,1,5-5h80.29a5,5,0,0,1,5,5v79.39A5,5,0,0,1,344.43,515.79ZM264.14,429a2.4,2.4,0,0,0-2.39,2.39v79.39a2.4,2.4,0,0,0,2.39,2.4h80.29a2.4,2.4,0,0,0,2.39-2.4V431.43a2.39,2.39,0,0,0-2.39-2.39Z"/><path class="cls-4" d="M131.89,58.78a178.52,178.52,0,0,0-4,20.35c-1,6.85-1.64,13.74-1.95,20.63a207.38,207.38,0,0,0,2,41l-9.16,1a214,214,0,0,1,1.4-42.58c.9-7,2.16-14,3.73-20.84a179,179,0,0,1,5.8-20.34Z"/><path class="cls-4" d="M117.59,143.26l-.08-1.36a214.73,214.73,0,0,1-.35-21.52,206.64,206.64,0,0,1,1.76-21.31c.87-6.79,2.13-13.85,3.76-21a178.76,178.76,0,0,1,5.83-20.49l.42-1.19,4.52,1.51-.31,1.17a174.15,174.15,0,0,0-4,20.2c-1,7-1.65,13.89-1.94,20.51a197.15,197.15,0,0,0,0,20.49,202.55,202.55,0,0,0,2,20.29l.19,1.31ZM129.8,61.8c-1.67,5.07-3.15,10.52-4.61,16.88-1.6,7-2.85,14-3.71,20.72a204.68,204.68,0,0,0-1.75,21.07c-.31,6.93,0,13.88.28,19.92l6.49-.74a193,193,0,0,1-1.86-19.22,201.79,201.79,0,0,1,0-20.73c.29-6.7.95-13.68,2-20.75C127.51,72.62,128.57,67,129.8,61.8Z"/><path class="cls-4" d="M143.39,53.85a9.15,9.15,0,1,1-9.15-9.15A9.15,9.15,0,0,1,143.39,53.85Z"/><path class="cls-4" d="M134.24,64.28a10.44,10.44,0,1,1,10.43-10.44A10.45,10.45,0,0,1,134.24,64.28Zm0-18.29a7.86,7.86,0,1,0,7.86,7.85A7.87,7.87,0,0,0,134.24,46Z"/><path class="cls-8" d="M120.57,96.65c1.77.25,3.65.45,5.5.63,0-.38,0-.76.07-1.14-1.77-.18-3.62-.38-5.41-.63C120.67,95.89,120.62,96.27,120.57,96.65Z"/><path class="cls-8" d="M127.28,98.69,126,98.56c-1.88-.18-3.77-.39-5.56-.63l-1.28-.18.53-3.68,1.26.17c1.78.24,3.62.44,5.37.62l1.23.12Z"/><path class="cls-8" d="M126.12,123.72c0-.41-.05-.83-.07-1.24-2.58,1.28-5.15,2.56-7.74,3.82,0,.42,0,.84,0,1.26C120.93,126.29,123.52,125,126.12,123.72Z"/><path class="cls-8" d="M117,129.61l0-3.32v-.8l.72-.35q3.87-1.89,7.72-3.81l1.77-.88.22,4-.77.38c-2.6,1.29-5.2,2.58-7.81,3.85Z"/><path class="cls-8" d="M123.08,82.34c1.44.15,2.89.27,4.33.38l.15-1.11c-1.42-.11-2.83-.25-4.24-.4Z"/><path class="cls-8" d="M128.53,84.1,127.31,84c-1.45-.11-2.91-.24-4.36-.39l-1.42-.14.78-3.66,1.81.18c1.17.12,2.35.24,3.54.33l1.35.1Z"/><path class="cls-8" d="M125.83,102.48c0-.42,0-.84,0-1.26-2.09.81-4.15,1.67-6.22,2.52,0,.43-.1.85-.14,1.28C121.61,104.14,123.72,103.31,125.83,102.48Z"/><path class="cls-8" d="M118,107l.45-4.2.71-.29c2.07-.86,4.15-1.72,6.24-2.53l1.83-.72-.15,4.07-.79.31c-2.11.82-4.2,1.66-6.29,2.53Z"/><path class="cls-8" d="M127,66.61l2.92.79.24-1.12-2.83-.76Z"/><polygon class="cls-8" points="130.9 69 125.38 67.51 126.43 63.95 131.65 65.36 130.9 69"/><path class="cls-8" d="M124.6,75.6c-.1.45-.21.89-.32,1.33l4.17-1.49c.07-.43.13-.86.2-1.29Z"/><polygon class="cls-8" points="122.48 78.95 123.51 74.63 130.28 72.2 129.6 76.4 122.48 78.95"/><path class="cls-8" d="M118.72,114.49c0,.38,0,.76-.07,1.14l2.21.11,4.89.26,0-1.15-4.8-.25Z"/><path class="cls-8" d="M127.08,117.36l-1.4-.08L121,117l-3.74-.19.22-3.71,9.46.49Z"/><path class="cls-8" d="M121.8,88.86c-.08.43-.14.87-.22,1.3l5.2-1.91c0-.42.09-.85.14-1.27Z"/><polygon class="cls-8" points="119.93 92.14 120.67 87.9 128.42 85.06 127.98 89.18 119.93 92.14"/><path class="cls-4" d="M487.63,58.78a178.52,178.52,0,0,1,4,20.35c1,6.85,1.65,13.74,1.95,20.63a207.38,207.38,0,0,1-2,41l9.16,1a214,214,0,0,0-1.4-42.58c-.9-7-2.16-14-3.73-20.84a181,181,0,0,0-5.79-20.34Z"/><path class="cls-4" d="M501.93,143.26l-11.83-1.35.19-1.31a205.77,205.77,0,0,0,2-40.78c-.3-6.63-.95-13.53-1.95-20.51a174.58,174.58,0,0,0-4-20.2l-.31-1.17,4.52-1.5.42,1.18a178.76,178.76,0,0,1,5.83,20.49c1.62,7.09,2.88,14.14,3.76,21a207.41,207.41,0,0,1,1.77,21.32c.33,7.49,0,15.07-.36,21.5ZM493,139.65l6.49.74c.33-6.06.59-13,.28-19.9A205.09,205.09,0,0,0,498,99.41c-.86-6.75-2.11-13.72-3.71-20.73-1.45-6.36-2.95-11.82-4.62-16.9C491,67,492,72.61,492.91,79c1,7.06,1.67,14,2,20.75a199.26,199.26,0,0,1,0,20.75C494.63,127.06,493.86,133.56,493,139.65Z"/><path class="cls-4" d="M476.14,53.85a9.15,9.15,0,1,0,9.14-9.15A9.14,9.14,0,0,0,476.14,53.85Z"/><path class="cls-4" d="M485.28,64.28a10.44,10.44,0,1,1,10.43-10.44A10.45,10.45,0,0,1,485.28,64.28Zm0-18.29a7.86,7.86,0,1,0,7.86,7.85A7.87,7.87,0,0,0,485.28,46Z"/><path class="cls-8" d="M499,96.65c-1.77.25-3.65.45-5.5.63,0-.38,0-.76-.07-1.14,1.77-.18,3.62-.38,5.41-.63C498.85,95.89,498.9,96.27,499,96.65Z"/><path class="cls-8" d="M492.23,98.69,492,95l1.24-.12c1.75-.18,3.59-.38,5.37-.62l1.26-.17.54,3.68-1.29.18c-1.8.24-3.68.45-5.56.63Z"/><path class="cls-8" d="M493.4,123.72c0-.41.05-.83.08-1.24,2.57,1.28,5.14,2.56,7.73,3.82,0,.42,0,.84,0,1.26C498.59,126.29,496,125,493.4,123.72Z"/><path class="cls-8" d="M502.49,129.62l-1.85-.9c-2.61-1.27-5.21-2.56-7.81-3.85l-.76-.38.22-4,1.76.87c2.57,1.28,5.14,2.55,7.73,3.81l.72.35Z"/><path class="cls-8" d="M496.44,82.34c-1.44.15-2.89.27-4.33.38L492,81.61c1.42-.11,2.83-.25,4.24-.4Z"/><path class="cls-8" d="M491,84.1l-.48-3.67,1.35-.1c1.18-.09,2.35-.21,3.53-.33l1.82-.18.78,3.66-1.42.14c-1.45.15-2.91.28-4.36.39Z"/><path class="cls-8" d="M493.69,102.48c0-.42,0-.84,0-1.26,2.08.81,4.14,1.67,6.21,2.52.05.43.1.85.14,1.28C497.91,104.14,495.8,103.31,493.69,102.48Z"/><path class="cls-8" d="M501.52,107l-2-.83c-2.08-.87-4.19-1.71-6.29-2.53l-.79-.31-.15-4.07,1.83.72c2.1.81,4.17,1.67,6.24,2.53l.7.29Z"/><path class="cls-8" d="M492.54,66.61l-2.92.79-.24-1.12,2.83-.76Z"/><polygon class="cls-8" points="488.63 69 487.87 65.36 493.08 63.95 494.14 67.51 488.63 69"/><path class="cls-8" d="M494.92,75.6c.1.45.21.89.32,1.33l-4.17-1.49c-.07-.43-.13-.86-.2-1.29Z"/><polygon class="cls-8" points="497.02 78.94 489.92 76.4 489.24 72.2 496.01 74.63 497.02 78.94"/><path class="cls-8" d="M500.8,114.49c0,.38.05.76.07,1.14l-2.21.11-4.89.26,0-1.15,4.8-.25Z"/><path class="cls-8" d="M492.45,117.36l.09-3.73,9.47-.49.21,3.71-3.79.19-4.59.24Z"/><path class="cls-8" d="M497.72,88.86c.08.43.14.87.22,1.3l-5.2-1.91c0-.42-.09-.85-.14-1.27Z"/><polygon class="cls-8" points="499.59 92.14 491.54 89.18 491.1 85.06 498.86 87.9 499.59 92.14"/><path class="cls-5" d="M164.54,166.07v40.4a31,31,0,0,1-19.37,28.77,30.58,30.58,0,0,1-11.68,2.28c-17.17,0-36.79-14.47-36.79-31.62V165.5c0-16.21,17.56-29,34-30.34.93-.09,1.87-.14,2.81-.14a31.07,31.07,0,0,1,31,31Z"/><path class="cls-5" d="M133.49,238.81c-17.25,0-38.08-14.68-38.08-32.91V165.5c0-17.22,18.18-30.25,35.16-31.63,1-.09,1.94-.14,2.92-.14a32.37,32.37,0,0,1,32.34,32.34v40.4a32.22,32.22,0,0,1-20.17,30A31.65,31.65,0,0,1,133.49,238.81Zm0-102.5a26.91,26.91,0,0,0-2.69.13C115.27,137.69,98,149.94,98,165.5v40.4c0,16.8,19.42,30.33,35.5,30.33a29.13,29.13,0,0,0,11.19-2.18,29.66,29.66,0,0,0,18.57-27.58v-40.4a29.77,29.77,0,0,0-29.76-29.76Z"/><path class="cls-5" d="M521.23,171.79v29a36.88,36.88,0,0,1-36.77,36.76,31,31,0,0,1-31.07-31.05v-40.4a31.07,31.07,0,0,1,31.07-31,34.54,34.54,0,0,1,5.79.48A36.88,36.88,0,0,1,521.23,171.79Z"/><path class="cls-5" d="M484.46,238.81a32.34,32.34,0,0,1-32.36-32.34v-40.4a32.37,32.37,0,0,1,32.36-32.34,35.9,35.9,0,0,1,6,.5,38.32,38.32,0,0,1,32.06,37.56v29A38.1,38.1,0,0,1,484.46,238.81Zm0-102.5a29.77,29.77,0,0,0-29.78,29.76v40.4a29.74,29.74,0,0,0,29.78,29.76,35.52,35.52,0,0,0,35.48-35.47v-29a35.72,35.72,0,0,0-29.89-35A33.29,33.29,0,0,0,484.46,136.31Z"/><path class="cls-6" d="M164.54,166.07v40.4a31,31,0,0,1-19.37,28.77c-12.34-17.54-19.32-38.69-19.32-63.45a145.1,145.1,0,0,1,4.83-36.63c.93-.09,1.87-.14,2.81-.14a31.07,31.07,0,0,1,31,31Z"/><path class="cls-6" d="M144.71,236.82l-.59-.84c-13-18.44-19.56-40-19.56-64.19a146.66,146.66,0,0,1,4.87-37l.23-.87.89-.09a32.35,32.35,0,0,1,35.28,32.2v40.4a32.22,32.22,0,0,1-20.17,30Zm-13-100.45a143.39,143.39,0,0,0-4.56,35.42c0,23.24,6.22,44.05,18.49,61.85a29.64,29.64,0,0,0,17.62-27.17v-40.4a29.76,29.76,0,0,0-31.55-29.7Z"/><path class="cls-6" d="M495.51,172.93c0,24.74-7,45.91-19.48,63.43a31,31,0,0,1-22.64-29.89v-40.4a31.07,31.07,0,0,1,31.07-31,34.54,34.54,0,0,1,5.79.48A140.21,140.21,0,0,1,495.51,172.93Z"/><path class="cls-6" d="M476.55,237.84l-.87-.24a32.41,32.41,0,0,1-23.58-31.13v-40.4a32.37,32.37,0,0,1,32.36-32.34,35.9,35.9,0,0,1,6,.5l.81.14.22.78a141.69,141.69,0,0,1,5.3,37.78c0,24.19-6.63,45.79-19.71,64.17Zm7.91-101.53a29.77,29.77,0,0,0-29.78,29.76v40.4a29.83,29.83,0,0,0,20.83,28.39c12.41-17.78,18.71-38.61,18.71-61.93a138.93,138.93,0,0,0-5-36.29A34,34,0,0,0,484.46,136.31Z"/><path class="cls-3" d="M488.08,172.36c0,83.55-80.08,126.14-178.35,126.14S132.14,255.91,132.14,172.36c0-70.79,55.86-144.48,132.71-165.31A165.37,165.37,0,0,1,308.2,1.26a167.28,167.28,0,0,1,43,5.63C429.18,27.49,488.08,101.36,488.08,172.36Z"/><path class="cls-3" d="M309.73,299.79c-108.67,0-178.88-50-178.88-127.43,0-73.08,58.71-146.24,133.66-166.56a168.22,168.22,0,0,1,87-.16C428.8,26.05,489.36,99.29,489.36,172.36,489.36,249.77,418.85,299.79,309.73,299.79ZM308.2,2.55a164.4,164.4,0,0,0-43,5.74c-73.88,20-131.75,92.09-131.75,164.07,0,75.85,69.2,124.85,176.3,124.85,107.56,0,177.06-49,177.06-124.85,0-72-59.72-144.1-136-164.23A166.47,166.47,0,0,0,308.2,2.55Z"/><path class="cls-5" d="M444.42,190.89c0,56.49-47.63,69.14-110.77,71.21l-2.94-20.56H286L283.1,262c-61.89-2.38-108.82-15.5-108.82-71.12,0-63.42,13.76-138.62,132.33-138.62S444.42,127.47,444.42,190.89Z"/><path class="cls-5" d="M332.54,263.43l-3-20.6H287.14l-2.93,20.51-1.16,0c-54.42-2.09-110-12.33-110-72.41C173,125.75,188.18,51,306.61,51c93.6,0,139.1,45.77,139.1,139.91,0,60.49-53.84,70.59-112,72.5ZM284.9,240.25h46.92l2.94,20.53c56.44-2,108.37-12,108.37-69.89,0-92.41-44.65-137.33-136.52-137.33-116.14,0-131,73.39-131,137.33,0,57.34,51,67.55,106.42,69.78Z"/><path class="cls-9" d="M440.45,189.9c0,54.83-46.23,67.1-107.51,69.12l-2.86-20H286.71l-2.84,19.86c-60.07-2.3-105.61-15-105.61-69,0-61.56,13.35-134.54,128.43-134.54S440.45,128.34,440.45,189.9Z"/><path class="cls-7" d="M331.82,260.34l-2.86-20H287.82L285,260.25l-1.16,0C231,258.18,177,248.24,177,189.9c0-63.24,14.74-135.83,129.72-135.83,90.87,0,135.05,44.43,135.05,135.83,0,58.74-52.28,68.55-108.76,70.4Zm-46.23-22.57H331.2l2.85,19.92c54.75-1.91,105.11-11.64,105.11-67.79,0-89.67-43.33-133.25-132.47-133.25C194,56.65,179.55,127.86,179.55,189.9c0,55.61,49.44,65.51,103.21,67.69Z"/><circle class="cls-4" cx="239.04" cy="144.35" r="37.16"/><path class="cls-4" d="M239,182.8a38.45,38.45,0,1,1,38.44-38.45A38.5,38.5,0,0,1,239,182.8Zm0-74.31a35.87,35.87,0,1,0,35.87,35.86A35.9,35.9,0,0,0,239,108.49Z"/><circle class="cls-10" cx="239.04" cy="144.35" r="29.15"/><path class="cls-11" d="M239,174.79a30.44,30.44,0,1,1,30.44-30.44A30.47,30.47,0,0,1,239,174.79Zm0-58.3a27.87,27.87,0,1,0,27.86,27.86A27.9,27.9,0,0,0,239,116.49Z"/><path class="cls-12" d="M256.38,144.35A17.34,17.34,0,1,1,239,127,17.34,17.34,0,0,1,256.38,144.35Z"/><path class="cls-12" d="M239,163a18.63,18.63,0,1,1,18.63-18.63A18.65,18.65,0,0,1,239,163Zm0-34.68a16.05,16.05,0,1,0,16.05,16A16.07,16.07,0,0,0,239,128.3Z"/><path class="cls-13" d="M256.38,144.35A17.34,17.34,0,1,1,239,127,17.34,17.34,0,0,1,256.38,144.35Z"/><path class="cls-13" d="M239,163a18.63,18.63,0,1,1,18.63-18.63A18.65,18.65,0,0,1,239,163Zm0-34.68a16.05,16.05,0,1,0,16.05,16A16.07,16.07,0,0,0,239,128.3Z"/><circle class="cls-4" cx="378.51" cy="144.35" r="37.16"/><path class="cls-4" d="M378.51,182.8A38.45,38.45,0,1,1,417,144.35,38.49,38.49,0,0,1,378.51,182.8Zm0-74.31a35.87,35.87,0,1,0,35.87,35.86A35.9,35.9,0,0,0,378.51,108.49Z"/><circle class="cls-14" cx="378.51" cy="144.35" r="29.15"/><path class="cls-11" d="M378.51,174.79A30.44,30.44,0,1,1,409,144.35,30.47,30.47,0,0,1,378.51,174.79Zm0-58.3a27.87,27.87,0,1,0,27.87,27.86A27.89,27.89,0,0,0,378.51,116.49Z"/><path class="cls-13" d="M395.85,144.35A17.34,17.34,0,1,1,378.51,127,17.34,17.34,0,0,1,395.85,144.35Z"/><path class="cls-13" d="M378.51,163a18.63,18.63,0,1,1,18.63-18.63A18.65,18.65,0,0,1,378.51,163Zm0-34.68a16.05,16.05,0,1,0,16.05,16A16.07,16.07,0,0,0,378.51,128.3Z"/><path class="cls-5" d="M351.16,6.89v14A14.86,14.86,0,0,1,336.3,35.74H279.71a14.86,14.86,0,0,1-14.86-14.86V7.05A165.37,165.37,0,0,1,308.2,1.26,167.28,167.28,0,0,1,351.16,6.89Z"/><path class="cls-5" d="M336.3,37H279.71a16.17,16.17,0,0,1-16.15-16.15V6.06l.95-.26a168.22,168.22,0,0,1,87-.16l1,.25v15A16.17,16.17,0,0,1,336.3,37ZM266.13,8V20.88a13.59,13.59,0,0,0,13.58,13.57H336.3a13.59,13.59,0,0,0,13.57-13.57v-13A165.69,165.69,0,0,0,266.13,8Z"/><path class="cls-8" d="M402.71,40.06a28.09,28.09,0,0,0-16.82-2.75c-4.43.72-7.86,2.43-3.86,6.43,8,8,38.87,24,48,34.3C438.73,87.81,444.07,60.46,402.71,40.06Z"/><path class="cls-8" d="M433.46,81.37c-1.09,0-2.62-.49-4.38-2.47-4.94-5.56-16.83-13.11-27.31-19.78-8.73-5.55-17-10.79-20.65-14.46-1.82-1.82-2.48-3.5-2-5,.59-1.82,2.74-3,6.56-3.62a29.17,29.17,0,0,1,17.6,2.86c28,13.81,34.54,30.53,34.1,37.45-.16,2.51-1.19,4.28-2.82,4.84A3.37,3.37,0,0,1,433.46,81.37ZM390,38.28a25.55,25.55,0,0,0-3.91.3c-3.93.64-4.45,1.67-4.52,1.87-.15.48.36,1.37,1.37,2.38,3.47,3.48,11.6,8.64,20.21,14.12C414.3,64,425.83,71.36,431,77.19c1.25,1.41,2.22,1.73,2.71,1.57s1-1.21,1.09-2.58c.47-7.34-7.85-22.72-32.67-35A27.51,27.51,0,0,0,390,38.28Z"/><path class="cls-8" d="M500.93,146.64s13.43,2,14.57,19.14-5.43,24-6.86,14.87-2.57-15.15-3.43-20.87-5.14-9.71-5.43-11.72S500.93,146.64,500.93,146.64Z"/><path class="cls-8" d="M511,186c-1.16,0-2.92-.78-3.6-5.15-.73-4.69-1.39-8.55-2-12-.56-3.26-1-6.12-1.46-8.92-.5-3.3-2.24-6-3.63-8.14a10.06,10.06,0,0,1-1.8-3.58,2.55,2.55,0,0,1,.75-2.56,2.14,2.14,0,0,1,2-.3c1.52.29,14.39,3.31,15.53,20.31.73,11-1.7,19.86-5.52,20.28Zm-9.89-38a12.93,12.93,0,0,0,1.39,2.45c1.45,2.24,3.44,5.3,4,9.16.41,2.78.9,5.62,1.45,8.86.58,3.43,1.24,7.3,2,12,.41,2.58,1.11,3,1.11,3,1-.17,4-5.76,3.2-17.56C513.26,151.45,503.09,148.43,501.08,148Z"/><path class="cls-15" d="M308.86,222.05c-19,0-35.1-9.32-39.19-22.66a1.29,1.29,0,1,1,2.46-.75c3.7,12.07,19.15,20.83,36.73,20.83s33-8.77,36.73-20.84a1.29,1.29,0,0,1,2.47.75C344,212.73,327.86,222.05,308.86,222.05Z"/><path class="cls-15" d="M308.86,223.51c-19.63,0-36.32-9.74-40.6-23.69a2.76,2.76,0,0,1,5.28-1.62c3.51,11.47,18.37,19.8,35.32,19.8s31.82-8.33,35.32-19.81a2.79,2.79,0,0,1,3.44-1.83,2.76,2.76,0,0,1,1.84,3.45C345.2,213.77,328.5,223.51,308.86,223.51Z"/><path class="cls-12" d="M390.79,347.08s27.44-5.33,45,8.39,20.58,29,13.72,29.72-24.39-14.48-33.54-16.77S383.17,356.23,390.79,347.08Z"/><path class="cls-12" d="M449,386.51c-4.25,0-10.9-4.19-17.92-8.61-5.64-3.56-11.49-7.24-15.43-8.23C408.19,367.81,391,361,388.37,353a6.76,6.76,0,0,1,1.43-6.69l.3-.35.45-.09c1.14-.22,28.21-5.29,46,8.63,13.48,10.55,19,22.47,17.32,28.33a4.79,4.79,0,0,1-4.25,3.69A4.4,4.4,0,0,1,449,386.51ZM391.5,348.27a4.09,4.09,0,0,0-.69,3.88c2.05,6.28,17.42,13,25.45,15,4.34,1.09,10.36,4.88,16.18,8.55,6.37,4,13.58,8.58,16.9,8.19a2.27,2.27,0,0,0,2.05-1.83c1.22-4.33-3.06-15.14-16.43-25.6C419.33,344.24,395.15,347.67,391.5,348.27Z"/><rect class="cls-16" x="597.73" y="197.14" width="191.17" height="116.02" transform="translate(-31.37 398.76) rotate(-31.41)"/><path class="cls-16" d="M805.52,254.93,641.88,354.88,581.1,255.36l163.65-99.94ZM642.07,354.07l162.65-99.33-60.17-98.52L581.91,255.56Z"/><path class="cls-12" d="M682.42,260.41l3.19.12-1.37,2.88-38.89,81.85a1.46,1.46,0,0,1-2.64-1.26l38.34-80.72Z"/><path class="cls-12" d="M645.12,346.41a2.09,2.09,0,0,1-3-1.08,2,2,0,0,1,.09-1.59l39.88-84,4.53.17-1.78,3.73-38.88,81.85A2.07,2.07,0,0,1,645.12,346.41ZM682.8,261l-39.53,83.23a.86.86,0,0,0,0,.65c.85.67,1.37.49,1.56.08l39.86-83.89Z"/><path class="cls-12" d="M795.81,252.6a1.47,1.47,0,0,1-1.52,1.41l-89.23-3.27-3.18-.11,1.34-2.88,3.18.11,88,3.22A1.46,1.46,0,0,1,795.81,252.6Z"/><path class="cls-12" d="M795.43,254.32a2.06,2.06,0,0,1-1.16.3l-93.35-3.4,1.91-4.1,3.59.13,88,3.21a2.08,2.08,0,0,1,1.44.67,2.07,2.07,0,0,1-.1,2.93A1.7,1.7,0,0,1,795.43,254.32Zm-92.6-4.27,2.25.08,89.24,3.26a.84.84,0,0,0,.61-.23c.27-.81.19-1,0-1.19-.59-.27-91.37-3.59-91.37-3.59Z"/><path class="cls-12" d="M744,167,706.4,247.86l-1.34,2.88-5.74,12.35a1.39,1.39,0,0,1-.57.63,1.33,1.33,0,0,1-.81.21l-13.7-.52-3.19-.13-89.76-3.45a1.47,1.47,0,1,1,.11-2.93l91,3.51,3.19.12,11.46.44,4.81-10.34,1.34-2.88,38.11-82A1.47,1.47,0,1,1,744,167Z"/><path class="cls-12" d="M699.08,264.25a2.08,2.08,0,0,1-1.18.3l-106.63-4.1a2.09,2.09,0,1,1,.16-4.17l105.25,4.06,44.09-94.83a2.08,2.08,0,1,1,3.78,1.75l-44.67,96.09A2.11,2.11,0,0,1,699.08,264.25Zm-108.17-6.61a.84.84,0,0,0-.41.7.86.86,0,0,0,.82.88L698,263.32a.83.83,0,0,0,.8-.49l44.67-96.09c0-.86-.21-1-.41-1.13a.86.86,0,0,0-1.13.42L697.46,261.6,682.4,261l-91-3.5A.77.77,0,0,0,590.91,257.64Z"/><path class="cls-17" d="M680.32,199A20.29,20.29,0,1,1,660,178.75,20.28,20.28,0,0,1,680.32,199Z"/><path class="cls-17" d="M660,220.36A21.32,21.32,0,1,1,681.35,199,21.34,21.34,0,0,1,660,220.36Zm0-40.58A19.26,19.26,0,1,0,679.29,199,19.28,19.28,0,0,0,660,179.78Z"/><path class="cls-12" d="M666.87,207l-3-4.57-7.79,5.14-1-1.49.42-15.64,2.45-1.62,6.88,10.42,2.34-1.55,1.18,1.78L666,201.05l3,4.56Zm-4.18-6.35-3.7-5.59c-.58-.88-1.13-1.77-1.66-2.69.06,1.38.12,2.37.17,3.45l-.34,8.41C657.19,204.31,662.69,200.68,662.69,200.68Z"/><path class="cls-12" d="M655.89,208.49l-1.45-2.2.43-16.17,3.27-2.16L665,198.38l2.35-1.55,1.88,2.86-2.35,1.54,3,4.57-3.22,2.12-3-4.56Zm-.16-2.57.52.79,7.79-5.14,3,4.56,1.06-.7-3-4.56,2.34-1.55-.46-.7-2.34,1.54-6.88-10.42-1.63,1.08Zm1.29-.73-.48-.69,0-.27.34-8.4c0-1-.1-2-.24-3.31l0-.39.89-.58.42.53c.52.9,1.07,1.78,1.64,2.65l4.05,6.14Zm1.08-10.3c0,.31,0,.62,0,.93l-.29,7.28,3.94-2.6-3.34-5.06Z"/><ellipse class="cls-7" cx="298.44" cy="740.64" rx="142.57" ry="25.32"/><path class="cls-7" d="M298.44,767.43c-69.83,0-144-9.39-144-26.79s74.21-26.79,144-26.79,144,9.39,144,26.79S368.27,767.43,298.44,767.43Zm0-50.64c-84.4,0-141.1,12.33-141.1,23.85s56.7,23.85,141.1,23.85,141.1-12.34,141.1-23.85S382.84,716.79,298.44,716.79Z"/></g></g></svg>