<svg xmlns="http://www.w3.org/2000/svg" xmlns:xlink="http://www.w3.org/1999/xlink" viewBox="0 0 415.67 408.57"><defs><style>.cls-1{fill:#268baa;}.cls-2{fill:#11778e;}.cls-3{fill:#72bfe5;}.cls-4{fill:#011c22;}.cls-5{fill:#52abce;}.cls-6{fill:#3d96b2;}.cls-7{fill:#e1ebf8;}.cls-8{fill:#a8dbef;}.cls-9{fill:#1f566a;}.cls-10{fill:url(#radial-gradient);}.cls-11{fill:url(#radial-gradient-2);}.cls-12{fill:#c5f7fe;}.cls-13{fill:url(#radial-gradient-3);}.cls-14{fill:url(#radial-gradient-4);}.cls-15{fill:#0b353f;}.cls-16{fill:#fff;}.cls-17{fill:#ff7c6b;}</style><radialGradient id="radial-gradient" cx="402.6" cy="-211.65" r="29.16" gradientTransform="translate(-57.43 196.96) scale(0.53 0.53)" gradientUnits="userSpaceOnUse"><stop offset="0" stop-color="#fff"/><stop offset="1" stop-color="#0b353f"/></radialGradient><radialGradient id="radial-gradient-2" cx="402.6" cy="-211.64" r="30.44" xlink:href="#radial-gradient"/><radialGradient id="radial-gradient-3" cx="539.82" cy="-236.62" r="29.16" xlink:href="#radial-gradient"/><radialGradient id="radial-gradient-4" cx="539.82" cy="-236.62" r="30.45" xlink:href="#radial-gradient"/></defs><title>Fichier 3</title><g id="Calque_2" data-name="Calque 2"><g id="Calque_1-2" data-name="Calque 1"><rect class="cls-1" x="194.61" y="154.17" width="22.46" height="29.61"/><path class="cls-1" d="M217.75,184.47H193.93v-31h23.82ZM195.3,183.1h21.08V154.86H195.3Z"/><path class="cls-2" d="M217.07,154.17v7.51a.74.74,0,0,1-.69.74c-3.36.2-6.78.3-10.24.3-3.67,0-7.29-.11-10.84-.33a.75.75,0,0,1-.69-.75v-7.47Z"/><path class="cls-2" d="M206.14,164.1c-3.74,0-7.42-.12-10.93-.34a2.12,2.12,0,0,1-2-2.12v-8.85h25.2v8.89a2.11,2.11,0,0,1-2,2.11C213.13,164,209.66,164.1,206.14,164.1Zm-10.16-3a175.29,175.29,0,0,0,19.72,0v-5.53H196Z"/><path class="cls-2" d="M217.07,169.73v7.61c-3.58.23-7.24.34-10.93.34-3.91,0-7.75-.12-11.53-.38v-7.57a.6.6,0,0,1,.6-.6h21.26A.6.6,0,0,1,217.07,169.73Z"/><path class="cls-2" d="M206.14,179.05c-4,0-7.89-.13-11.62-.38l-1.28-.09v-8.85a2,2,0,0,1,2-2h21.26a2,2,0,0,1,2,2v8.9l-1.28.08C213.62,178.94,209.91,179.05,206.14,179.05ZM196,176a175.3,175.3,0,0,0,19.72,0v-5.53H196Z"/><path class="cls-1" d="M108.33,214.48c-1.17.19-2.3.36-3.43.5a66.41,66.41,0,0,1-14.87.28,58.33,58.33,0,0,1-6.83-1l-.25-.06c-1.1-.25-2.18-.53-3.2-.83-.5-.15-1-.3-1.48-.46-1.07-.34-2.08-.72-3.06-1.1a46.82,46.82,0,0,1-6.34-3.08,38.55,38.55,0,0,1-11.93-10.22L47.49,205c.42.63,6.24,9,18.46,15.21A58.91,58.91,0,0,0,74,223.64a61.59,61.59,0,0,0,7.11,2c.47.1,1,.2,1.46.28,1.66.32,3.39.58,5.17.78.45.05.92.11,1.38.14,2.07.2,4.24.31,6.49.31a86.31,86.31,0,0,0,14.57-1.25l-.45-2.72Z"/><path class="cls-1" d="M95.77,227.8h-.12c-2.23,0-4.44-.11-6.56-.32l-1-.09-.39,0c-1.8-.21-3.56-.47-5.23-.79-.49-.08-1-.18-1.48-.29a63.7,63.7,0,0,1-7.18-2,59.28,59.28,0,0,1-8.18-3.46C52.89,214.31,47,205.47,46.92,205.39l-.37-.57,10.57-7.31.39.57a38,38,0,0,0,11.7,10,45.69,45.69,0,0,0,6.25,3c1.13.44,2.09.79,3,1.09.48.16,1,.31,1.46.45,1.11.32,2.15.59,3.16.81l.25.06a56.06,56.06,0,0,0,6.74,1.05,67,67,0,0,0,14.73-.28c1.12-.14,2.24-.31,3.4-.5l.67-.11L111,226.43l-.68.11A87.36,87.36,0,0,1,95.77,227.8ZM48.45,205.18a52.54,52.54,0,0,0,17.81,14.43,59.87,59.87,0,0,0,8,3.38,60.5,60.5,0,0,0,7,1.93c.47.11.95.2,1.43.29,1.65.31,3.38.57,5.13.77l.4,0c.31,0,.63.07,1,.09,2.1.2,4.26.31,6.45.31h.12a86.08,86.08,0,0,0,13.66-1.13l-1.66-10c-.94.15-1.87.28-2.78.4A68.53,68.53,0,0,1,90,216a61.27,61.27,0,0,1-6.9-1.07,1.44,1.44,0,0,1-.33-.08c-1-.21-2-.49-3.17-.82-.51-.15-1-.3-1.5-.47-1-.3-1.94-.66-3.1-1.11a48.35,48.35,0,0,1-6.43-3.12,40.57,40.57,0,0,1-11.74-9.87Z"/><path class="cls-2" d="M106.61,215a67.31,67.31,0,0,1-13.89.37.57.57,0,0,0-.57.81c1.64,3.48,3.41,7.21,5,10.62a.59.59,0,0,0,.52.33,88.1,88.1,0,0,0,14.2-1.25l-.45-2.72Z"/><path class="cls-2" d="M97.71,228.5A1.93,1.93,0,0,1,96,227.4c-1.65-3.42-3.42-7.15-5-10.63A1.94,1.94,0,0,1,92.83,214a67.31,67.31,0,0,0,13.61-.36l.88-.11,5.46,9.15.72,4.33-1.35.23a88.9,88.9,0,0,1-14.43,1.26ZM94,216.84c1.39,2.95,2.86,6,4.24,8.91a86.29,86.29,0,0,0,12.14-1l-.19-1.09-4.27-7.18A71.76,71.76,0,0,1,94,216.84Z"/><path class="cls-2" d="M75,211.65a45.93,45.93,0,0,1-6.08-3L66,220.22a58.72,58.72,0,0,0,7.63,3.26.39.39,0,0,0,.51-.32c.33-3.36.76-7.65,1.1-11.12A.41.41,0,0,0,75,211.65Z"/><path class="cls-2" d="M73.71,224.88a1.65,1.65,0,0,1-.58-.1,61.13,61.13,0,0,1-7.8-3.33l-1-.5L68,206.57l1.57.92a44.81,44.81,0,0,0,5.9,2.89,1.77,1.77,0,0,1,1.09,1.79c-.34,3.47-.76,7.76-1.1,11.13a1.76,1.76,0,0,1-1.74,1.58Zm-6.16-5.4q2.61,1.28,5.3,2.28c.29-2.88.62-6.22.9-9.11-1.37-.58-2.7-1.21-4-1.9Z"/><path class="cls-2" d="M84.85,215.08a1,1,0,0,0-.74-.64l-.91-.23-.25-.06-3-.78a.1.1,0,0,0-.13.12l2.66,11.71a1.06,1.06,0,0,0,.84.81c1.32.24,4.74.67,5.67.77a.12.12,0,0,0,.13-.17C87.64,222.69,86.06,218.36,84.85,215.08Z"/><path class="cls-2" d="M89,228.16h-.15c-1-.1-4.4-.54-5.78-.79a2.39,2.39,0,0,1-1.93-1.85L78.28,213l.59-.64a1.48,1.48,0,0,1,1.39-.37l.21.06c.65.17,2,.52,2.81.72l.31.07c.27.09.55.15.83.22a2.4,2.4,0,0,1,1.72,1.5l4.49,12.25-.48.73A1.47,1.47,0,0,1,89,228.16Zm-5.24-3.47c.81.14,2.18.32,3.36.48l-3.46-9.43-.74-.19a3.89,3.89,0,0,1-.4-.1l-.92-.23Z"/><path class="cls-3" d="M50.73,218.24c7,5.47,19.39,12.79,20.51,11.65.91-.93,1.15-4.54,1.48-5.84L77,207.2a6,6,0,0,0-4.11-7.28C65,197.61,57.85,193,51.14,188a6,6,0,0,0-6.67-.34l-11.19,6.74a3.46,3.46,0,0,0-.79,5.29C37.14,204.81,46.38,214.83,50.73,218.24Z"/><path class="cls-3" d="M70.94,230.62c-3.64,0-16.29-8.43-20.63-11.83C45.75,215.21,36,204.54,32,200.12a4.16,4.16,0,0,1,.95-6.34L44.11,187a6.63,6.63,0,0,1,7.43.38c6,4.5,13.32,9.43,21.52,11.84a6.69,6.69,0,0,1,4.58,8.11l-4.26,16.84c-.09.37-.17.92-.27,1.55-.33,2.15-.64,3.86-1.38,4.61A1.09,1.09,0,0,1,70.94,230.62ZM51.15,217.7c7,5.5,17.71,11.63,19.62,11.63.5-.61.81-2.58,1-3.78.1-.68.2-1.28.3-1.67L76.32,207a5.32,5.32,0,0,0-3.64-6.45c-8.41-2.47-15.82-7.48-22-12.06a5.29,5.29,0,0,0-5.91-.3L33.63,195a2.76,2.76,0,0,0-.63,4.23C37,203.59,46.68,214.19,51.15,217.7Z"/><path class="cls-1" d="M301.31,213.15c1.18,0,2.33,0,3.47,0a67,67,0,0,0,14.75-1.89,58.37,58.37,0,0,0,6.6-2,1.1,1.1,0,0,0,.24-.09c1.06-.41,2.08-.84,3.05-1.29.48-.22.95-.44,1.4-.67,1-.49,1.95-1,2.87-1.53a46.48,46.48,0,0,0,5.82-4c7.15-5.65,10.1-11.36,10.33-11.85l10.3,5.09c-.32.69-4.88,9.79-16.07,17.75a60.23,60.23,0,0,1-7.51,4.57,62,62,0,0,1-6.75,3c-.46.18-.92.35-1.4.5q-2.4.84-5,1.53l-1.35.33c-2,.5-4.15.92-6.38,1.26a87,87,0,0,1-14.59.89l.05-2.75Z"/><path class="cls-1" d="M303,225.4l-2,0-.68,0,.25-12.91.68,0c1.18,0,2.32,0,3.44,0a67.32,67.32,0,0,0,14.61-1.88,58.06,58.06,0,0,0,6.52-2l.24-.1c1-.37,2-.78,3-1.26l1.37-.66c.89-.44,1.81-.93,2.84-1.52a45.34,45.34,0,0,0,5.74-3.92,38.09,38.09,0,0,0,10.14-11.61l.3-.62L361,194.57l-.28.61c-.05.1-4.61,9.71-16.3,18a59.75,59.75,0,0,1-7.59,4.61,61.73,61.73,0,0,1-6.82,3c-.46.17-.95.35-1.43.51-1.6.55-3.3,1.07-5,1.53l-.35.09c-.34.09-.68.18-1,.25-2,.51-4.21.94-6.42,1.27A86.66,86.66,0,0,1,303,225.4ZM301.78,224a85.14,85.14,0,0,0,13.8-.89c2.17-.33,4.3-.75,6.32-1.25.34-.07.67-.16,1-.24l.35-.09c1.7-.45,3.37-1,4.95-1.51.48-.16.93-.32,1.38-.49a59.23,59.23,0,0,0,6.68-2.95,57.82,57.82,0,0,0,7.42-4.51,52.32,52.32,0,0,0,15.54-16.88l-9.08-4.49a40.52,40.52,0,0,1-10.19,11.48,46.22,46.22,0,0,1-5.91,4c-1,.61-2,1.11-2.91,1.56-.46.23-.93.46-1.41.68-1.08.49-2.09.92-3.09,1.3a1.3,1.3,0,0,1-.28.11,60.37,60.37,0,0,1-6.64,2.06,68.85,68.85,0,0,1-14.91,1.91c-.92,0-1.86,0-2.81,0Z"/><path class="cls-2" d="M303.09,213.42a67.35,67.35,0,0,0,13.79-1.67.57.57,0,0,1,.68.73c-1.11,3.67-2.32,7.62-3.46,11.24a.56.56,0,0,1-.46.4,87.57,87.57,0,0,1-14.24.84l.06-2.76Z"/><path class="cls-2" d="M301.34,226.35c-.66,0-1.31,0-2,0l-1.37,0,.1-4.4,4.07-9.85.89,0a66.36,66.36,0,0,0,13.52-1.63,1.94,1.94,0,0,1,2.29,2.47c-1.11,3.68-2.33,7.63-3.46,11.25a1.93,1.93,0,0,1-1.58,1.35A87.57,87.57,0,0,1,301.34,226.35Zm-.54-2.75a84.32,84.32,0,0,0,12.15-.77c.95-3.06,2-6.32,2.91-9.44A70.27,70.27,0,0,1,304,214.77l-3.19,7.72Z"/><path class="cls-2" d="M333.93,205.48a44.15,44.15,0,0,0,5.58-3.83l4.56,11A58.92,58.92,0,0,1,337,217a.38.38,0,0,1-.55-.24c-.82-3.28-1.87-7.46-2.7-10.84A.39.39,0,0,1,333.93,205.48Z"/><path class="cls-2" d="M336.82,218.4a1.83,1.83,0,0,1-.73-.15,1.73,1.73,0,0,1-1-1.17l-2.7-10.85a1.78,1.78,0,0,1,.83-1.94,46.1,46.1,0,0,0,5.41-3.71l1.42-1.14,5.67,13.69-.89.64a61.44,61.44,0,0,1-7.23,4.43A1.7,1.7,0,0,1,336.82,218.4Zm-1.56-12.11c.69,2.82,1.5,6.08,2.2,8.89,1.68-.92,3.33-1.94,4.92-3l-3.45-8.32C337.76,204.7,336.53,205.52,335.26,206.29Z"/><path class="cls-2" d="M324.63,210.32a1,1,0,0,1,.64-.74l.86-.37a1.1,1.1,0,0,0,.24-.09l2.89-1.22a.11.11,0,0,1,.15.11l-.94,12a1.07,1.07,0,0,1-.72.92c-1.28.43-4.59,1.36-5.5,1.59a.12.12,0,0,1-.15-.15C323,218.25,323.9,213.74,324.63,210.32Z"/><path class="cls-2" d="M321.85,224l-.66-.57a1.5,1.5,0,0,1-.43-1.39l2.53-12a2.38,2.38,0,0,1,1.48-1.74l.8-.34.29-.12c.88-.36,2.38-1,2.87-1.21l.71-.3.73.47a1.5,1.5,0,0,1,.6,1.32l-.94,12a2.43,2.43,0,0,1-1.64,2.12c-1.32.44-4.69,1.39-5.6,1.62Zm4.08-13.22-2.07,9.83c1.14-.33,2.47-.71,3.26-1l.76-9.68-.94.39a2.22,2.22,0,0,1-.31.13Z"/><path class="cls-3" d="M358.85,208.47c-6.11,6.42-17.34,15.48-18.62,14.51-1-.78-1.79-4.32-2.3-5.56l-6.65-16a6,6,0,0,1,3-7.8c7.46-3.43,13.87-9.06,19.78-15a6,6,0,0,1,6.55-1.31l12.05,5a3.47,3.47,0,0,1,1.54,5.12C370.35,193.18,362.66,204.45,358.85,208.47Z"/><path class="cls-3" d="M340.36,223.69a.85.85,0,0,1-.54-.16c-.84-.63-1.4-2.28-2-4.36-.19-.61-.35-1.14-.5-1.49l-6.64-16A6.7,6.7,0,0,1,334,193c7.77-3.59,14.26-9.53,19.58-14.87a6.67,6.67,0,0,1,7.3-1.46l12,5a4.15,4.15,0,0,1,1.85,6.13c-3.32,5-11.45,17-15.44,21.15S343.63,223.69,340.36,223.69Zm18-46.21a5.29,5.29,0,0,0-3.76,1.58c-5.41,5.42-12,11.46-20,15.14a5.32,5.32,0,0,0-2.67,6.91l6.65,16c.15.38.33,1,.53,1.61a12.69,12.69,0,0,0,1.47,3.6c1.76-.14,11.59-7.84,17.79-14.37,3.91-4.12,12-16,15.29-21a2.77,2.77,0,0,0-1.23-4.09l-12.05-5A5.38,5.38,0,0,0,358.32,177.48Z"/><path class="cls-4" d="M361.83,156.05l8.07,9.78-3.6,2.72L359.22,158a1.65,1.65,0,0,1,.37-2.23A1.63,1.63,0,0,1,361.83,156.05Z"/><path class="cls-4" d="M366.13,169.53l-7.48-11.13a2.35,2.35,0,0,1,.53-3.17,2.31,2.31,0,0,1,3.17.38L370.88,166Zm-5.56-13.39a.93.93,0,0,0-.57.19,1,1,0,0,0-.21,1.3l6.67,9.94,2.45-1.85-7.61-9.23A1,1,0,0,0,360.57,156.14Z"/><path class="cls-4" d="M364.3,162.61A11.13,11.13,0,0,1,378.53,157c5.16,2.24,7.8,9.41,5.51,14.76s-10.58,9.36-15.74,7.12S362,168,364.3,162.61Z"/><path class="cls-4" d="M371.61,180.2a9,9,0,0,1-3.58-.69c-2.59-1.12-4.43-3.77-5.19-7.46a16.87,16.87,0,0,1,.83-9.71,11.39,11.39,0,0,1,6.43-6,11.53,11.53,0,0,1,8.7.05c5.45,2.37,8.3,10,5.86,15.66C382.64,176.75,376.68,180.2,371.61,180.2Zm2.86-23.33a10.85,10.85,0,0,0-3.89.73,10.08,10.08,0,0,0-5.66,5.28,15.45,15.45,0,0,0-.74,8.89c.66,3.24,2.22,5.54,4.39,6.48,4.71,2,12.61-1.56,14.84-6.76,2.16-5-.34-11.77-5.15-13.86A9.64,9.64,0,0,0,374.47,156.87Z"/><path class="cls-5" d="M133.07,203.1V231a11,11,0,0,1-11,11h-9.88a13.06,13.06,0,0,1-13-13.06V205.13a13.08,13.08,0,0,1,13-13.07h9.88A11,11,0,0,1,133.07,203.1Z"/><path class="cls-5" d="M122.1,242.73h-9.88A13.73,13.73,0,0,1,98.54,229V205.13a13.74,13.74,0,0,1,13.68-13.76h9.88a11.7,11.7,0,0,1,11.65,11.73V231A11.69,11.69,0,0,1,122.1,242.73Zm-9.88-50a12.36,12.36,0,0,0-12.31,12.38V229a12.36,12.36,0,0,0,12.31,12.38h9.88A10.33,10.33,0,0,0,132.39,231V203.1a10.33,10.33,0,0,0-10.29-10.35Z"/><path class="cls-5" d="M311,205.13V229A13.06,13.06,0,0,1,298,242h-9.88a11,11,0,0,1-11-11V203.1a11,11,0,0,1,11-11H298A13.08,13.08,0,0,1,311,205.13Z"/><path class="cls-5" d="M298,242.73h-9.88A11.69,11.69,0,0,1,276.51,231V203.1a11.7,11.7,0,0,1,11.65-11.73H298a13.74,13.74,0,0,1,13.68,13.76V229A13.73,13.73,0,0,1,298,242.73Zm-9.88-50a10.33,10.33,0,0,0-10.29,10.35V231a10.33,10.33,0,0,0,10.29,10.34H298A12.36,12.36,0,0,0,310.35,229V205.13A12.36,12.36,0,0,0,298,192.75Z"/><path class="cls-3" d="M292.21,228.46,280,256,256.4,309.3c-8.86,20-28.43,33.27-50.21,33.43h-1c-21.77-.16-41.34-13.42-50.2-33.43L131.33,256l-12.17-27.49c-14-24.33,3.49-54.74,31.41-54.74H260.79C288.71,173.72,306.18,204.13,292.21,228.46Z"/><path class="cls-3" d="M206.2,343.41h-1c-21.84-.15-41.79-13.43-50.83-33.83l-35.81-80.84a36.94,36.94,0,0,1,0-37.11,36.54,36.54,0,0,1,32-18.6H260.79a36.54,36.54,0,0,1,32,18.6,37,37,0,0,1,0,37.15L257,309.58C248,330,228,343.26,206.2,343.41Zm-55.63-169a35.17,35.17,0,0,0-30.82,17.91,35.61,35.61,0,0,0,0,35.8L155.59,309c8.82,19.9,28.28,32.86,49.59,33h1a55,55,0,0,0,49.58-33l35.84-80.9a35.61,35.61,0,0,0,0-35.8,35.19,35.19,0,0,0-30.83-17.91Z"/><path class="cls-5" d="M290.55,231.61l-11.28,26A2.36,2.36,0,0,1,277.1,259H234.42a2.37,2.37,0,0,1-2.37-2.38V226.49a2.37,2.37,0,0,0-2.37-2.38H178.14a2.37,2.37,0,0,0-2.37,2.38v30.13a2.38,2.38,0,0,1-2.38,2.38H134.47a2.37,2.37,0,0,1-2.18-1.43l-11.27-26-.09-.18c-13.6-24.32,3.51-54.66,30.84-54.66h108c27.33,0,44.44,30.34,30.83,54.66A1.42,1.42,0,0,0,290.55,231.61Z"/><path class="cls-5" d="M277.1,259.69H234.42a3.07,3.07,0,0,1-3-3.07V226.49a1.7,1.7,0,0,0-1.69-1.7H178.14a1.7,1.7,0,0,0-1.69,1.7v30.13a3.07,3.07,0,0,1-3.06,3.07H134.46a3.06,3.06,0,0,1-2.8-1.84l-11.27-26a37.65,37.65,0,0,1,.26-37.66,35.74,35.74,0,0,1,31.12-18.13h108a35.75,35.75,0,0,1,31.12,18.13,37.56,37.56,0,0,1,.31,37.55l-.06.11-11.27,26A3,3,0,0,1,277.1,259.69Zm-99-36.27h51.54a3.07,3.07,0,0,1,3,3.07v30.13a1.7,1.7,0,0,0,1.69,1.7H277.1a1.69,1.69,0,0,0,1.55-1l11.27-26,.12-.24a36.22,36.22,0,0,0-.3-36.18,34.42,34.42,0,0,0-29.94-17.45h-108a34.41,34.41,0,0,0-29.94,17.45,36.19,36.19,0,0,0-.3,36.19,1.63,1.63,0,0,1,.11.23l11.28,26a1.68,1.68,0,0,0,1.54,1h38.93a1.69,1.69,0,0,0,1.69-1.7V226.49A3.07,3.07,0,0,1,178.14,223.42Z"/><path class="cls-6" d="M133.07,203.1V231a11,11,0,0,1-11,11h-.93l-5.65-12.76a36.32,36.32,0,0,1,.43-37.22h6.15A11,11,0,0,1,133.07,203.1Z"/><path class="cls-6" d="M122.1,242.73h-1.37l-5.84-13.17a36.8,36.8,0,0,1,.48-37.86l.2-.33h6.53a11.7,11.7,0,0,1,11.65,11.73V231A11.69,11.69,0,0,1,122.1,242.73Zm-.48-1.37h.48A10.33,10.33,0,0,0,132.39,231V203.1a10.33,10.33,0,0,0-10.29-10.35h-5.76a35.46,35.46,0,0,0-.23,36.19Z"/><path class="cls-6" d="M295.64,228.87,289.8,242h-1a11,11,0,0,1-11-11V203.1a11,11,0,0,1,11-11h6.69A36.36,36.36,0,0,1,295.64,228.87Z"/><path class="cls-6" d="M290.25,242.73h-1.48A11.7,11.7,0,0,1,277.11,231V203.1a11.71,11.71,0,0,1,11.66-11.73h7.08l.2.34a36.94,36.94,0,0,1,.2,37.47Zm-1.48-50a10.33,10.33,0,0,0-10.29,10.35V231a10.33,10.33,0,0,0,10.29,10.34h.59l5.69-12.84a35.58,35.58,0,0,0,0-35.77Z"/><path class="cls-7" d="M292.21,228.46,280,256h-44.3a.78.78,0,0,1-.77-.78V223.3a2.24,2.24,0,0,0-2.23-2.25H174.81a2.24,2.24,0,0,0-2.23,2.25v31.87a.78.78,0,0,1-.77.78H131.33l-12.17-27.49c-14-24.33,3.49-54.74,31.41-54.74H260.79C288.71,173.72,306.18,204.13,292.21,228.46Z"/><path class="cls-7" d="M280.47,256.64H235.73a1.46,1.46,0,0,1-1.45-1.47V223.3a1.56,1.56,0,0,0-1.55-1.56H174.81a1.56,1.56,0,0,0-1.55,1.56v31.87a1.46,1.46,0,0,1-1.45,1.47H130.89l-12.36-27.9a36.94,36.94,0,0,1,0-37.11,36.54,36.54,0,0,1,32-18.6H260.79a36.54,36.54,0,0,1,32,18.6,37,37,0,0,1,0,37.15Zm-148.69-1.38h40l.09-32a2.92,2.92,0,0,1,2.91-2.93h57.92a2.92,2.92,0,0,1,2.91,2.93v31.87l43.95.09,12-27.14a35.61,35.61,0,0,0,0-35.8,35.19,35.19,0,0,0-30.83-17.91H150.57a35.17,35.17,0,0,0-30.82,17.91,35.61,35.61,0,0,0,0,35.8Z"/><path class="cls-5" d="M228.44,271.71a3.46,3.46,0,0,1-3.45,3.47H183.12a2.56,2.56,0,0,1-2.59-2.47s.46-39.12.46-39.12a5,5,0,0,1,4.78-4.92l40.28-1.5a2.31,2.31,0,0,1,2.07,1.13,2.35,2.35,0,0,1,.32,1.18Z"/><path class="cls-5" d="M225,275.87H183.12a3.22,3.22,0,0,1-3.27-3.16l.46-39.13a5.66,5.66,0,0,1,5.43-5.6l40.29-1.5a3,3,0,0,1,3.1,3v42.23A4.16,4.16,0,0,1,225,275.87Zm1.15-48-40.35,1.51a4.28,4.28,0,0,0-4.11,4.24l-.46,39.1a1.87,1.87,0,0,0,1.9,1.79H225a2.78,2.78,0,0,0,2.77-2.78V229.48a1.62,1.62,0,0,0-.23-.83A1.6,1.6,0,0,0,226.14,227.85Z"/><rect class="cls-3" x="180.6" y="227.17" width="46.53" height="46.33" rx="1.19"/><path class="cls-5" d="M225.17,274.19H182.55a2.65,2.65,0,0,1-2.64-2.66v-42.4a2.65,2.65,0,0,1,2.64-2.65h42.62a2.65,2.65,0,0,1,2.64,2.65v42.4A2.65,2.65,0,0,1,225.17,274.19Zm-42.62-46.34a1.28,1.28,0,0,0-1.27,1.28v42.4a1.27,1.27,0,0,0,1.27,1.28h42.62a1.27,1.27,0,0,0,1.27-1.28v-42.4a1.28,1.28,0,0,0-1.27-1.28Z"/><path class="cls-4" d="M92.21,49.21a92.86,92.86,0,0,0-.16,11.07c.14,3.7.44,7.38.94,11a109.81,109.81,0,0,0,2,10.84c.79,3.57,1.87,7.07,3,10.52l-4.68,1.42a115.43,115.43,0,0,1-3.32-22.51c-.19-3.77-.19-7.54,0-11.3A96.89,96.89,0,0,1,91,49Z"/><path class="cls-4" d="M92.77,95l-.17-.7A112.53,112.53,0,0,1,90.36,83a111.15,111.15,0,0,1-1.1-11.36c-.19-3.67-.2-7.5,0-11.38a94.9,94.9,0,0,1,1.1-11.32l.11-.66,2.5.36,0,.64a91.14,91.14,0,0,0-.16,11c.14,3.76.46,7.45.93,11a110.9,110.9,0,0,0,4.93,21.23l.22.67ZM91.4,51c-.39,2.82-.65,5.83-.81,9.31-.16,3.83-.15,7.61,0,11.24a109.35,109.35,0,0,0,1.09,11.24,106,106,0,0,0,2,10.43l3.32-1a102.8,102.8,0,0,1-2.8-9.93,106,106,0,0,1-2-10.89c-.48-3.55-.8-7.28-1-11.09C91.23,56.9,91.24,53.83,91.4,51Z"/><path class="cls-4" d="M97.74,45.52a4.86,4.86,0,1,1-5.65-3.94A4.89,4.89,0,0,1,97.74,45.52Z"/><path class="cls-4" d="M93,52a5.55,5.55,0,1,1,1-.09A5.56,5.56,0,0,1,93,52Zm0-9.77a5,5,0,0,0-.75.07,4.16,4.16,0,1,0,.75-.07Z"/><path class="cls-8" d="M89.89,70.19c1,0,2-.12,2.93-.2,0-.2,0-.4-.07-.6-.94.07-1.93.14-2.89.19Z"/><path class="cls-8" d="M89.24,70.91l-.08-2,.67,0c1,0,1.93-.11,2.86-.19l.66,0,.24,2-.71.06c-1,.08-2,.15-3,.2Z"/><path class="cls-8" d="M95.36,83.88l-.15-.64L91.53,86l.12.66Q93.51,85.28,95.36,83.88Z"/><path class="cls-8" d="M91.18,87.84l-.4-2.16.34-.25,3.68-2.74.83-.63.5,2.1-.36.27q-1.84,1.39-3.71,2.77Z"/><path class="cls-8" d="M89.84,62.43c.77-.06,1.53-.13,2.3-.21l0-.6c-.75.08-1.5.13-2.25.19C89.85,62,89.85,62.22,89.84,62.43Z"/><path class="cls-8" d="M89.13,63.17l.06-2,1-.08c.63-.05,1.25-.1,1.88-.17l.72-.07.1,2-.65.07c-.77.08-1.54.15-2.32.21Z"/><path class="cls-8" d="M93.19,72.75l-.09-.67c-1,.63-2,1.27-3,1.92,0,.23,0,.46,0,.68C91.15,74,92.17,73.38,93.19,72.75Z"/><path class="cls-8" d="M89.54,75.89l-.16-2.25.34-.22c1-.65,2-1.3,3-1.92l.89-.56.3,2.16-.38.23c-1,.64-2,1.28-3,1.93Z"/><path class="cls-8" d="M90.39,53.79l1.6.14c0-.21,0-.41,0-.61l-1.55-.13Z"/><polygon class="cls-8" points="92.65 54.67 89.63 54.42 89.84 52.44 92.7 52.69 92.65 54.67"/><path class="cls-8" d="M90,58.74c0,.25,0,.49,0,.73l2-1.18c0-.23,0-.46,0-.69Z"/><polygon class="cls-8" points="89.21 60.7 89.33 58.34 92.64 56.41 92.68 58.68 89.21 60.7"/><path class="cls-8" d="M90.62,79.74c0,.2,0,.4.07.6l1.17-.15,2.58-.33c0-.2-.09-.4-.13-.6l-2.53.33Z"/><path class="cls-8" d="M90.1,81.12l-.23-1.92.66-.14,4.32-.56.41,2-.74.09-2.32.3Z"/><path class="cls-8" d="M89.79,66c0,.23,0,.47,0,.7l2.54-1.5c0-.23,0-.45,0-.68Z"/><polygon class="cls-8" points="89.13 67.87 89.11 65.59 92.89 63.35 93.05 65.56 89.13 67.87"/><path class="cls-4" d="M278,15.19a95.29,95.29,0,0,1,4,10.31c1.17,3.5,2.17,7.06,3,10.65s1.5,7.2,2,10.84a108.11,108.11,0,0,1,.88,10.91l4.88-.33c-.47-3.79-1-7.57-1.85-11.27a110.71,110.71,0,0,0-2.93-11c-1.14-3.6-2.46-7.13-3.93-10.6a97.79,97.79,0,0,0-5-10.13Z"/><path class="cls-4" d="M287.2,58.63l0-.7a110.44,110.44,0,0,0-2.82-21.62c-.78-3.46-1.78-7-3-10.6a95.35,95.35,0,0,0-4-10.23l-.28-.58,2.22-1.23.33.59a95.48,95.48,0,0,1,5,10.2c1.52,3.58,2.85,7.16,3.95,10.66a110.81,110.81,0,0,1,2.95,11,114.23,114.23,0,0,1,1.86,11.33l.09.72Zm-7.82-42.06c1.14,2.6,2.23,5.47,3.3,8.71,1.2,3.62,2.21,7.22,3,10.72a107.81,107.81,0,0,1,2,10.9c.5,3.49.71,7,.85,10.26l3.46-.23c-.4-3.21-.93-6.89-1.74-10.48a111,111,0,0,0-2.92-10.91c-1.09-3.46-2.41-7-3.91-10.54C282,21.8,280.74,19.07,279.38,16.57Z"/><path class="cls-4" d="M271.53,13.69A4.86,4.86,0,1,0,275.44,8,4.86,4.86,0,0,0,271.53,13.69Z"/><path class="cls-4" d="M276.3,18.39a5.55,5.55,0,0,1-5.44-4.57,5.55,5.55,0,0,1,.9-4.17,5.51,5.51,0,0,1,7.7-1.41A5.59,5.59,0,0,1,280.87,16a5.48,5.48,0,0,1-3.57,2.31A5.63,5.63,0,0,1,276.3,18.39Zm0-9.77a5,5,0,0,0-.76.07,4.21,4.21,0,0,0-1.62,7.58,4.11,4.11,0,0,0,3.12.68,4.2,4.2,0,0,0,1.62-7.58A4.11,4.11,0,0,0,276.32,8.62Z"/><path class="cls-8" d="M287.52,34c-.9.29-1.86.58-2.81.85l-.15-.59c.91-.26,1.86-.55,2.77-.85C287.39,33.62,287.46,33.81,287.52,34Z"/><path class="cls-8" d="M284.21,35.72l-.47-1.93.63-.19c.9-.25,1.84-.54,2.75-.83l.64-.21.63,1.88-.66.22c-.91.3-1.88.59-2.84.86Z"/><path class="cls-8" d="M287.2,48.76c0-.22-.06-.44-.08-.66l4.4,1.27c0,.22.07.44.11.66Z"/><path class="cls-8" d="M292.5,51l-1.05-.3c-1.49-.41-3-.84-4.44-1.27l-.44-.13-.27-2.14,1,.29c1.46.43,2.92.85,4.39,1.26l.41.12Z"/><path class="cls-8" d="M284.85,26.73l-2.23.61-.18-.57c.73-.19,1.45-.4,2.17-.61Z"/><path class="cls-8" d="M282.17,28.17l-.58-1.81.68-.25,1.88-.53.86-.25.76,1.84-.73.22-2.25.62Z"/><path class="cls-8" d="M285.33,37.57l-.15-.66c1.17.23,2.33.48,3.49.73.07.22.13.44.2.66C287.69,38,286.51,37.8,285.33,37.57Z"/><path class="cls-8" d="M289.85,39.22,288.72,39c-1.17-.26-2.35-.49-3.52-.73l-.44-.08L284.28,36l1,.2c1.17.22,2.34.48,3.5.73l.4.09Z"/><path class="cls-8" d="M281.31,18.84l-1.45.69-.22-.57,1.4-.67Z"/><polygon class="cls-8" points="279.5 20.46 278.76 18.62 281.35 17.38 282.24 19.16 279.5 20.46"/><path class="cls-8" d="M283.41,23.33l.3.67-2.32-.39c-.08-.22-.15-.44-.23-.65Z"/><polygon class="cls-8" points="284.84 24.88 280.88 24.23 280.12 22.09 283.89 22.71 284.84 24.88"/><path class="cls-8" d="M290.18,43.2l.15.59-1.15.27-2.53.61-.09-.61,2.48-.59Z"/><path class="cls-8" d="M286.09,45.51l-.3-2,4.9-1.17.46,1.93-1.69.4-2.65.63Z"/><path class="cls-8" d="M286.14,30l.23.66-2.89-.51c-.07-.21-.13-.43-.19-.65Z"/><polygon class="cls-8" points="287.43 31.57 282.94 30.79 282.32 28.66 286.64 29.42 287.43 31.57"/><path class="cls-5" d="M119.45,102.46l3.85,21.23a16.62,16.62,0,0,1-7.39,17A15.9,15.9,0,0,1,110,143c-9,1.64-20.59-4.08-22.22-13.09L84,108.65c-1.54-8.52,6.41-16.93,14.86-19.2.48-.13,1-.25,1.46-.34a16.51,16.51,0,0,1,19.16,13.35Z"/><path class="cls-5" d="M106.93,143.93c-8.47,0-18.26-5.46-19.79-13.93L83.3,108.77c-1.64-9,6.61-17.64,15.35-20a15.06,15.06,0,0,1,1.51-.35A16.93,16.93,0,0,1,113,91.23a17.15,17.15,0,0,1,7.13,11.11L124,123.56a17.24,17.24,0,0,1-7.69,17.67,16.72,16.72,0,0,1-6.13,2.42A17.78,17.78,0,0,1,106.93,143.93Zm-3.67-54.4a16.24,16.24,0,0,0-2.85.26,13.36,13.36,0,0,0-1.39.33c-8,2.14-15.86,10.23-14.38,18.4l3.84,21.23c1.6,8.83,13,14.09,21.43,12.54a15.43,15.43,0,0,0,5.63-2.21,15.88,15.88,0,0,0,7.08-16.27l-3.84-21.23a15.83,15.83,0,0,0-15.52-13Z"/><path class="cls-5" d="M306.3,71.35l2.75,15.22a19.69,19.69,0,0,1-15.71,22.84,16.49,16.49,0,0,1-19.18-13.34l-3.84-21.23A16.65,16.65,0,0,1,273,62.43a16.41,16.41,0,0,1,10.61-6.88,17.93,17.93,0,0,1,3.07-.3A19.61,19.61,0,0,1,306.3,71.35Z"/><path class="cls-5" d="M290.39,110.37c-.55,0-1.09,0-1.63-.08a17.25,17.25,0,0,1-15.27-14.1L269.65,75A17.26,17.26,0,0,1,272.43,62a17.08,17.08,0,0,1,11.05-7.17,19.34,19.34,0,0,1,3.18-.31A20.3,20.3,0,0,1,307,71.23l2.75,15.22a20.38,20.38,0,0,1-16.25,23.64A17.73,17.73,0,0,1,290.39,110.37Zm-3.28-54.44h-.43a17.76,17.76,0,0,0-3,.29,15.7,15.7,0,0,0-10.17,6.59A15.91,15.91,0,0,0,271,74.71l3.85,21.23a15.77,15.77,0,0,0,18.38,12.79,19,19,0,0,0,15.16-22l-2.75-15.22A19,19,0,0,0,287.11,55.93Z"/><path class="cls-6" d="M119.45,102.46l3.85,21.23a16.62,16.62,0,0,1-7.39,17c-8.11-8-13.76-18.48-16.12-31.49a78,78,0,0,1-1-19.71c.48-.13,1-.25,1.46-.34a16.51,16.51,0,0,1,19.16,13.35Z"/><path class="cls-6" d="M115.82,141.53l-.39-.39c-8.53-8.44-14-19.16-16.31-31.85a78.57,78.57,0,0,1-1-19.89l0-.47.46-.14c.5-.14,1-.26,1.52-.35A16.93,16.93,0,0,1,113,91.23a17.15,17.15,0,0,1,7.13,11.11L124,123.56a17.24,17.24,0,0,1-7.69,17.67ZM99.48,90a77.58,77.58,0,0,0,1,19.05c2.21,12.21,7.44,22.55,15.54,30.73a15.86,15.86,0,0,0,6.62-16l-3.84-21.23a15.79,15.79,0,0,0-6.55-10.22,15.62,15.62,0,0,0-11.82-2.57Z"/><path class="cls-6" d="M293,74.41c2.35,13,.7,24.8-4.14,35.19a16.51,16.51,0,0,1-14.67-13.53l-3.84-21.23A16.65,16.65,0,0,1,273,62.43a16.41,16.41,0,0,1,10.61-6.88,17.93,17.93,0,0,1,3.07-.3A75.14,75.14,0,0,1,293,74.41Z"/><path class="cls-6" d="M289.24,110.33l-.48,0a17.25,17.25,0,0,1-15.27-14.1L269.65,75A17.26,17.26,0,0,1,272.43,62a17.08,17.08,0,0,1,11.05-7.17,19.34,19.34,0,0,1,3.18-.31h.43l.19.39a75.58,75.58,0,0,1,6.36,19.34c2.3,12.71.89,24.69-4.19,35.6Zm-3-54.38a16.9,16.9,0,0,0-2.52.28,15.7,15.7,0,0,0-10.17,6.59A15.91,15.91,0,0,0,271,74.71l3.85,21.23a15.87,15.87,0,0,0,13.57,12.93c4.8-10.54,6.11-22.08,3.89-34.33A74.54,74.54,0,0,0,286.24,56Z"/><path class="cls-3" d="M289,74.82c7.94,43.9-29.83,73.94-81.16,83.34s-96.81-5.4-104.75-49.3C96.4,71.67,118.57,27.6,156.73,9.31A87.61,87.61,0,0,1,201.8,1C244.5,4.34,282.29,37.52,289,74.82Z"/><path class="cls-3" d="M179.24,161.59c-41.67,0-70.73-19.17-76.78-52.6-6.95-38.4,16.76-82.46,54-100.3A88.42,88.42,0,0,1,201.85.29c42.32,3.33,80.91,36,87.86,74.41,7.36,40.68-24.72,73.7-81.71,84.14A160.17,160.17,0,0,1,179.24,161.59ZM194.7,1.38A86.73,86.73,0,0,0,157,9.93c-36.68,17.59-60.06,61-53.22,98.81,7.21,39.85,48,59,104,48.74,56.17-10.28,87.81-42.68,80.6-82.53-6.84-37.81-44.89-70-86.62-73.29Q198.21,1.38,194.7,1.38Z"/><path class="cls-5" d="M268,88.73c5.37,29.69-18.31,40.89-51.09,48l-3.49-10.53-23.34,4.27.42,11c-32.55,4.67-58.31,2.26-63.6-27-6-33.32-6-74.15,55.94-85.49S262,55.41,268,88.73Z"/><path class="cls-5" d="M168.11,144.09c-20.3,0-37.68-6.17-41.88-29.4-2.73-15.1-4.91-34.59,2.53-51.39,8.12-18.32,25.77-29.74,54-34.9,27.92-5.11,49.5-.65,64.13,13.26,10.83,10.3,18,25.66,21.82,47,5.75,31.78-21.41,42.24-51.61,48.81l-.6.13L213,127l-22.18,4.07.43,11.06-.62.08A159.77,159.77,0,0,1,168.11,144.09ZM203.74,27.73a115.11,115.11,0,0,0-20.78,2c-27.71,5.07-45,16.23-53,34.1-7.29,16.46-5.13,35.68-2.43,50.58,5.45,30.13,33.05,30.62,62.21,26.5l-.42-11,24.51-4.49,3.49,10.5c29.29-6.43,55.46-16.66,49.95-47.08-3.79-21-10.8-36.11-21.41-46.2C235.45,32.72,221.32,27.73,203.74,27.73Z"/><path class="cls-9" d="M265.83,88.59c5.21,28.81-17.77,39.69-49.58,46.6L212.86,125l-22.66,4.15.41,10.71C159,144.37,134,142,128.88,113.67c-5.85-32.35-5.81-72,54.3-83S260,56.25,265.83,88.59Z"/><path class="cls-7" d="M168.87,142.34c-19.7,0-36.58-6-40.66-28.55C122.2,80.56,123,41,183.05,30c27.11-5,48.06-.63,62.26,12.87,10.52,10,17.45,24.91,21.19,45.58,5.58,30.86-20.78,41-50.11,47.39l-.6.13-3.4-10.23-21.48,3.93.41,10.74-.62.09A156.26,156.26,0,0,1,168.87,142.34ZM203.46,29.4a112.43,112.43,0,0,0-20.16,2C124.44,42.15,123.66,81,129.56,113.54c5.28,29.22,32.05,29.7,60.34,25.7l-.41-10.68,23.83-4.37,3.38,10.2c28.41-6.24,53.79-16.17,48.45-45.67-3.68-20.38-10.48-35-20.78-44.83C234.23,34.25,220.52,29.4,203.46,29.4Z"/><ellipse class="cls-4" cx="156.3" cy="83.92" rx="19.73" ry="19.84"/><path class="cls-4" d="M156.29,104.46a20.51,20.51,0,1,1,16.79-8.85A20.23,20.23,0,0,1,160,104.12,19.87,19.87,0,0,1,156.29,104.46Zm0-39.69A19.17,19.17,0,1,0,175,80.49,19,19,0,0,0,156.31,64.77Z"/><path class="cls-10" d="M171.53,81.14a15.48,15.48,0,1,1-18-12.53A15.56,15.56,0,0,1,171.53,81.14Z"/><path class="cls-11" d="M156.29,100.18a16.18,16.18,0,1,1,2.9-.26A15.87,15.87,0,0,1,156.29,100.18Zm0-31.14a15,15,0,0,0-2.66.24,14.65,14.65,0,0,0-9.51,6.18A14.75,14.75,0,1,0,156.31,69Z"/><path class="cls-12" d="M165.36,82.27a9.21,9.21,0,1,1-10.71-7.46A9.25,9.25,0,0,1,165.36,82.27Z"/><path class="cls-12" d="M156.28,93.88a9.93,9.93,0,0,1-9.71-8.17,9.89,9.89,0,1,1,17.86,3.87,9.77,9.77,0,0,1-6.36,4.13A10,10,0,0,1,156.28,93.88Zm0-18.53a9,9,0,0,0-1.53.14A8.59,8.59,0,0,0,151.45,91a8.48,8.48,0,0,0,11.86-2.17,8.59,8.59,0,0,0-7-13.45Z"/><ellipse class="cls-4" cx="229.15" cy="70.59" rx="19.73" ry="19.84"/><path class="cls-4" d="M229.14,91.12a20.44,20.44,0,1,1,3.66-.33A20.75,20.75,0,0,1,229.14,91.12Zm0-39.69a19.16,19.16,0,1,0,18.72,15.73A19,19,0,0,0,229.16,51.43Z"/><path class="cls-13" d="M244.38,67.8a15.48,15.48,0,1,1-18-12.53A15.56,15.56,0,0,1,244.38,67.8Z"/><path class="cls-14" d="M229.14,86.84a16.26,16.26,0,0,1-2.88-32.25,16,16,0,0,1,12.09,2.63A16.29,16.29,0,0,1,232,86.58,15.87,15.87,0,0,1,229.14,86.84Zm0-31.14a14.3,14.3,0,0,0-2.68.25A14.68,14.68,0,0,0,217,62.12a14.77,14.77,0,1,0,20.59-3.77A14.64,14.64,0,0,0,229.18,55.7Z"/><path class="cls-12" d="M238.21,68.93a9.21,9.21,0,1,1-10.71-7.45A9.26,9.26,0,0,1,238.21,68.93Z"/><path class="cls-12" d="M229.13,80.54a9.9,9.9,0,0,1-9.71-8.17,9.93,9.93,0,0,1,1.6-7.45,9.88,9.88,0,0,1,17.86,3.88,10,10,0,0,1-1.6,7.45,9.8,9.8,0,0,1-6.36,4.12A10,10,0,0,1,229.13,80.54Zm0-18.53a9,9,0,0,0-1.55.14,8.45,8.45,0,0,0-5.48,3.56,8.59,8.59,0,0,0,2.16,11.92A8.38,8.38,0,0,0,230.67,79a8.47,8.47,0,0,0,5.49-3.56A8.61,8.61,0,0,0,234,63.54,8.39,8.39,0,0,0,229.17,62Z"/><path class="cls-5" d="M201.8,1l1.33,7.35a7.93,7.93,0,0,1-6.35,9.23L167.22,23A7.9,7.9,0,0,1,158,16.58l-1.31-7.27A87.61,87.61,0,0,1,201.8,1Z"/><path class="cls-5" d="M165.8,23.78a8.6,8.6,0,0,1-8.43-7.08L156,8.92l.47-.23A88.42,88.42,0,0,1,201.85.29l.52,0L203.8,8.2a8.63,8.63,0,0,1-6.9,10l-29.56,5.41A8,8,0,0,1,165.8,23.78ZM157.5,9.71l1.22,6.74a7.21,7.21,0,0,0,8.38,5.84l29.55-5.41a7.26,7.26,0,0,0,5.8-8.43l-1.23-6.83A86.84,86.84,0,0,0,157.5,9.71Z"/><path class="cls-8" d="M231.87,13.47a14.77,14.77,0,0,0-9,.17c-2.25.8-3.88,2-1.41,3.75,4.94,3.44,22.59,8.89,28.34,13.43C255.23,35.12,255.41,20.24,231.87,13.47Z"/><path class="cls-8" d="M251.5,32.27a3.57,3.57,0,0,1-2.16-.91c-3.11-2.45-10-5.28-16.14-7.78-5.09-2.08-9.9-4-12.17-5.63-1.11-.78-1.63-1.6-1.51-2.43.13-1,1.14-1.84,3.08-2.53a15.4,15.4,0,0,1,9.46-.18C248,17.39,253,25.55,253.43,29.22a2.68,2.68,0,0,1-1,2.82A1.82,1.82,0,0,1,251.5,32.27Zm-24-18.74a13.15,13.15,0,0,0-4.46.76c-2,.71-2.16,1.3-2.18,1.41,0,.27.32.69.94,1.12,2.15,1.49,6.89,3.43,11.9,5.48,6.5,2.66,13.21,5.41,16.47,8,.79.63,1.33.7,1.57.57s.41-.73.32-1.46c-.45-3.9-6.25-11.19-20.38-15.25A15.19,15.19,0,0,0,227.51,13.53Z"/><path class="cls-8" d="M293.3,60.08s7.21-.23,9.44,8.67-.56,13.13-2.17,8.46-2.79-7.71-3.78-10.63-3.61-4.62-4-5.64S293.3,60.08,293.3,60.08Z"/><path class="cls-8" d="M302.05,79.82c-.6,0-1.45-.42-2.13-2.38-.82-2.39-1.53-4.34-2.16-6.08s-1.13-3.13-1.62-4.56a10.94,10.94,0,0,0-2.67-3.93,5.64,5.64,0,0,1-1.28-1.71,1.38,1.38,0,0,1,.15-1.42,1.17,1.17,0,0,1,1-.35c.82,0,7.83.37,10,9.19,1.42,5.68,1,10.6-1,11.18A1.14,1.14,0,0,1,302.05,79.82Zm-8.54-19a7.23,7.23,0,0,0,1,1.15,12.38,12.38,0,0,1,3,4.44c.48,1.42,1,2.87,1.61,4.53s1.33,3.71,2.16,6.1c.46,1.31.86,1.45.87,1.45.51-.18,1.52-3.4,0-9.52C300.2,61.43,294.6,60.82,293.51,60.77Z"/><path class="cls-15" d="M205.45,108.34c1.27,4.16-.57,8.41-4.09,9.49s-7.4-1.41-8.67-5.57.58-8.4,4.1-9.48S204.19,104.19,205.45,108.34Z"/><path class="cls-15" d="M199.66,118.77a7.14,7.14,0,0,1-3.85-1.18,9.27,9.27,0,0,1-3.77-5.12c-1.37-4.52.67-9.16,4.55-10.35a6.8,6.8,0,0,1,5.75.9,9.57,9.57,0,0,1,3.49,11.49,6.9,6.9,0,0,1-4.27,4A6.48,6.48,0,0,1,199.66,118.77Zm-1.18-15.56a5.09,5.09,0,0,0-1.49.23c-3.16,1-4.79,4.84-3.64,8.62a7.82,7.82,0,0,0,3.2,4.37,5.3,5.3,0,0,0,8-2.47,7.91,7.91,0,0,0,.23-5.42,7.83,7.83,0,0,0-3.2-4.36A5.75,5.75,0,0,0,198.48,103.21Z"/><path class="cls-16" d="M249.79,184.08s14.56-2.84,23.87,4.48,10.92,15.47,7.28,15.88-12.95-7.74-17.8-9S245.74,189,249.79,184.08Z"/><path class="cls-16" d="M280.68,205.14c-2.26,0-5.79-2.24-9.52-4.6-3-1.9-6.1-3.86-8.19-4.39-4-1-13.08-4.62-14.47-8.93a3.64,3.64,0,0,1,.76-3.58l.16-.18.24-.05c.6-.12,15-2.82,24.42,4.61,7.15,5.63,10.07,12,9.19,15.13a2.55,2.55,0,0,1-2.25,2Zm-30.52-20.42a2.18,2.18,0,0,0-.36,2.07c1.08,3.35,9.24,7,13.5,8,2.31.58,5.5,2.61,8.59,4.57,3.39,2.14,7.23,4.59,9,4.37a1.19,1.19,0,0,0,1.08-1c.66-2.31-1.62-8.08-8.71-13.67C264.93,182.57,252.1,184.4,250.16,184.72Z"/><path class="cls-2" d="M396.44,217.39,390.87,205l13.6-6.17L410,211.23l2.95-1.34s2-20.29,2-20.34l-16.48-11.94-1.75.79-25.85-57.74c0-.07-.72-1.59-.72-1.59l5.27-2.39s2.63-26.25,2.64-26.29L356.81,75,353,76.67l7.21,16.1-17.63,8-7.21-16.1-2.53,1.14s-2.63,26.25-2.63,26.29l21.32,15.44,3.82-1.73.68,1.51,25.89,57.82L380,186l-2,20.34,16.49,11.94Z"/><path class="cls-2" d="M394.4,219l-.28-.2-16.5-11.94-.28-.21,2.1-21,1.7-.77L355.07,126.6l-3.59,1.63-.28-.2-21.33-15.44-.28-.21,0-.35c0-.16,2.64-26.29,2.64-26.29l0-.35,3.4-1.54L342.9,100l16.53-7.49-7.21-16.1,4.65-2.11.28.2L378.48,89.9l.28.2,0,.35s-2.37,23.61-2.64,26.3l0,.35-5,2.28.43,1,25.63,57.25,1.52-.68.28.21,16.49,11.94.29.21,0,.35c0,.21-2,20.33-2,20.33l0,.35L409.73,212l-5.57-12.44-12.49,5.66,5.57,12.44Zm-15.79-12.93,15.93,11.53,1.1-.5-5.57-12.44,14.7-6.66,5.57,12.44,2.08-.94c1.15-11.48,1.81-18.07,2-19.64l-15.93-11.53-2,.9-27.07-60.45,5.5-2.49,2.57-25.59-20.75-15L353.83,77l7.2,16.1-18.74,8.5-7.21-16.1-1.65.74c-.47,4.7-2.29,22.82-2.56,25.59l20.74,15,4.07-1.84.93,2.08,26.13,58.37-2.16,1Z"/><path class="cls-2" d="M361.81,110.29a4.63,4.63,0,1,1-2.82-5.94A4.62,4.62,0,0,1,361.81,110.29Z"/><path class="cls-5" d="M357.45,114a5,5,0,0,1-1.75-.31,5.19,5.19,0,0,1-3-2.69,5.28,5.28,0,0,1,2.47-7,5.23,5.23,0,0,1,7,2.48,5.31,5.31,0,0,1,.21,4,5.23,5.23,0,0,1-2.68,3A5.11,5.11,0,0,1,357.45,114Zm0-9.31a4,4,0,0,0-3.62,5.78,4,4,0,0,0,2.28,2.07,4,4,0,0,0,2.69-7.62A4,4,0,0,0,357.44,104.7Z"/><path class="cls-5" d="M353.16,110.68a4.73,4.73,0,0,1,2.26-6.21,4.66,4.66,0,0,1,3.59-.19,4.74,4.74,0,0,1,.46,8.73,4.69,4.69,0,0,1-6.31-2.33Zm8.43-3.82a4.54,4.54,0,0,0-8.44.35,4.61,4.61,0,0,0,2.78,5.85,4.48,4.48,0,0,0,3.48-.19,4.56,4.56,0,0,0,2.33-2.6A4.6,4.6,0,0,0,361.59,106.86Z"/><path class="cls-9" d="M357.45,114.08a5.3,5.3,0,0,1-4.84-3.15,5.29,5.29,0,1,1,7.12,2.63A5.21,5.21,0,0,1,357.45,114.08Zm0-9.31a4,4,0,0,0-1.32,7.71,3.84,3.84,0,0,0,3-.16,3.93,3.93,0,0,0,2-2.26,4,4,0,0,0-.13-3,3.89,3.89,0,0,0-2.28-2.11A4,4,0,0,0,357.45,104.77Z"/><polygon class="cls-9" points="356.39 112.54 355.93 112.37 358.47 104.83 358.93 105 356.39 112.54"/><path class="cls-9" d="M355.83,112.42c0-.07,2.6-7.68,2.6-7.68l.6.22c0,.07-2.6,7.68-2.6,7.68Zm2.69-7.49-2.5,7.4.32.11,2.5-7.39Z"/><path class="cls-2" d="M393.63,195.31a3.09,3.09,0,1,1,3.3-2.84A3.08,3.08,0,0,1,393.63,195.31Z"/><path class="cls-5" d="M393.88,195.93h-.29a3.71,3.71,0,0,1-3.38-4,3.67,3.67,0,0,1,4-3.4,3.7,3.7,0,0,1-.28,7.39Zm-.2-1.23a2.47,2.47,0,0,0,2.65-2.27,2.5,2.5,0,0,0-.58-1.81,2.47,2.47,0,1,0-2.07,4.08Z"/><path class="cls-5" d="M391,193.52a3.15,3.15,0,0,1,3.11-4.44,3.12,3.12,0,0,1,2.14,1.1,3.16,3.16,0,0,1-.34,4.45,3.09,3.09,0,0,1-2.29.75A3.15,3.15,0,0,1,391,193.52Zm5.6-2.52a3.31,3.31,0,0,0-.46-.73,3,3,0,0,0-2-1,3,3,0,0,0-.47,6,3,3,0,0,0,3.22-2.76A3,3,0,0,0,396.61,191Z"/><path class="cls-9" d="M393.88,196h-.3a3.75,3.75,0,1,1,2.73-.89A3.71,3.71,0,0,1,393.88,196Zm0-6.17A2.38,2.38,0,0,0,391.5,192a2.42,2.42,0,0,0,.56,1.75,2.38,2.38,0,0,0,4.19-1.37,2.34,2.34,0,0,0-.19-1.17,2.72,2.72,0,0,0-.37-.58,2.34,2.34,0,0,0-1.63-.83Z"/><rect class="cls-9" x="393.69" y="189.63" width="0.33" height="5.19" transform="translate(180.45 575.02) rotate(-86.88)"/><path class="cls-9" d="M391.18,192.32l0-.48,5.32.3,0,.47Zm.17-.32v.18l5,.28v-.18Z"/><path class="cls-4" d="M36.59,168.58c-4.29-5.11-12.58-6-17.52-2.26s-5.47,12.1-1.18,17.22,14.73,7.22,19.67,3.48S40.88,173.7,36.59,168.58Z"/><path class="cls-4" d="M22.33,187.61a14.84,14.84,0,0,1-4.95-3.68,13.58,13.58,0,0,1-3-9.59,11.57,11.57,0,0,1,4.29-8.54,13.14,13.14,0,0,1,9.48-2.31,13.92,13.92,0,0,1,9,4.7,19,19,0,0,1,4.1,10.1c.38,4.11-.76,7.39-3.21,9.25s-6.34,2.49-10.61,1.7A20.82,20.82,0,0,1,22.33,187.61ZM32.14,166a13.36,13.36,0,0,0-4.11-1.2,11.83,11.83,0,0,0-8.52,2.07,10.35,10.35,0,0,0-3.81,7.65,12.24,12.24,0,0,0,2.71,8.66A15.94,15.94,0,0,0,27.58,188c3.83.72,7.4.17,9.54-1.46s3.08-4.49,2.74-8.16A17.65,17.65,0,0,0,36.08,169,11.86,11.86,0,0,0,32.14,166Z"/><path class="cls-4" d="M42.74,160.14l-7.4,12.79L40,175.35l6.11-13.46a1.9,1.9,0,0,0-3.36-1.75Z"/><path class="cls-4" d="M40.32,176.29l-5.93-3.08,7.76-13.42a2.58,2.58,0,0,1,3.42-1,2.61,2.61,0,0,1,1.16,3.39Zm-4-3.64,3.37,1.76,5.81-12.81a1.21,1.21,0,0,0-2.15-1.12Z"/><path class="cls-4" d="M39.19,175.69,27.61,159.56a2.11,2.11,0,0,0-3.06-.36l-.35.27a2.22,2.22,0,0,0-.37,3.13l12.59,15.32a1.7,1.7,0,0,0,2.4.21A1.81,1.81,0,0,0,39.19,175.69Z"/><path class="cls-4" d="M37.7,179.21a2.31,2.31,0,0,1-1.8-.86L23.3,163a2.82,2.82,0,0,1-.62-2.08,3,3,0,0,1,1.09-2l.35-.28a2.93,2.93,0,0,1,2.18-.62,2.69,2.69,0,0,1,1.86,1.12L39.74,175.3a2.49,2.49,0,0,1-2,3.91ZM25.92,159.38a1.54,1.54,0,0,0-1,.34l-.34.28a1.57,1.57,0,0,0-.59,1.09,1.45,1.45,0,0,0,.31,1.09L37,177.5a1,1,0,0,0,1.44.1,1.12,1.12,0,0,0,.25-1.51L27.05,160a1.34,1.34,0,0,0-.93-.56Z"/><path class="cls-4" d="M23.52,187,13.25,176.38a2.6,2.6,0,0,1-.2-3.29,1.84,1.84,0,0,1,3,0l9.51,11.39a2,2,0,0,1,.08,2.46A1.34,1.34,0,0,1,23.52,187Z"/><path class="cls-4" d="M24.55,188.11a2.13,2.13,0,0,1-1.52-.67L12.77,176.85a3.26,3.26,0,0,1-.25-4.17,2.52,2.52,0,0,1,2-1,2.9,2.9,0,0,1,2,1L26,184a2.7,2.7,0,0,1,.09,3.31,2,2,0,0,1-1.48.79ZM14.52,173a1.11,1.11,0,0,0-.88.46,1.92,1.92,0,0,0,.1,2.46L24,186.5a.78.78,0,0,0,.57.25.62.62,0,0,0,.48-.27,1.35,1.35,0,0,0-.06-1.61l-9.52-11.38A1.26,1.26,0,0,0,14.52,173Z"/><path class="cls-4" d="M28.63,185.24l-13.71-15a2.2,2.2,0,0,1,.07-2.85l.28-.33a1.62,1.62,0,0,1,2.54-.09l12.88,15.85a1.84,1.84,0,0,1-.09,2.24A1.27,1.27,0,0,1,28.63,185.24Z"/><path class="cls-4" d="M29.5,186.3a1.84,1.84,0,0,1-1.37-.61l-13.71-15a2.86,2.86,0,0,1,.05-3.74l.28-.33a2.38,2.38,0,0,1,1.9-.91,2.17,2.17,0,0,1,1.68.82L31.22,182.4a2.49,2.49,0,0,1-.1,3.09,2.1,2.1,0,0,1-1.57.81ZM16.62,167.07a1.17,1.17,0,0,0-.84.43l-.28.33a1.56,1.56,0,0,0-.08,2l13.71,15c.11.12.21.21.38.17a.78.78,0,0,0,.56-.32,1.16,1.16,0,0,0,.09-1.38L17.28,167.39a.81.81,0,0,0-.65-.32Z"/><path class="cls-4" d="M32.66,182.89,18.24,165.2a2.36,2.36,0,0,1,.49-3.32,2.31,2.31,0,0,1,3.32.34l13.37,18.49A1.72,1.72,0,0,1,35,183,1.66,1.66,0,0,1,32.66,182.89Z"/><path class="cls-4" d="M33.85,184.13a2.19,2.19,0,0,1-1.72-.81L17.71,165.63a2.84,2.84,0,0,1-.61-2.13,3.22,3.22,0,0,1,3.59-2.81,2.79,2.79,0,0,1,1.91,1.14L36,180.32a2.38,2.38,0,0,1-.56,3.25A2.53,2.53,0,0,1,33.85,184.13ZM20.28,162a1.87,1.87,0,0,0-1.83,1.64,1.5,1.5,0,0,0,.32,1.13l14.41,17.69a1,1,0,0,0,1.38,0,1,1,0,0,0,.31-1.4L21.5,162.62a1.45,1.45,0,0,0-1-.59Z"/><path class="cls-4" d="M374.48,159.87l8.62-10.72c.52-.65,1.49-.53,2.13.27l.23.28a2,2,0,0,1,.15,2.55l-9.29,9.89a1.1,1.1,0,0,1-1.67-.27A1.66,1.66,0,0,1,374.48,159.87Z"/><path class="cls-4" d="M375.67,163.11a2.1,2.1,0,0,1-1.55-.81,2.33,2.33,0,0,1-.17-2.87l8.61-10.71a1.78,1.78,0,0,1,1.4-.67,2.35,2.35,0,0,1,1.8.94l.23.28a2.72,2.72,0,0,1,.11,3.46l-9.29,9.88A1.56,1.56,0,0,1,375.67,163.11ZM384,149.42a.42.42,0,0,0-.33.17L375,160.3a1,1,0,0,0,.16,1.13.79.79,0,0,0,.48.3.18.18,0,0,0,.17-.07l9.29-9.88a1.38,1.38,0,0,0-.18-1.64l-.23-.29A1,1,0,0,0,384,149.42Z"/><path class="cls-4" d="M384.69,172.7l7.5-6.56a2.18,2.18,0,0,0,.26-2.57c-.52-1-1.45-1.19-2.05-.56l-7,7.32a1.74,1.74,0,0,0-.14,1.93C383.6,172.9,384.23,173.09,384.69,172.7Z"/><path class="cls-4" d="M384.16,173.59l-.26,0a1.84,1.84,0,0,1-1.25-1,2.44,2.44,0,0,1,.25-2.75l7-7.32a1.75,1.75,0,0,1,1.51-.55,2.22,2.22,0,0,1,1.6,1.2,2.87,2.87,0,0,1-.38,3.48l-7.51,6.56A1.49,1.49,0,0,1,384.16,173.59Zm7-10.25a.38.38,0,0,0-.29.15l-7,7.31a1.09,1.09,0,0,0,0,1.13c.1.19.22.27.29.28l.55.49-.45-.53,7.5-6.55a1.49,1.49,0,0,0,.11-1.71c-.19-.35-.4-.54-.61-.56Z"/><path class="cls-4" d="M381,170.71l10-9.43a1.94,1.94,0,0,0,.06-2.27l-.19-.31c-.47-.81-1.27-1.06-1.75-.54l-9.51,10.26a1.62,1.62,0,0,0,0,1.79C380,170.85,380.65,171.07,381,170.71Z"/><path class="cls-4" d="M380.6,171.57a.82.82,0,0,1-.21,0,1.87,1.87,0,0,1-1.3-1,2.27,2.27,0,0,1,.11-2.6l9.51-10.26a1.51,1.51,0,0,1,1.28-.48,2.14,2.14,0,0,1,1.56,1.14l.19.31a2.64,2.64,0,0,1-.18,3.13l-10.06,9.42A1.27,1.27,0,0,1,380.6,171.57Zm9.21-13a.14.14,0,0,0-.1,0l-9.51,10.26a1,1,0,0,0,.08,1,.6.6,0,0,0,.31.32l10-9.41a1.31,1.31,0,0,0-.06-1.42l-.18-.31a.85.85,0,0,0-.54-.47Z"/><path class="cls-4" d="M378.33,167.27,389,155.84a2.17,2.17,0,0,0-.22-2.72c-.71-.87-1.76-1-2.31-.33l-9.94,12.26a1.6,1.6,0,0,0,.21,1.92C377.21,167.57,377.93,167.71,378.33,167.27Z"/><path class="cls-4" d="M377.74,168.22a2.1,2.1,0,0,1-1.56-.81,2.28,2.28,0,0,1-.21-2.8l9.94-12.26a1.79,1.79,0,0,1,1.42-.68,2.59,2.59,0,0,1,1.95,1,2.83,2.83,0,0,1,.19,3.63l-10.64,11.43A1.45,1.45,0,0,1,377.74,168.22Zm9.6-15.18a.43.43,0,0,0-.37.18L377,165.48a1,1,0,0,0,.21,1.05.71.71,0,0,0,.49.31l.1,0,10.64-11.43a1.53,1.53,0,0,0-.24-1.81A1.28,1.28,0,0,0,387.34,153Z"/><path class="cls-17" d="M26.44,127.81a3.17,3.17,0,0,1,3.18-3.36,3.37,3.37,0,0,1,0,6.72A3.17,3.17,0,0,1,26.44,127.81Zm1.35-7.74-.76-26H32.2l-.76,26Z"/><path class="cls-17" d="M29.62,131.85a4,4,0,0,1,0-8.08,3.78,3.78,0,0,1,3.85,4A3.82,3.82,0,0,1,29.62,131.85Zm0-6.71a2.68,2.68,0,0,0,0,5.34,2.68,2.68,0,0,0,0-5.34Zm2.49-4.38h-5l-.79-27.37H32.9Zm-3.66-1.38h2.33l.71-24.61H27.74Z"/><path class="cls-17" d="M48.45,136.78H9.74A8.85,8.85,0,0,1,2,132.27a9,9,0,0,1,0-9L21.33,89.53a8.95,8.95,0,0,1,15.53,0l19.35,33.73a9,9,0,0,1,0,9A8.85,8.85,0,0,1,48.45,136.78Zm-19.35-51A8.09,8.09,0,0,0,22,89.93L2.66,123.66a8.21,8.21,0,0,0,0,8.22A8.1,8.1,0,0,0,9.74,136H48.45a8.22,8.22,0,0,0,7.08-12.33L36.17,89.93A8.07,8.07,0,0,0,29.1,85.82Z"/><path class="cls-17" d="M48.45,137.55H9.74a9.61,9.61,0,0,1-8.42-4.89,9.72,9.72,0,0,1,0-9.78L20.67,89.15a9.7,9.7,0,0,1,16.85,0l19.35,33.73a9.72,9.72,0,0,1,0,9.78A9.6,9.6,0,0,1,48.45,137.55Zm-19.35-51a7.33,7.33,0,0,0-6.42,3.72L3.32,124a7.41,7.41,0,0,0,0,7.45,7.32,7.32,0,0,0,6.42,3.73H48.45a7.32,7.32,0,0,0,6.42-3.73,7.41,7.41,0,0,0,0-7.45L35.51,90.31A7.33,7.33,0,0,0,29.1,86.59Z"/><ellipse class="cls-7" cx="202.88" cy="394.27" rx="75.69" ry="13.52"/><path class="cls-7" d="M202.88,408.57c-37.07,0-76.47-5-76.47-14.3S165.81,380,202.88,380s76.46,5,76.46,14.31S240,408.57,202.88,408.57Zm0-27c-44.81,0-74.91,6.59-74.91,12.74S158.07,407,202.88,407s74.9-6.58,74.9-12.73S247.68,381.53,202.88,381.53Z"/></g></g></svg>