<svg xmlns="http://www.w3.org/2000/svg" xmlns:xlink="http://www.w3.org/1999/xlink" viewBox="0 0 782.52 758.14"><defs><style>.cls-1{fill:#268baa;}.cls-2{fill:#11778e;}.cls-3{fill:#72bfe5;}.cls-4{fill:#011c22;}.cls-5{fill:#0b353f;}.cls-6{fill:#52abce;}.cls-7{fill:#3d96b2;}.cls-8{fill:#e1ebf8;}.cls-9{fill:#a8dbef;}.cls-10{fill:#1f566a;}.cls-11{fill:url(#radial-gradient);}.cls-12{fill:#0b4751;}.cls-13{fill:#c5f7fe;}.cls-14{fill:url(#radial-gradient-2);}.cls-15{fill:#fff;}</style><radialGradient id="radial-gradient" cx="359.78" cy="136.08" fx="366.9970109546154" r="29.16" gradientTransform="translate(426.76 -242.69) rotate(79.31)" gradientUnits="userSpaceOnUse"><stop offset="0" stop-color="#fff"/><stop offset="1" stop-color="#0b353f"/></radialGradient><radialGradient id="radial-gradient-2" cx="494.4" cy="169.96" fx="501.3401780351766" r="29.16" gradientTransform="matrix(1, 0, 0, 1, 0, 0)" xlink:href="#radial-gradient"/></defs><title>Fichier 2</title><g id="Calque_2" data-name="Calque 2"><g id="_Layer_" data-name="&lt;Layer&gt;"><rect class="cls-1" x="346.23" y="286.68" width="42.3" height="55.45"/><path class="cls-1" d="M389.82,343.41H344.94v-58h44.88Zm-42.3-2.57h39.72V288H347.52Z"/><path class="cls-2" d="M388.53,286.68v14.05a1.39,1.39,0,0,1-1.3,1.39c-6.33.38-12.77.56-19.28.56-6.91,0-13.73-.2-20.42-.62a1.4,1.4,0,0,1-1.3-1.39v-14Z"/><path class="cls-2" d="M368,305.26c-7.05,0-14-.21-20.58-.63a4,4,0,0,1-3.71-4V284.1h47.45v16.63a4,4,0,0,1-3.73,4C381.14,305.07,374.6,305.26,368,305.26Zm-19.14-5.71a336,336,0,0,0,37.15.07V289.25H348.81Z"/><path class="cls-2" d="M388.53,315.81v14.24c-6.74.43-13.63.64-20.58.64q-11,0-21.72-.71V315.81a1.12,1.12,0,0,1,1.12-1.12h40.06A1.12,1.12,0,0,1,388.53,315.81Z"/><path class="cls-2" d="M368,333.27c-7.5,0-14.86-.24-21.89-.72l-2.4-.16V315.81a3.7,3.7,0,0,1,3.69-3.7h40.06a3.7,3.7,0,0,1,3.7,3.7v16.66l-2.41.15C382.06,333.05,375.08,333.27,368,333.27Zm-19.14-5.71a333.64,333.64,0,0,0,37.15.06V317.26H348.81Z"/><path class="cls-1" d="M184.06,397.12c-2.23,0-4.39,0-6.53,0a127.07,127.07,0,0,1-27.8-3.54,113.25,113.25,0,0,1-12.43-3.83,2.34,2.34,0,0,1-.45-.18c-2-.76-3.91-1.57-5.74-2.4-.9-.41-1.78-.83-2.63-1.26-1.9-.93-3.69-1.9-5.4-2.88a86.32,86.32,0,0,1-11-7.44c-13.45-10.58-19-21.28-19.45-22.19l-19.4,9.54c.6,1.28,9.2,18.32,30.27,33.23a111.16,111.16,0,0,0,14.14,8.55,117.6,117.6,0,0,0,12.71,5.57c.87.33,1.75.64,2.65.93,3,1,6.16,2,9.42,2.86.84.21,1.69.44,2.54.62q5.72,1.41,12,2.36a165,165,0,0,0,27.49,1.67l-.11-5.16Z"/><path class="cls-1" d="M180.83,420a164.63,164.63,0,0,1-24-1.71c-4.17-.63-8.26-1.43-12.14-2.39-.61-.13-1.25-.29-1.89-.46l-.66-.16c-3.27-.87-6.47-1.84-9.52-2.89-.89-.29-1.8-.61-2.68-.94a120.86,120.86,0,0,1-12.85-5.64,114,114,0,0,1-14.29-8.63c-22-15.55-30.61-33.56-30.7-33.74l-.53-1.15,21.69-10.66.56,1.16c.06.11,5.45,11,19.1,21.74a88.16,88.16,0,0,0,10.82,7.34c2,1.12,3.67,2,5.32,2.83.86.43,1.72.84,2.6,1.24,2,.9,3.83,1.68,5.67,2.38l.44.17A108.89,108.89,0,0,0,150,392.31a127.23,127.23,0,0,0,27.52,3.52c2.13.05,4.27,0,6.48,0l1.28,0L185.8,420l-1.29,0ZM75,363.5c2.23,4.1,11,18.68,29.26,31.61a111,111,0,0,0,14,8.45,117.77,117.77,0,0,0,12.58,5.51c.85.32,1.71.63,2.59.91,3,1,6.16,2,9.36,2.84l.65.17c.61.15,1.21.31,1.82.44,3.85.95,7.86,1.74,11.95,2.35a163,163,0,0,0,26,1.67l-.37-19c-1.8,0-3.55,0-5.29,0a129.14,129.14,0,0,1-28.08-3.58,111.37,111.37,0,0,1-12.58-3.88,3.12,3.12,0,0,1-.6-.24c-1.74-.65-3.65-1.45-5.67-2.37-.92-.42-1.81-.84-2.68-1.28-1.69-.82-3.43-1.75-5.46-2.91a88.83,88.83,0,0,1-11.14-7.55c-11.66-9.17-17.43-18.33-19.2-21.49Z"/><path class="cls-2" d="M180.71,397.61a128.7,128.7,0,0,1-26-3.11,1.07,1.07,0,0,0-1.28,1.35c2.09,6.88,4.38,14.27,6.52,21a1.07,1.07,0,0,0,.88.75,164.16,164.16,0,0,0,26.81,1.57l-.11-5.16Z"/><path class="cls-2" d="M184,421.83a165.32,165.32,0,0,1-23.52-1.63,3.63,3.63,0,0,1-3-2.52c-2.14-6.79-4.43-14.19-6.53-21.08a3.64,3.64,0,0,1,.82-3.55,3.72,3.72,0,0,1,3.5-1.07A127,127,0,0,0,180.76,395l1.68,0,7.68,18.44.17,8.22-2.58.05C186.47,421.82,185.23,421.83,184,421.83Zm-21.86-6.6A164.32,164.32,0,0,0,185,416.68L185,414.6l-6-14.46a133.85,133.85,0,0,1-22.31-2.58C158.45,403.4,160.34,409.51,162.14,415.23Z"/><path class="cls-2" d="M122.61,382.75a87,87,0,0,1-10.51-7.17l-8.58,20.58a111.12,111.12,0,0,0,13.32,8.13.73.73,0,0,0,1-.45c1.54-6.15,3.51-14,5.07-20.31A.71.71,0,0,0,122.61,382.75Z"/><path class="cls-2" d="M117.18,407a3.29,3.29,0,0,1-1.52-.38,114.83,114.83,0,0,1-13.63-8.3l-1.68-1.2L111,371.44l2.67,2.13a84.74,84.74,0,0,0,10.2,7,3.25,3.25,0,0,1,1.54,3.61c-1.56,6.35-3.53,14.18-5.07,20.32a3.25,3.25,0,0,1-1.83,2.19A3.29,3.29,0,0,1,117.18,407ZM106.7,395.23A108.31,108.31,0,0,0,116,400.9c1.32-5.25,2.85-11.36,4.15-16.63q-3.58-2.16-6.92-4.61Z"/><path class="cls-2" d="M140.14,391.81a1.94,1.94,0,0,0-1.2-1.39c-.56-.22-1.11-.44-1.64-.68a2.34,2.34,0,0,1-.45-.18c-1.68-.68-4.52-1.89-5.44-2.28a.2.2,0,0,0-.28.2l1.78,22.42a2,2,0,0,0,1.34,1.73c2.41.8,8.66,2.54,10.37,3a.24.24,0,0,0,.28-.29C143.28,406.66,141.5,398.22,140.14,391.81Z"/><path class="cls-2" d="M144.69,417.19a2.82,2.82,0,0,1-.71-.09c-1.7-.43-8-2.19-10.54-3a4.55,4.55,0,0,1-3.1-4l-1.89-23.87,1.27-1a2.74,2.74,0,0,1,2.71-.29c.9.38,3.72,1.58,5.39,2.25l.56.23c.48.22,1,.42,1.49.62a4.49,4.49,0,0,1,2.79,3.26l5.06,23.91-1.11,1.22A2.75,2.75,0,0,1,144.69,417.19Zm-9.24-7.88c1.48.48,4,1.2,6.14,1.8L137.7,392.7c-.45-.18-.89-.36-1.32-.55a5.52,5.52,0,0,1-.73-.31l-1.64-.67Z"/><path class="cls-3" d="M75.69,388.34c11.49,12,32.65,29,35.06,27.18,2-1.46,3.37-8.1,4.34-10.42l12.52-30a11.29,11.29,0,0,0-5.68-14.61c-14-6.43-26.11-17-37.26-28.09a11.31,11.31,0,0,0-12.33-2.46l-22.69,9.43a6.46,6.46,0,0,0-2.9,9.58C54,359.72,68.5,380.82,75.69,388.34Z"/><path class="cls-3" d="M110.5,416.84c-6.15,0-28.39-19.92-35.75-27.61-7.51-7.87-22.84-30.31-29.07-39.6a7.75,7.75,0,0,1,3.48-11.49l22.68-9.43a12.57,12.57,0,0,1,13.74,2.74c10,10,22.25,21.12,36.89,27.83a12.53,12.53,0,0,1,6.33,16.27l-12.52,30c-.27.65-.58,1.65-.92,2.78-1.2,3.91-2.25,7-3.83,8.18A1.72,1.72,0,0,1,110.5,416.84ZM76.67,330.32a10.12,10.12,0,0,0-3.84.77l-22.69,9.43a5.18,5.18,0,0,0-2.32,7.67c6.2,9.23,21.42,31.53,28.8,39.26,11.68,12.22,30.18,26.64,33.5,26.91,1-1,2.11-4.57,2.77-6.75.38-1.22.72-2.3,1-3l12.52-30a9.94,9.94,0,0,0-5-12.93c-15-6.88-27.45-18.2-37.64-28.36A10,10,0,0,0,76.67,330.32Z"/><path class="cls-4" d="M10,312.44l29.49,9.67L41.82,314,11.67,306.6A3,3,0,0,0,10,312.44Z"/><path class="cls-4" d="M40.37,323.75,9.6,313.66A4.32,4.32,0,0,1,12,305.35L43.43,313Zm-30-12.53,28.22,9.25,1.59-5.58-28.85-7a1.75,1.75,0,0,0-1,3.36Z"/><path class="cls-4" d="M2.38,284.44l35.84,29.48,5.21-6.69L6.06,279.71a3,3,0,0,0-3.68,4.73Z"/><path class="cls-4" d="M38.43,315.76,1.56,285.44a4.29,4.29,0,0,1,5.27-6.77L45.26,307ZM3.2,283.45,38,312.09l3.58-4.6L5.3,280.75a1.71,1.71,0,0,0-2.1,2.7Z"/><path class="cls-4" d="M20.1,265.77l21.6,41.8,7.43-4.09-23.78-40.6a3,3,0,0,0-5.25,2.89Z"/><path class="cls-4" d="M41.17,309.33,19,266.36a4.29,4.29,0,0,1,7.51-4.13L50.91,304ZM21.24,265.18l21,40.62L47.35,303,24.24,263.53a1.71,1.71,0,0,0-3,1.65Z"/><path class="cls-4" d="M45.65,263l.83,38.66,8.46-.45-3.27-38.53a3,3,0,0,0-6,.32Z"/><path class="cls-4" d="M45.22,303l-.86-40a4.28,4.28,0,0,1,4.08-4.39A4.33,4.33,0,0,1,53,262.53l3.39,39.85Zm3.45-41.81a1.74,1.74,0,0,0-1.73,1.77l.8,37.32,5.8-.31-3.16-37.2A1.71,1.71,0,0,0,48.67,261.17Z"/><path class="cls-4" d="M70.07,290.19l-15.2,18.33,6.78,5.08L75,293.87a3.07,3.07,0,0,0-4.91-3.68Z"/><path class="cls-4" d="M62,315.44l-9-6.71,16.07-19.37a4.36,4.36,0,0,1,7,5.23Zm-5.23-7.14,4.61,3.46,12.57-18.62A1.78,1.78,0,0,0,71.06,291Z"/><path class="cls-4" d="M65.42,302.48c-4.32-10-17.1-14.69-26.82-10.5S23.92,309.6,28.24,319.61s19.92,17.52,29.63,13.33S69.74,312.49,65.42,302.48Z"/><path class="cls-4" d="M51.65,335.42a27,27,0,0,1-11.16-2.65c-6.24-2.87-11.26-7.6-13.44-12.65a23,23,0,0,1-.1-17,21.42,21.42,0,0,1,11.14-12.37c10.64-4.59,24,.64,28.51,11.18a31.44,31.44,0,0,1,1.57,18.18c-1.43,6.91-4.91,11.87-9.79,14A16.9,16.9,0,0,1,51.65,335.42ZM46.2,291.73a17.9,17.9,0,0,0-7.09,1.43,18.82,18.82,0,0,0-9.75,10.9,20.43,20.43,0,0,0,.06,15c1.93,4.48,6.47,8.72,12.15,11.33s11.62,3.12,15.79,1.33,7-6.07,8.29-12.13A28.83,28.83,0,0,0,64.23,303C61.26,296.09,53.69,291.73,46.2,291.73Z"/><rect class="cls-1" x="555.21" y="391.06" width="78.9" height="20.28"/><path class="cls-1" d="M635.4,412.63H553.92V389.77H635.4Zm-78.9-2.58h76.33v-17.7H556.5Z"/><path class="cls-2" d="M547.13,411.21a128.5,128.5,0,0,1,26.15.86,1.06,1.06,0,0,0,1.15-1.46c-2.68-6.68-5.59-13.84-8.31-20.41a1.08,1.08,0,0,0-.94-.67,164.64,164.64,0,0,0-26.85.76l.56,5.13Z"/><path class="cls-2" d="M573.43,414.66a4,4,0,0,1-.5,0,126.68,126.68,0,0,0-25.64-.84l-1.67.11-9.24-17.71L535.5,388l2.56-.27a168.31,168.31,0,0,1,27.26-.77,3.64,3.64,0,0,1,3.18,2.25c2.72,6.58,5.64,13.75,8.32,20.44a3.6,3.6,0,0,1-.5,3.6A3.69,3.69,0,0,1,573.43,414.66Zm-17.27-6.32a127.47,127.47,0,0,1,14.92.85c-2.28-5.67-4.69-11.6-7-17.13a162.5,162.5,0,0,0-22.93.53l.23,2.07,7.24,13.88Q552.43,408.35,556.16,408.34Z"/><path class="cls-2" d="M609,411.94a86.64,86.64,0,0,1,12.67,1.19L619.21,391a111.35,111.35,0,0,0-15.59-.65.72.72,0,0,0-.69.89c1.63,6.13,3.7,13.93,5.4,20.23A.7.7,0,0,0,609,411.94Z"/><path class="cls-2" d="M624.61,416.23l-3.37-.56A84.43,84.43,0,0,0,609,414.52a3.28,3.28,0,0,1-3.11-2.42c-1.7-6.31-3.77-14.11-5.4-20.24a3.25,3.25,0,0,1,.54-2.79,3.3,3.3,0,0,1,2.57-1.34,116.93,116.93,0,0,1,15.94.67l2,.23Zm-14.16-6.82c2.79.1,5.56.33,8.29.68l-1.86-16.78q-5.45-.49-10.85-.47C607.42,398.08,609,404.16,610.45,409.41Z"/><path class="cls-2" d="M589.14,410.85a1.9,1.9,0,0,0,1.58.94c.6,0,1.19.07,1.77.13a3.43,3.43,0,0,1,.48,0c1.81.12,4.89.36,5.89.44a.19.19,0,0,0,.19-.27l-8.77-20.71a2,2,0,0,0-1.82-1.22c-2.54,0-9,.33-10.78.46a.23.23,0,0,0-.17.35C581.47,397.76,585.82,405.2,589.14,410.85Z"/><path class="cls-2" d="M598.88,415h-.22c-1-.08-4.06-.32-5.85-.44l-.26,0h-.19c-.68-.07-1.22-.11-1.76-.13a4.51,4.51,0,0,1-3.68-2.21l-12.36-21.09.66-1.5a2.76,2.76,0,0,1,2.26-1.49c1.77-.13,8.34-.46,11-.46a4.55,4.55,0,0,1,4.2,2.78l9.34,22-.87,1.38A2.74,2.74,0,0,1,598.88,415Zm-5.64-5.58,1.92.13-7.1-16.75c-1.55,0-4.16.12-6.4.23l9.52,16.24c.48,0,1,.06,1.43.11A4.26,4.26,0,0,1,593.24,409.39Z"/><path class="cls-3" d="M648.42,376.57c-16.42-2.7-43.53-3.54-44.37-.64-.67,2.34,2.18,8.5,2.8,10.94l8.06,31.53a11.28,11.28,0,0,0,13.31,8.26c15.09-3.3,31.07-2.13,46.67,0a11.31,11.31,0,0,0,11.33-5.45l12.47-21.17a6.48,6.48,0,0,0-3.45-9.41C682.94,386.41,658.68,378.26,648.42,376.57Z"/><path class="cls-3" d="M625.79,428.21a12.53,12.53,0,0,1-12.13-9.49l-8.06-31.53c-.17-.68-.53-1.66-.93-2.77-1.38-3.84-2.4-6.94-1.85-8.84,1.41-4.9,34.59-2.12,45.81-.28,10.74,1.77,36.47,10.5,47,14.17a7.74,7.74,0,0,1,4.12,11.27l-12.46,21.17A12.57,12.57,0,0,1,674.71,428c-14-2-30.47-3.51-46.22-.07A12.53,12.53,0,0,1,625.79,428.21Zm-20.54-51.73c-.2,1.41,1.07,4.93,1.85,7.07.43,1.2.81,2.26,1,3l8,31.53a10,10,0,0,0,11.79,7.32c16.14-3.53,32.88-2,47.13,0a10,10,0,0,0,10-4.84l12.47-21.17a5.18,5.18,0,0,0-2.76-7.53c-10.5-3.65-36.07-12.32-46.61-14.06C631.52,375.1,608.07,374.7,605.25,376.48Z"/><polygon class="cls-5" points="741.38 472.82 647 490.25 641.52 485.74 674.99 288.21 774.84 275.28 780.65 278.99 741.38 472.82"/><path class="cls-5" d="M646.64,491.63l-6.51-5.37.12-.73,33.62-198.48,101.27-13.11,7,4.44-.18.86L742.47,473.92Zm-3.72-6.41,4.43,3.66,92.94-17.17L779.21,279.6l-4.67-3L676.1,289.36Z"/><polygon class="cls-2" points="747.5 477.32 647.64 490.25 681.11 292.71 780.96 279.79 747.5 477.32"/><path class="cls-2" d="M646.08,491.75l.29-1.71L680,291.56l102.53-13.27-.29,1.71L748.61,478.48Zm36.14-197.88-33,194.88,97.18-12.58,33-194.88Z"/><path class="cls-4" d="M727.39,384.55l36.34-6.7c2.21-.41,4,1.53,3.91,4.28l0,1c-.07,2.75-2,5.22-4.15,5.45l-36.27,3.83c-1.7.18-3-1.36-3-3.47S725.69,384.86,727.39,384.55Z"/><path class="cls-4" d="M726.93,393.7a3.67,3.67,0,0,1-2.5-1,5,5,0,0,1-1.47-3.82c.06-2.73,1.9-5.19,4.19-5.61l36.34-6.7a4.25,4.25,0,0,1,3.58.95,5.83,5.83,0,0,1,1.86,4.63l0,1c-.09,3.39-2.47,6.4-5.31,6.7l-36.27,3.84Zm.69-7.89c-1.09.21-2,1.64-2.09,3.14a2.45,2.45,0,0,0,.64,1.86,1.11,1.11,0,0,0,.89.3l36.27-3.83c1.55-.16,2.95-2.13,3-4.21l0-1a3.32,3.32,0,0,0-1-2.61,1.7,1.7,0,0,0-1.44-.38Z"/><path class="cls-4" d="M725.94,428.59l26.8-.18c2.21,0,4.47-2.17,5-4.78l0-.18c.56-2.7-.92-4.78-3.24-4.56l-27.14,2.6a4.67,4.67,0,0,0-3.67,3.7C723.35,427.1,724.31,428.6,725.94,428.59Z"/><path class="cls-4" d="M725.92,429.88a3.35,3.35,0,0,1-2.68-1.25,4.37,4.37,0,0,1-.76-3.7,5.9,5.9,0,0,1,4.81-4.72l27.14-2.6A4.12,4.12,0,0,1,758,419a5.39,5.39,0,0,1,1,4.76c-.71,3.42-3.46,6-6.3,6l-26.81.18Zm29-9.72h-.22l-27.13,2.61a3.37,3.37,0,0,0-2.53,2.68,1.86,1.86,0,0,0,.22,1.54,1,1,0,0,0,.69.3l26.81-.18c1.59,0,3.35-1.76,3.76-3.75a3.06,3.06,0,0,0-.41-2.7A1.51,1.51,0,0,0,754.89,420.16Z"/><path class="cls-4" d="M721.93,418.14l37-1.56c1.82-.08,3.65-2.11,4.08-4.53l.17-1c.44-2.48-.77-4.38-2.67-4.17l-37.37,4.2c-1.41.16-2.8,1.76-3.16,3.63S720.49,418.2,721.93,418.14Z"/><path class="cls-4" d="M721.85,419.43a3,3,0,0,1-2.3-1.06,4.56,4.56,0,0,1-.8-3.87c.47-2.43,2.31-4.43,4.28-4.66l37.37-4.2a3.44,3.44,0,0,1,3,1.09,5.26,5.26,0,0,1,1.09,4.58l-.17,1c-.53,3-2.86,5.5-5.3,5.6l-37,1.55-.06-1.28.06,1.28Zm39-11.24-37.52,4.21a3.18,3.18,0,0,0-2,2.59,2.06,2.06,0,0,0,.23,1.7.42.42,0,0,0,.37.16l37-1.56c1.07,0,2.51-1.48,2.86-3.47l.17-.95a2.81,2.81,0,0,0-.43-2.38A.88.88,0,0,0,760.83,408.19Z"/><path class="cls-4" d="M722.37,406.4l41.74-4.63c2.31-.26,4.25-2.93,4.3-5.93s-1.84-5.16-4.17-4.74l-41.75,7.54c-1.59.29-2.88,2.19-2.92,4.3S720.78,406.58,722.37,406.4Z"/><path class="cls-4" d="M722.12,407.7a3.45,3.45,0,0,1-2.34-.92,5.06,5.06,0,0,1-1.49-3.86c0-2.76,1.75-5.15,4-5.55L764,389.83a4.4,4.4,0,0,1,3.66,1,6.39,6.39,0,0,1,2,5c-.06,3.64-2.51,6.86-5.45,7.19l-41.74,4.63A2.55,2.55,0,0,1,722.12,407.7Zm42.7-15.36-.35,0-41.75,7.54c-.86.15-1.83,1.44-1.86,3a2.57,2.57,0,0,0,.65,1.91.89.89,0,0,0,.72.25L764,400.49c1.64-.18,3.11-2.36,3.15-4.67a3.9,3.9,0,0,0-1.12-3A1.78,1.78,0,0,0,764.82,392.34Z"/><path class="cls-6" d="M230.31,378.3v52.26a20.65,20.65,0,0,1-20.67,20.65H191a24.54,24.54,0,0,1-24.47-24.46V382.09A24.55,24.55,0,0,1,191,357.63h18.61A20.66,20.66,0,0,1,230.31,378.3Z"/><path class="cls-6" d="M209.64,452.5H191a25.79,25.79,0,0,1-25.76-25.75V382.09A25.79,25.79,0,0,1,191,356.34h18.61a22,22,0,0,1,22,22v52.26A22,22,0,0,1,209.64,452.5ZM191,358.91a23.21,23.21,0,0,0-23.18,23.18v44.66A23.2,23.2,0,0,0,191,449.92h18.61A19.39,19.39,0,0,0,229,430.56V378.3a19.41,19.41,0,0,0-19.38-19.39Z"/><path class="cls-6" d="M565.53,382.09v44.66a24.54,24.54,0,0,1-24.47,24.46H522.45a20.66,20.66,0,0,1-20.67-20.65V378.3a20.68,20.68,0,0,1,20.67-20.67h18.61A24.55,24.55,0,0,1,565.53,382.09Z"/><path class="cls-6" d="M541.06,452.5H522.45a22,22,0,0,1-22-21.94V378.3a22,22,0,0,1,22-22h18.61a25.79,25.79,0,0,1,25.76,25.75v44.66A25.79,25.79,0,0,1,541.06,452.5Zm-18.61-93.59a19.41,19.41,0,0,0-19.38,19.39v52.26a19.39,19.39,0,0,0,19.38,19.36h18.61a23.2,23.2,0,0,0,23.18-23.17V382.09a23.21,23.21,0,0,0-23.18-23.18Z"/><path class="cls-3" d="M530.07,425.79l-22.94,51.46-44.52,99.9c-16.69,37.45-53.55,62.28-94.56,62.58h-1.93c-41-.3-77.87-25.13-94.56-62.58L227,477.25,204.1,425.79c-26.31-45.57,6.59-102.51,59.18-102.51H470.89C523.48,323.28,556.38,380.22,530.07,425.79Z"/><path class="cls-3" d="M368.05,641h-1.93c-41.15-.3-78.72-25.16-95.74-63.34L202.93,426.31A69.61,69.61,0,0,1,263.28,322H470.89a69.63,69.63,0,0,1,60.33,104.38L463.79,577.68C446.77,615.86,409.2,640.72,368.05,641ZM263.28,324.57a67,67,0,0,0-58.06,100.57l67.51,151.49c16.61,37.26,53.27,61.52,93.4,61.81h1.92c40.12-.29,76.78-24.55,93.39-61.81L529,425.14a67,67,0,0,0-58.06-100.57Z"/><path class="cls-6" d="M526.94,431.67l-21.23,48.62a4.47,4.47,0,0,1-4.1,2.68H421.22a4.47,4.47,0,0,1-4.46-4.47V422.09a4.47,4.47,0,0,0-4.47-4.47H315.2a4.47,4.47,0,0,0-4.46,4.47V478.5a4.47,4.47,0,0,1-4.47,4.47H232.94a4.47,4.47,0,0,1-4.1-2.68l-21.23-48.62-.16-.33C181.82,385.8,214.05,329,265.53,329H469c51.48,0,83.71,56.8,58.09,102.34C527.05,431.45,527,431.56,526.94,431.67Z"/><path class="cls-6" d="M501.61,484.26H421.23a5.76,5.76,0,0,1-5.76-5.76V422.09a3.19,3.19,0,0,0-3.18-3.18H315.2a3.19,3.19,0,0,0-3.18,3.18V478.5a5.76,5.76,0,0,1-5.75,5.76H232.94a5.77,5.77,0,0,1-5.28-3.45l-21.23-48.63a70.12,70.12,0,0,1,.48-70.52c12.43-21.26,34.34-34,58.62-34H469c24.28,0,46.19,12.69,58.62,34a70,70,0,0,1,.59,70.31l-.11.21-21.23,48.63A5.77,5.77,0,0,1,501.61,484.26ZM315.2,416.33h97.09a5.77,5.77,0,0,1,5.75,5.76V478.5a3.19,3.19,0,0,0,3.19,3.18h80.38a3.19,3.19,0,0,0,2.92-1.91l21.23-48.62.21-.43a67.44,67.44,0,0,0-.55-67.76A64.87,64.87,0,0,0,469,330.29H265.53c-23.35,0-44.43,12.21-56.39,32.67a67.43,67.43,0,0,0-.57,67.75c.08.15.15.3.22.45L230,479.77a3.19,3.19,0,0,0,2.92,1.91h73.33a3.19,3.19,0,0,0,3.18-3.18V422.09A5.77,5.77,0,0,1,315.2,416.33Z"/><path class="cls-7" d="M230.31,378.3v52.26a20.65,20.65,0,0,1-20.67,20.65H207.9l-10.65-23.89a67.62,67.62,0,0,1,.82-69.69h11.57A20.66,20.66,0,0,1,230.31,378.3Z"/><path class="cls-7" d="M209.64,452.5h-2.58l-11-24.66A68.53,68.53,0,0,1,197,357l.38-.62h12.29a22,22,0,0,1,22,22v52.26A22,22,0,0,1,209.64,452.5Zm-.9-2.58h.9A19.39,19.39,0,0,0,229,430.56V378.3a19.41,19.41,0,0,0-19.38-19.39H198.8a66,66,0,0,0-.44,67.76Z"/><path class="cls-7" d="M536.54,426.54l-11,24.67h-1.95a20.66,20.66,0,0,1-20.67-20.65V378.3a20.68,20.68,0,0,1,20.67-20.67h12.6A67.68,67.68,0,0,1,536.54,426.54Z"/><path class="cls-7" d="M526.37,452.5H523.6a22,22,0,0,1-22-21.94V378.3a22,22,0,0,1,22-22h13.33l.37.63a68.78,68.78,0,0,1,.38,70.15Zm-2.77-93.59a19.41,19.41,0,0,0-19.39,19.39v52.26a19.39,19.39,0,0,0,19.39,19.36h1.1l10.72-24a66.23,66.23,0,0,0,0-67Z"/><path class="cls-8" d="M530.07,425.79l-22.94,51.46H423.69a1.46,1.46,0,0,1-1.46-1.45V416.11a4.2,4.2,0,0,0-4.2-4.2H308.94a4.21,4.21,0,0,0-4.21,4.2V475.8a1.45,1.45,0,0,1-1.46,1.45H227L204.1,425.79c-26.31-45.57,6.59-102.51,59.18-102.51H470.89C523.48,323.28,556.38,380.22,530.07,425.79Z"/><path class="cls-8" d="M508,478.54H423.69A2.74,2.74,0,0,1,421,475.8V416.11a2.92,2.92,0,0,0-2.92-2.92H308.94a2.92,2.92,0,0,0-2.92,2.92V475.8a2.75,2.75,0,0,1-2.75,2.74H226.2l-23.27-52.23A69.61,69.61,0,0,1,263.28,322H470.89a69.63,69.63,0,0,1,60.33,104.38ZM227.87,476h75.4l.17-59.86a5.5,5.5,0,0,1,5.5-5.49H418a5.49,5.49,0,0,1,5.49,5.49V475.8l82.78.16L529,425.14a67,67,0,0,0-58.06-100.57H263.28a67,67,0,0,0-58.06,100.57Z"/><path class="cls-6" d="M410,506.76a6.5,6.5,0,0,1-6.5,6.49H324.59a4.78,4.78,0,0,1-4.87-4.61c0-.05.86-73.25.86-73.25a9.34,9.34,0,0,1,9-9.22l75.89-2.81a4.33,4.33,0,0,1,3.88,2.11,4.25,4.25,0,0,1,.62,2.22Z"/><path class="cls-6" d="M403.46,514.54H324.59a6,6,0,0,1-6.16-5.9l.86-73.27a10.62,10.62,0,0,1,10.23-10.49l75.89-2.81a5.62,5.62,0,0,1,5.83,5.62v79.07A7.79,7.79,0,0,1,403.46,514.54Zm2.16-89.9-76,2.82a8,8,0,0,0-7.75,7.94L321,508.61a3.51,3.51,0,0,0,3.58,3.35h78.87a5.21,5.21,0,0,0,5.21-5.2V427.69a3.05,3.05,0,0,0-3.05-3.05Z"/><rect class="cls-3" x="319.83" y="423.35" width="87.65" height="86.75" rx="1.19"/><path class="cls-6" d="M403.8,511.4H323.51a5,5,0,0,1-5-5V427a5,5,0,0,1,5-5H403.8a5,5,0,0,1,5,5v79.39A5,5,0,0,1,403.8,511.4Zm-80.29-86.76a2.4,2.4,0,0,0-2.39,2.4v79.39a2.39,2.39,0,0,0,2.39,2.39H403.8a2.39,2.39,0,0,0,2.39-2.39V427a2.4,2.4,0,0,0-2.39-2.4Z"/><path class="cls-4" d="M252,19.47a174.52,174.52,0,0,0-8.8,18.78c-2.6,6.42-4.92,12.94-6.87,19.55a206.95,206.95,0,0,0-7.93,40.31l-9.14-1.2A212.24,212.24,0,0,1,224,76.06a209.11,209.11,0,0,1,6.82-20.14c2.56-6.6,5.47-13,8.65-19.33A180.28,180.28,0,0,1,250,18.25Z"/><path class="cls-4" d="M229.5,99.55,217.7,98l.26-1.34a212.64,212.64,0,0,1,4.84-21,206,206,0,0,1,6.85-20.25c2.49-6.4,5.41-12.94,8.7-19.44A177.89,177.89,0,0,1,249,17.53l.7-1.05,4,2.55-.59,1.06a176.75,176.75,0,0,0-8.73,18.65c-2.65,6.53-4.95,13.07-6.83,19.43a205.08,205.08,0,0,0-7.88,40.07Zm-8.76-3.74,6.48.85a192.67,192.67,0,0,1,2.83-19.1,201.29,201.29,0,0,1,5-20.13c1.91-6.43,4.23-13,6.91-19.66,2.4-5.92,4.79-11.15,7.24-15.88-2.84,4.52-5.6,9.46-8.55,15.28-3.25,6.43-6.14,12.89-8.6,19.22a205.89,205.89,0,0,0-6.78,20C223.31,83,221.88,89.86,220.74,95.81Z"/><path class="cls-4" d="M264.3,17.45a9.14,9.14,0,1,1-6.67-11.08A9.15,9.15,0,0,1,264.3,17.45Z"/><path class="cls-4" d="M255.42,25.68a11,11,0,0,1-2.52-.3,10.48,10.48,0,1,1,2.52.3Zm0-18.29a7.86,7.86,0,0,0-6.72,11.91,7.76,7.76,0,0,0,4.84,3.57,7.86,7.86,0,1,0,3.79-15.25A8.38,8.38,0,0,0,255.41,7.39Z"/><path class="cls-9" d="M231.83,53.5c1.67.66,3.44,1.31,5.19,1.93l.34-1.09c-1.67-.6-3.42-1.24-5.1-1.91C232.11,52.78,232,53.14,231.83,53.5Z"/><path class="cls-9" d="M237.85,57.09l-1.26-.45c-1.77-.63-3.56-1.28-5.24-2l-1.2-.48,1.4-3.45,1.19.47c1.66.67,3.4,1.3,5,1.9l1.17.41Z"/><path class="cls-9" d="M230.69,81.1c.07-.4.15-.81.23-1.21-2.81.62-5.62,1.24-8.43,1.83-.1.41-.19.82-.29,1.23Q226.45,82,230.69,81.1Z"/><path class="cls-9" d="M220.46,84.63l1-4,.78-.17c2.81-.59,5.62-1.21,8.42-1.83l1.91-.43-.75,4-.83.18q-4.25.94-8.51,1.85Z"/><path class="cls-9" d="M237.72,40.21c1.36.49,2.73,1,4.11,1.42.14-.35.28-.7.41-1-1.34-.45-2.68-.93-4-1.41Z"/><path class="cls-9" d="M242.59,43.24l-1.16-.39c-1.39-.46-2.77-.93-4.15-1.42l-1.35-.49,1.64-3.36,1.56.55c1.17.42,2.34.84,3.52,1.23l1.28.43Z"/><path class="cls-9" d="M235.53,60.42c.12-.4.23-.81.35-1.21-2.22.28-4.43.61-6.64.95l-.45,1.2C231,61,233.28,60.71,235.53,60.42Z"/><path class="cls-9" d="M226.84,63l1.45-4,.76-.12c2.24-.33,4.45-.67,6.67-1l1.95-.25-1.14,3.91-.83.11c-2.24.29-4.48.59-6.71.93Z"/><path class="cls-9" d="M245.3,25.89l2.64,1.47c.17-.35.34-.69.5-1l-2.56-1.42Z"/><polygon class="cls-9" points="248.51 29.15 243.53 26.38 245.41 23.17 250.13 25.79 248.51 29.15"/><path class="cls-9" d="M240.82,34l-.63,1.21,4.41-.44.5-1.2Z"/><polygon class="cls-9" points="237.97 36.77 240 32.83 247.15 32.11 245.49 36.02 237.97 36.77"/><path class="cls-9" d="M225.73,70.36c-.11.36-.22.73-.34,1.09l2.13.64,4.68,1.43.24-1.12L227.85,71Z"/><polygon class="cls-9" points="233.16 75.16 223.78 72.31 224.89 68.76 233.96 71.52 233.16 75.16"/><path class="cls-9" d="M234.9,46.23c-.17.4-.34.81-.52,1.21l5.51-.6c.14-.4.29-.8.44-1.2Z"/><polygon class="cls-9" points="232.3 48.96 234.03 45.03 242.25 44.14 240.83 48.03 232.3 48.96"/><path class="cls-4" d="M597.19,105.25a175.31,175.31,0,0,1-1,20.72c-.7,6.88-1.71,13.73-3.07,20.49a203.2,203.2,0,0,1-5,20,201,201,0,0,1-6.89,19.3l8.63,3.22a210.62,210.62,0,0,0,5.51-20.67,208.44,208.44,0,0,0,3.4-21c.82-7,1.27-14.08,1.41-21.13a180,180,0,0,0-.72-21.14Z"/><path class="cls-4" d="M590.7,190.69l-11.15-4.16.49-1.23a204.86,204.86,0,0,0,11.79-39.09c1.32-6.51,2.34-13.36,3.06-20.37a174.55,174.55,0,0,0,1-20.57l0-1.21,4.75-.37.12,1.25a178.75,178.75,0,0,1,.72,21.29c-.13,7.28-.61,14.43-1.41,21.26a211.64,211.64,0,0,1-3.42,21.12c-1.49,7.37-3.64,14.64-5.54,20.78ZM582.93,185l6.11,2.28c1.78-5.78,3.71-12.47,5.07-19.24a201.91,201.91,0,0,0,3.39-20.89c.79-6.75,1.26-13.81,1.4-21,.12-6.53,0-12.19-.41-17.51,0,5.34-.39,11.07-1,17.42-.73,7.09-1.77,14-3.1,20.61a201.86,201.86,0,0,1-5,20.15C587.52,173.22,585.2,179.34,582.93,185Z"/><path class="cls-4" d="M587.23,97.69A9.14,9.14,0,1,0,598.31,91,9.14,9.14,0,0,0,587.23,97.69Z"/><path class="cls-4" d="M596.1,110.33a10.33,10.33,0,0,1-2.51-.31A10.44,10.44,0,0,1,586,97.38a10.43,10.43,0,0,1,20.25,5A10.45,10.45,0,0,1,596.1,110.33Zm0-18.29a7.86,7.86,0,0,0-1.88,15.48,7.87,7.87,0,0,0,9.52-5.73,7.78,7.78,0,0,0-.89-5.94A7.87,7.87,0,0,0,598,92.27,8.38,8.38,0,0,0,596.09,92Z"/><path class="cls-9" d="M599.05,144.74c-1.78-.19-3.65-.45-5.49-.72l.21-1.13c1.75.26,3.6.51,5.4.71Z"/><path class="cls-9" d="M600.2,146.16l-1.29-.14c-1.8-.19-3.68-.45-5.54-.73L592,145.1l.7-3.66,1.23.18c1.73.25,3.57.5,5.35.69l1.27.14Z"/><path class="cls-9" d="M587.14,169.67l.36-1.18q3.29,2.79,6.59,5.56c-.1.41-.21.82-.31,1.22Q590.43,172.49,587.14,169.67Z"/><path class="cls-9" d="M594.53,177.58,593,176.26q-3.33-2.79-6.65-5.61l-.65-.56,1.17-3.78,1.52,1.19q3.28,2.81,6.58,5.57l.61.51Z"/><path class="cls-9" d="M600.06,130.24c-1.43-.2-2.86-.43-4.29-.67l.12-1.11c1.4.23,2.81.43,4.21.63C600.09,129.48,600.08,129.86,600.06,130.24Z"/><path class="cls-9" d="M601.31,131.72l-1.43-.2c-1.45-.21-2.89-.44-4.33-.68l-1.21-.2.43-3.68,1.34.23c1.22.2,2.45.38,3.69.56l1.63.23Z"/><path class="cls-9" d="M592.54,149.13c.09-.42.17-.83.26-1.24,1.82,1.29,3.62,2.62,5.42,4-.05.42-.11.84-.17,1.27C596.23,151.76,594.39,150.44,592.54,149.13Z"/><path class="cls-9" d="M599,155.43l-1.74-1.29q-2.71-2-5.49-4l-.68-.49.83-4,1.6,1.14c1.83,1.29,3.64,2.63,5.45,4l.61.45Z"/><path class="cls-9" d="M600.07,114l-3,.06c0-.38,0-.76,0-1.14l2.93-.06Z"/><polygon class="cls-9" points="595.69 115.42 595.85 111.69 601.24 111.58 601.41 115.3 595.69 115.42"/><path class="cls-9" d="M600.21,123.34c0,.45,0,.91,0,1.37l-3.69-2.46c0-.43.09-.86.12-1.3Z"/><polygon class="cls-9" points="601.45 127.08 595.16 122.9 595.51 118.66 601.51 122.65 601.45 127.08"/><path class="cls-9" d="M596.55,162.49c-.07.38-.14.75-.22,1.13l-2.17-.43-4.81-.93c.11-.37.21-.73.31-1.1l4.72.91Z"/><polygon class="cls-9" points="597.38 165.04 593.43 164.36 587.74 163.27 588.73 159.67 598.04 161.47 597.38 165.04"/><path class="cls-9" d="M599.73,136.88c0,.44-.07.87-.1,1.31l-4.58-3.1c.06-.43.11-.85.17-1.27Z"/><polygon class="cls-9" points="600.76 140.51 593.66 135.7 594.23 131.59 601.07 136.23 600.76 140.51"/><path class="cls-6" d="M257.76,131.47,248,170.68a31,31,0,0,1-25.73,23.24,30.58,30.58,0,0,1-11.89-.59c-16.66-4.14-32.21-22.92-28.08-39.56l9.74-39.21c3.91-15.74,24-23.93,40.3-21.26.93.14,1.85.32,2.76.55a31,31,0,0,1,22.64,37.62Z"/><path class="cls-6" d="M217.88,195.54a32.45,32.45,0,0,1-7.79-1c-8.39-2.09-16.83-7.91-22.56-15.57-6.11-8.17-8.46-17.49-6.46-25.55l9.74-39.21c4.16-16.71,24.95-25,41.75-22.22a28.55,28.55,0,0,1,2.87.57A32.35,32.35,0,0,1,259,131.78L249.27,171a32.21,32.21,0,0,1-26.8,24.21A30.63,30.63,0,0,1,217.88,195.54ZM226.21,94.1c-14.12,0-29.61,7.56-32.9,20.77l-9.74,39.21c-1.82,7.31.38,15.84,6,23.38,5.39,7.21,13.28,12.67,21.12,14.62a29.26,29.26,0,0,0,11.39.57,29.65,29.65,0,0,0,24.67-22.28l9.74-39.21a29.78,29.78,0,0,0-21.7-36.06,26.2,26.2,0,0,0-2.64-.52A36.59,36.59,0,0,0,226.21,94.1Z"/><path class="cls-6" d="M602.55,223l-7,28.11A36.9,36.9,0,0,1,551,278a31.08,31.08,0,0,1-22.67-37.63l9.74-39.21a31.07,31.07,0,0,1,37.65-22.64,34.41,34.41,0,0,1,5.49,1.86A36.87,36.87,0,0,1,602.55,223Z"/><path class="cls-6" d="M559.88,280.34a38,38,0,0,1-9.17-1.13A32.36,32.36,0,0,1,527.1,240l9.74-39.21A32.36,32.36,0,0,1,576,177.23a35.16,35.16,0,0,1,5.71,1.93,38.31,38.31,0,0,1,22,44.18l-7,28.11A38.13,38.13,0,0,1,559.88,280.34Zm8.31-101.5a29.83,29.83,0,0,0-28.85,22.59l-9.74,39.21a29.83,29.83,0,0,0,14.15,33,29.49,29.49,0,0,0,7.58,3,35.53,35.53,0,0,0,43-25.88l7-28.11a35.72,35.72,0,0,0-20.57-41.19,33,33,0,0,0-5.3-1.8A29.89,29.89,0,0,0,568.19,178.84Z"/><path class="cls-7" d="M257.76,131.47,248,170.68a31,31,0,0,1-25.73,23.24c-7.75-20-9.42-42.2-3.45-66.23A145.19,145.19,0,0,1,232.36,93.3c.93.14,1.85.32,2.76.55a31,31,0,0,1,22.64,37.62Z"/><path class="cls-7" d="M221.46,195.34l-.37-1c-8.15-21-9.33-43.56-3.5-67a146.47,146.47,0,0,1,13.63-34.69l.43-.79.89.13a27.85,27.85,0,0,1,2.89.57A32.35,32.35,0,0,1,259,131.78L249.27,171a32.21,32.21,0,0,1-26.8,24.21ZM233.05,94.72a144,144,0,0,0-13,33.28c-5.61,22.56-4.59,44.25,3,64.49a29.65,29.65,0,0,0,23.65-22.12l9.74-39.21a29.78,29.78,0,0,0-21.7-36.06C234.23,95,233.64,94.83,233.05,94.72Z"/><path class="cls-7" d="M577.31,217.93c-6,24-17.88,42.87-34.2,56.86a31,31,0,0,1-14.76-34.46l9.74-39.21a31.07,31.07,0,0,1,37.65-22.64,34.41,34.41,0,0,1,5.49,1.86A140,140,0,0,1,577.31,217.93Z"/><path class="cls-7" d="M543.26,276.36l-.78-.45A32.4,32.4,0,0,1,527.1,240l9.74-39.21A32.36,32.36,0,0,1,576,177.23a35.16,35.16,0,0,1,5.71,1.93l.75.33,0,.82a141.51,141.51,0,0,1-4,37.94c-5.83,23.47-17.48,42.83-34.61,57.52Zm24.93-97.52a29.83,29.83,0,0,0-28.85,22.59l-9.74,39.21A29.82,29.82,0,0,0,543,273.21c16.34-14.26,27.47-33,33.09-55.59A138.92,138.92,0,0,0,580,181.2a33.44,33.44,0,0,0-4.54-1.47A29.89,29.89,0,0,0,568.19,178.84Z"/><path class="cls-3" d="M570.24,215.59C550.09,296.67,462.11,318.7,366.74,295S204.66,210.84,224.8,129.76C241.87,61.06,313.86,3,393.46,1.32a165.88,165.88,0,0,1,43.47,4.84A167.78,167.78,0,0,1,477.26,22C548,60.79,587.36,146.69,570.24,215.59Z"/><path class="cls-3" d="M436,305.35c-21.76,0-45.13-3-69.52-9.1C317.08,284,277.34,262.74,251.5,234.77c-27.9-30.18-37.57-66.6-27.95-105.32C241.18,58.52,315.8,1.68,393.43,0a167.41,167.41,0,0,1,43.8,4.87,169.24,169.24,0,0,1,40.66,15.94C548,59.31,589.11,145,571.49,215.9l-1.25-.31,1.25.31c-9.62,38.69-35.33,66.32-74.37,79.9C478.85,302.16,458.24,305.35,436,305.35ZM397,2.58c-1.16,0-2.33,0-3.49,0C317,4.23,243.41,60.22,226.06,130.07c-9.41,37.83.05,73.44,27.33,103,25.5,27.6,64.8,48.6,113.66,60.73s93.59,12,129.22-.38c38.18-13.29,63.32-40.29,72.72-78.09C586.34,145.44,545.78,61,476.65,23.11a166.76,166.76,0,0,0-40-15.7A164.68,164.68,0,0,0,397,2.58Z"/><path class="cls-6" d="M477.26,22l-3.37,13.58a14.86,14.86,0,0,1-18,10.84L401,32.76a14.87,14.87,0,0,1-10.84-18l3.34-13.43a165.88,165.88,0,0,1,43.47,4.84A167.78,167.78,0,0,1,477.26,22Z"/><path class="cls-6" d="M459.47,48.13a15.83,15.83,0,0,1-3.9-.48L400.65,34a16.18,16.18,0,0,1-11.78-19.57L392.45.06l1,0a167.41,167.41,0,0,1,43.8,4.87,169.24,169.24,0,0,1,40.66,15.94l.86.48-3.61,14.54A16.18,16.18,0,0,1,459.47,48.13Zm-65-45.53-3.1,12.46a13.6,13.6,0,0,0,9.91,16.45l54.91,13.64a13.6,13.6,0,0,0,16.45-9.9l3.14-12.61A166.44,166.44,0,0,0,436.62,7.41,163.67,163.67,0,0,0,394.47,2.6Z"/><path class="cls-9" d="M519.3,66.61a28.09,28.09,0,0,0-15.67-6.72c-4.47-.38-8.21.46-5.3,5.31,5.84,9.69,31.94,32.67,38.33,44.86C542.74,121.64,554.51,96.38,519.3,66.61Z"/><path class="cls-9" d="M540,114.22c-1.09,0-2.89-.54-4.48-3.56-3.45-6.59-13.16-16.78-21.73-25.78-7.14-7.49-13.88-14.57-16.56-19-1.32-2.19-1.57-4-.73-5.33,1-1.62,3.36-2.25,7.24-1.93a29.17,29.17,0,0,1,16.39,7c23.82,20.15,26.16,38,24.06,44.56-.76,2.41-2.18,3.87-3.91,4ZM501.88,61.1c-2.55,0-3.1.64-3.19.79-.27.43,0,1.42.75,2.64,2.53,4.21,9.18,11.19,16.21,18.58,9.11,9.56,18.53,19.45,22.15,26.35.88,1.68,1.78,2.25,2.25,2.18.62,0,1.28-.93,1.69-2.23,2.22-7-2.14-24-23.28-41.82a26.64,26.64,0,0,0-14.94-6.42C502.9,61.12,502.35,61.1,501.88,61.1Z"/><path class="cls-9" d="M588.91,193.72s12.56,5.18,9.53,22.1-11.06,22-10.24,12.77,1.16-15.32,1.7-21.07-2.65-10.68-2.44-12.69S588.91,193.72,588.91,193.72Z"/><path class="cls-9" d="M589.8,234.43l-.34,0c-1.13-.15-3-1.12-2.54-5.92s.71-8.61,1-12.06.46-6.21.73-9c.32-3.32-.73-6.35-1.56-8.78a10.09,10.09,0,0,1-.88-3.91,2.57,2.57,0,0,1,1.34-2.3,2.17,2.17,0,0,1,2,.19c1.4.66,13.17,6.69,10.17,23.46C597.84,226.53,593.54,234.43,589.8,234.43Zm-1.06-39.37a12.39,12.39,0,0,0,.75,2.71,23.13,23.13,0,0,1,1.7,9.87c-.27,2.8-.49,5.68-.73,9-.27,3.46-.56,7.37-1,12.09-.23,2.6.36,3.16.36,3.17,1,0,5.25-4.65,7.33-16.27C599.74,201.24,590.62,196,588.74,195.06Z"/><path class="cls-6" d="M535,228.2c-13.62,54.82-62.9,55.61-124.67,42.4l2.1-20.67-43.37-10.78-7.78,19.17C301.8,241.09,259.42,217,272.83,163.06c15.29-61.55,46.78-131.21,161.85-102.62S550.29,166.65,535,228.2Z"/><path class="cls-6" d="M465.69,279.08c-17.31,0-36.34-3.09-55.63-7.22l-1.13-.24,2.1-20.71-41.2-10.24L362,259.88l-1.11-.32c-52.31-15.16-103.84-38.51-89.35-96.81,6.93-27.9,18.18-62.85,43.9-85.77,28-25,67.14-30.8,119.51-17.79,51.88,12.89,85.5,37.21,99.91,72.28,10.68,26,11.12,57.71,1.35,97L535,228.2l1.25.31C526.61,267.31,499.44,279.08,465.69,279.08Zm-54-9.5c55.25,11.71,108.07,14.5,122-41.69,9.63-38.78,9.23-70-1.23-95.44-14.09-34.27-47.11-58.08-98.15-70.76C382.88,48.9,344.55,54.53,317.2,78.91c-25.2,22.45-36.28,56.93-43.12,84.46-13.82,55.64,33.2,77.85,86.45,93.39l7.75-19.12L413.82,249Z"/><path class="cls-10" d="M531.38,226.28c-13.22,53.21-61.05,54-121,41.15l2-20.06-42.1-10.46-7.54,18.6c-57.74-16.72-98.87-40.07-85.85-92.46,14.84-59.73,45.4-127.34,157.08-99.6S546.22,166.54,531.38,226.28Z"/><path class="cls-9" d="M464.12,275.7c-16.81,0-35.28-3-54-7l-1.13-.24,2-20.1-39.93-9.92-7.55,18.64-1.12-.32c-50.79-14.71-100.81-37.39-86.74-94,6.72-27.07,17.65-61,42.62-83.26,27.23-24.26,65.18-29.91,116-17.28,88.19,21.92,120.35,75.69,98.31,164.39C523.27,264.27,496.89,275.7,464.12,275.7Zm-52.34-9.29c53.59,11.35,104.81,14,118.35-40.45l1.25.32-1.25-.32C551.75,139,520.21,86.2,433.7,64.7c-50-12.41-87.15-6.94-113.69,16.71-24.44,21.78-35.2,55.24-41.83,82-13.41,54,32.19,75.51,83.84,90.59l7.53-18.56,44.26,11Z"/><circle class="cls-4" cx="359.78" cy="136.08" r="37.16" transform="translate(147.34 456.76) rotate(-77.2)"/><path class="cls-4" d="M359.77,174.53a38.44,38.44,0,1,1,37.32-29.18A38.35,38.35,0,0,1,359.77,174.53Zm0-74.32a36,36,0,1,0,8.65,1.07A35.93,35.93,0,0,0,359.78,100.21Z"/><circle class="cls-11" cx="359.78" cy="136.08" r="29.15" transform="translate(159.31 464.37) rotate(-79.31)"/><path class="cls-12" d="M356.42,105.82a30.47,30.47,0,1,1-15.08,6A30.48,30.48,0,0,1,356.42,105.82Zm6.43,58a27.89,27.89,0,1,0-6.82-.09A28.33,28.33,0,0,0,362.85,163.79Z"/><circle class="cls-13" cx="364.57" cy="138.12" r="17.34" transform="translate(-23.22 98) rotate(-14.84)"/><path class="cls-13" d="M364.6,156.75a18.63,18.63,0,1,1,9.57-2.67A18.48,18.48,0,0,1,364.6,156.75Zm0-34.69a16.1,16.1,0,1,0,3.87.48A16.08,16.08,0,0,0,364.57,122.06Z"/><circle class="cls-4" cx="495.14" cy="169.72" r="37.16" transform="translate(-18.65 69.76) rotate(-7.91)"/><path class="cls-4" d="M495.13,208.17A38.45,38.45,0,1,1,532.45,179,38.35,38.35,0,0,1,495.13,208.17Zm-.06-74.33a35.91,35.91,0,1,0,8.72,1.07A36.07,36.07,0,0,0,495.07,133.84Z"/><circle class="cls-14" cx="494.4" cy="169.96" r="29.15"/><path class="cls-12" d="M495.13,200.16a30.44,30.44,0,1,1,29.55-23.1A30.32,30.32,0,0,1,495.13,200.16Zm0-58.32a28,28,0,1,0,6.77.84A27.79,27.79,0,0,0,495.09,141.84Z"/><circle class="cls-13" cx="499.93" cy="171.75" r="17.34" transform="translate(-24.97 234.29) rotate(-25.75)"/><path class="cls-13" d="M500,190.38a18.9,18.9,0,0,1-4.53-.55,18.62,18.62,0,1,1,4.53.55Zm0-34.68a16.05,16.05,0,1,0,8.27,29.8,16,16,0,0,0-4.4-29.33A16.13,16.13,0,0,0,499.93,155.7Z"/><path class="cls-5" d="M448,212.36a38.86,38.86,0,0,1-74.11-18.42Z"/><path class="cls-5" d="M412.7,236.28a40.18,40.18,0,0,1-40.1-42.41l.09-1.55,77.13,19.16-.64,1.41A40.15,40.15,0,0,1,412.7,236.28Zm-37.58-40.71a37.57,37.57,0,0,0,71,17.65Z"/><path class="cls-15" d="M431.85,208.34l-1.42,5.72a6.29,6.29,0,0,1-7.63,4.59l-29.59-7.35a6.29,6.29,0,0,1-4.59-7.62L390,198Z"/><path class="cls-15" d="M424.32,220.13a7.71,7.71,0,0,1-1.83-.23l-29.59-7.35a7.59,7.59,0,0,1-5.53-9.19l1.73-7,44.31,11-1.73,7A7.6,7.6,0,0,1,424.32,220.13ZM391,199.51,389.87,204a5,5,0,0,0,3.65,6.06l29.59,7.35a5,5,0,0,0,6.07-3.65l1.11-4.47Z"/><path class="cls-15" d="M450.16,342.69s27.44-5.34,45,8.38,20.58,29,13.72,29.73S484.46,366.31,475.31,364,442.54,351.83,450.16,342.69Z"/><path class="cls-15" d="M508.35,382.11c-4.25,0-10.9-4.19-17.92-8.61-5.65-3.56-11.49-7.24-15.43-8.22-7.44-1.86-24.63-8.66-27.27-16.73a6.79,6.79,0,0,1,1.44-6.69l.29-.35.45-.09c1.15-.22,28.22-5.29,46,8.64,13.48,10.54,19,22.46,17.31,28.32a4.79,4.79,0,0,1-4.24,3.7C508.78,382.1,508.57,382.11,508.35,382.11Zm-57.48-38.24a4.09,4.09,0,0,0-.69,3.88c2.05,6.28,17.42,13,25.44,15,4.34,1.08,10.36,4.87,16.18,8.54,6.38,4,13.62,8.56,16.9,8.19a2.24,2.24,0,0,0,2.05-1.83c1.23-4.33-3.05-15.13-16.42-25.6C478.71,339.86,454.51,343.27,450.87,343.87Z"/><path class="cls-4" d="M696.36,282.78c-5.14-35.94,29.51-116.91,31-120.34l1.83.79c-.36.83-35.9,83.89-30.85,119.27Z"/><path class="cls-4" d="M695.27,284.24l-.19-1.28c-5.18-36.27,29.6-117.59,31.08-121l.51-1.18,4.2,1.81-.51,1.18c-.36.83-35.76,83.55-30.75,118.57l.18,1.28Z"/><path class="cls-4" d="M733.2,163.26a4.08,4.08,0,1,1-4.08-4.08A4.08,4.08,0,0,1,733.2,163.26Z"/><path class="cls-4" d="M729.12,168.63a5.37,5.37,0,1,1,5.37-5.37A5.38,5.38,0,0,1,729.12,168.63Zm0-8.16a2.79,2.79,0,1,0,2.79,2.79A2.79,2.79,0,0,0,729.12,160.47Z"/><path class="cls-4" d="M706.28,285.92l-17.16,2a8.91,8.91,0,0,1,17.16-2Z"/><path class="cls-4" d="M687.62,289.36l.22-1.64a10.2,10.2,0,0,1,19.65-2.26l.59,1.55Zm10.34-7.9a8.65,8.65,0,0,0-.88.05,7.64,7.64,0,0,0-6.27,4.89l13.49-1.55A7.63,7.63,0,0,0,698,281.46Z"/><ellipse class="cls-8" cx="373.98" cy="731.35" rx="142.57" ry="25.32"/><path class="cls-8" d="M374,758.14c-69.83,0-144-9.39-144-26.79s74.21-26.79,144-26.79S518,714,518,731.35,443.81,758.14,374,758.14Zm0-50.64c-84.41,0-141.1,12.33-141.1,23.85S289.57,755.2,374,755.2s141.1-12.33,141.1-23.85S458.38,707.5,374,707.5Z"/></g></g></svg>