<svg xmlns="http://www.w3.org/2000/svg" xmlns:xlink="http://www.w3.org/1999/xlink" viewBox="0 0 389.26 368.14"><defs><style>.cls-1{fill:#268baa;}.cls-2{fill:#11778e;}.cls-3{fill:#72bfe5;}.cls-4{fill:#011c22;}.cls-5{fill:#52abce;}.cls-6{fill:#3d96b2;}.cls-7{fill:#e1ebf8;}.cls-8{fill:#a8dbef;}.cls-9{fill:#1f566a;}.cls-10{fill:url(#radial-gradient);}.cls-11{fill:#0b4751;}.cls-12{fill:#c5f7fe;}.cls-13{fill:url(#radial-gradient-2);}.cls-14{fill:#0b353f;}.cls-15{fill:#fff;}</style><radialGradient id="radial-gradient" cx="620.92" cy="-480.53" r="29.15" gradientTransform="translate(-184.51 304.53) scale(0.48 0.46)" gradientUnits="userSpaceOnUse"><stop offset="0" stop-color="#fff"/><stop offset="1" stop-color="#0b353f"/></radialGradient><radialGradient id="radial-gradient-2" cx="760.39" cy="-480.53" r="29.15" xlink:href="#radial-gradient"/></defs><title>Fichier 1</title><g id="Calque_2" data-name="Calque 2"><g id="Calque_1-2" data-name="Calque 1"><rect class="cls-1" x="138.6" y="150.29" width="20.44" height="25.62"/><path class="cls-1" d="M159.66,176.5H138V149.69h21.68Zm-20.43-1.19h19.19V150.88H139.23Z"/><path class="cls-2" d="M159,150.29v6.49a.65.65,0,0,1-.63.64c-3.06.18-6.17.26-9.31.26-3.34,0-6.64-.09-9.87-.29a.66.66,0,0,1-.63-.64v-6.46Z"/><path class="cls-2" d="M149.1,158.87c-3.41,0-6.75-.09-9.95-.29a1.87,1.87,0,0,1-1.79-1.83V149.1h22.93v7.68a1.88,1.88,0,0,1-1.81,1.83C155.47,158.78,152.31,158.87,149.1,158.87Zm-9.25-2.63a170.59,170.59,0,0,0,18,0v-4.79h-18Z"/><path class="cls-2" d="M159,163.75v6.58c-3.26.2-6.58.3-9.94.3q-5.34,0-10.5-.33v-6.55a.53.53,0,0,1,.54-.52H158.5A.53.53,0,0,1,159,163.75Z"/><path class="cls-2" d="M149.1,171.82c-3.63,0-7.18-.12-10.58-.33l-1.16-.08v-7.66a1.75,1.75,0,0,1,1.78-1.71H158.5a1.76,1.76,0,0,1,1.79,1.71v7.7l-1.17.07C155.9,171.72,152.53,171.82,149.1,171.82Zm-9.25-2.64a167.93,167.93,0,0,0,18,0v-4.79h-18Z"/><path class="cls-1" d="M62.14,208.79c-1,.39-2,.78-2.89,1.19a63,63,0,0,0-11.66,6.59,54.71,54.71,0,0,0-4.78,3.9l-.17.16c-.74.69-1.43,1.39-2.08,2.07q-.48.51-.93,1c-.66.74-1.27,1.48-1.85,2.21a40.19,40.19,0,0,0-3.44,5.16,32.2,32.2,0,0,0-4.39,13l-10.43-.5c0-.66.58-9.46,7.07-19.64a52.63,52.63,0,0,1,4.64-6.21,55.77,55.77,0,0,1,4.58-4.7c.32-.29.65-.59,1-.87q1.71-1.5,3.64-2.94c.33-.24.66-.5,1-.73,1.51-1.1,3.14-2.16,4.88-3.2a81.71,81.71,0,0,1,11.88-5.74l.94,2.21Z"/><path class="cls-1" d="M30.54,244.69l-11.66-.55,0-.59c0-.09.39-9.31,7.16-19.93a53,53,0,0,1,4.69-6.29,58.88,58.88,0,0,1,4.63-4.74c.32-.3.66-.6,1-.89,1.14-1,2.38-2,3.66-3l.26-.19c.26-.19.51-.38.77-.55,1.52-1.11,3.18-2.2,4.92-3.23A81.89,81.89,0,0,1,58,199l.57-.22L63,209.11l-.57.23c-1,.39-1.94.77-2.87,1.18A61.86,61.86,0,0,0,48,217.05a52.84,52.84,0,0,0-4.73,3.85l-.16.16c-.68.63-1.35,1.3-2.06,2l-.92,1c-.58.66-1.16,1.35-1.82,2.18a39.48,39.48,0,0,0-3.39,5.09,32.13,32.13,0,0,0-4.32,12.72ZM20.19,243l9.19.43a34.44,34.44,0,0,1,4.41-12.63,40.85,40.85,0,0,1,3.5-5.24c.67-.86,1.27-1.57,1.87-2.24.3-.34.61-.68.94-1,.72-.76,1.41-1.45,2.11-2.1l.2-.18a52.5,52.5,0,0,1,4.81-3.92A63.44,63.44,0,0,1,59,209.44c.76-.33,1.54-.66,2.34-1l-3.47-8.14a79.86,79.86,0,0,0-11.21,5.47c-1.7,1-3.32,2.07-4.83,3.17-.26.17-.5.35-.74.53l-.27.19c-1.25.94-2.46,1.92-3.59,2.91-.34.29-.67.57-1,.86a56.39,56.39,0,0,0-4.53,4.64,52.85,52.85,0,0,0-4.59,6.15A44.19,44.19,0,0,0,20.19,243Z"/><path class="cls-2" d="M60.56,209.19a62.53,62.53,0,0,0-10.93,6.08.52.52,0,0,1-.82-.34c-.39-3.31-.79-6.86-1.14-10.13a.49.49,0,0,1,.25-.48,81.3,81.3,0,0,1,11.59-5.57l.94,2.21Z"/><path class="cls-2" d="M49.31,216.55a1.68,1.68,0,0,1-.7-.14,1.7,1.7,0,0,1-1-1.35c-.39-3.31-.79-6.87-1.14-10.14a1.65,1.65,0,0,1,.84-1.61A82.12,82.12,0,0,1,59,197.65l1.16-.45,1.49,3.52.13,9.23-.74.32a61.62,61.62,0,0,0-10.71,6A1.89,1.89,0,0,1,49.31,216.55ZM49,205.11c.3,2.76.63,5.7.95,8.5a66,66,0,0,1,9.41-5.18l-.1-7.23-.38-.89A81.49,81.49,0,0,0,49,205.11Z"/><path class="cls-2" d="M37.63,226.13a40.06,40.06,0,0,0-3.29,5l-7.75-7.16A53.26,53.26,0,0,1,31,218a.37.37,0,0,1,.55,0l6.13,7.69A.33.33,0,0,1,37.63,226.13Z"/><path class="cls-2" d="M34.66,233,25,224.12l.52-.81a53.25,53.25,0,0,1,4.46-6,1.53,1.53,0,0,1,1.26-.56,1.59,1.59,0,0,1,1.23.59c1.87,2.33,4.23,5.29,6.14,7.69a1.46,1.46,0,0,1,0,1.82,39.86,39.86,0,0,0-3.2,4.82Zm-6.48-9.3L34,229.16c.67-1.1,1.41-2.17,2.19-3.22l-5-6.3C30.14,221,29.12,222.32,28.18,223.74Z"/><path class="cls-2" d="M43.67,219.07a.85.85,0,0,1-.26.81c-.21.2-.41.39-.6.59l-.17.16-2,2a.1.1,0,0,1-.16,0L37,212.72a.87.87,0,0,1,.26-1c.91-.78,3.35-2.66,4-3.16a.12.12,0,0,1,.18.07C42.22,212.2,43.05,216.1,43.67,219.07Z"/><path class="cls-2" d="M41.08,223.9l-.77-.12a1.31,1.31,0,0,1-1-.84l-3.5-9.83a2,2,0,0,1,.61-2.25c.94-.81,3.42-2.72,4.1-3.22l.55-.41.75.22a1.32,1.32,0,0,1,.86,1l2.19,10.42a2,2,0,0,1-.61,1.89l-.55.54-.12.12c-.69.67-1.71,1.69-2,2Zm-2.84-11.39,2.84,8,.64-.64.22-.21.48-.48-1.8-8.52C39.78,211.27,38.81,212,38.24,212.51Z"/><path class="cls-3" d="M15.74,232.34c2.8-7.2,8.94-18.28,10.36-18,1.14.27,3,2.82,3.92,3.63l11.3,10.46a5,5,0,0,1,.27,7.23c-5,5.3-8.33,12-11.15,18.74a5.47,5.47,0,0,1-5,3.3l-11.86.15a3,3,0,0,1-3.13-3.53C11.6,248.45,14,236.85,15.74,232.34Z"/><path class="cls-3" d="M13.52,258.5a3.83,3.83,0,0,1-2.87-1.28,3.45,3.45,0,0,1-.82-3c1-5.09,3.5-17.42,5.33-22.13,1.91-4.92,8.69-18.88,11.09-18.32.93.22,2,1.34,3.26,2.77.37.42.7.79.94,1l11.3,10.46a5.61,5.61,0,0,1,.31,8.06c-5.21,5.53-8.51,12.48-11,18.56a6.08,6.08,0,0,1-5.58,3.67l-11.86.16ZM26,215c-1.42.72-6.87,10.23-9.72,17.55-1.79,4.62-4.28,16.87-5.26,21.93a2.3,2.3,0,0,0,.54,2,2.59,2.59,0,0,0,2,.86l11.87-.16a4.82,4.82,0,0,0,4.43-2.92c2.58-6.17,5.93-13.25,11.27-18.92a4.46,4.46,0,0,0-.24-6.41L29.58,218.45c-.26-.25-.62-.65-1-1.1A10.91,10.91,0,0,0,26,215Z"/><path class="cls-4" d="M1.12,276.56l11.23-9.49,2.6,3L3,278.74a1.51,1.51,0,0,1-2-.24A1.36,1.36,0,0,1,1.12,276.56Z"/><path class="cls-4" d="M2.09,279.62a2.13,2.13,0,0,1-1.62-.74,1.93,1.93,0,0,1,.24-2.76l11.72-9.91,3.41,4-12.49,9A2.18,2.18,0,0,1,2.09,279.62ZM1.53,277a.78.78,0,0,0-.09,1.12.87.87,0,0,0,1.16.13L14.05,270l-1.77-2.08L1.53,277Z"/><path class="cls-4" d="M3.09,289.84l10.27-19.07L17,272.66,5.63,291.17a1.48,1.48,0,0,1-1.92.53A1.36,1.36,0,0,1,3.09,289.84Z"/><path class="cls-4" d="M4.38,292.46a2.14,2.14,0,0,1-.95-.23,1.94,1.94,0,0,1-.89-2.66L13.1,270l4.71,2.47-11.64,19A2.08,2.08,0,0,1,4.38,292.46Zm9.24-20.87-10,18.52A.78.78,0,0,0,4,291.18a.86.86,0,0,0,1.1-.31l11-18Z"/><path class="cls-4" d="M14.53,294.52l1.59-21.69,4.07.38-2.78,21.58A1.44,1.44,0,0,1,15.83,296,1.4,1.4,0,0,1,14.53,294.52Z"/><path class="cls-4" d="M16,296.6h-.21a2,2,0,0,1-1.86-2.11l1.63-22.3,5.35.5L18,294.86A2,2,0,0,1,16,296.6Zm-.83-2a.79.79,0,0,0,.74.84.81.81,0,0,0,.9-.69l2.71-21-2.81-.26-1.54,21.08Z"/><path class="cls-4" d="M26.4,291l-7-16.56,3.84-1.35,5.92,16.94a1.38,1.38,0,0,1-.87,1.75A1.49,1.49,0,0,1,26.4,291Z"/><path class="cls-4" d="M27.74,292.5a2.08,2.08,0,0,1-1.92-1.24l-7.26-17.12,5-1.79,6.12,17.53a2,2,0,0,1-1.25,2.5A2.33,2.33,0,0,1,27.74,292.5Zm-7.55-17.67,6.79,16a.84.84,0,0,0,1.06.45.78.78,0,0,0,.5-1L22.83,273.9Z"/><path class="cls-4" d="M32,275l-10.25-5,2-3.4,9.69,5.94a1.38,1.38,0,0,1,.49,1.9A1.53,1.53,0,0,1,32,275Z"/><path class="cls-4" d="M32.7,275.77a2.13,2.13,0,0,1-1-.22l-10.84-5.28,2.69-4.49,10.24,6.28a2,2,0,0,1,.69,2.69A2.13,2.13,0,0,1,32.7,275.77Zm-.39-1.28a.9.9,0,0,0,1.14-.33.8.8,0,0,0-.28-1.1L24,267.46l-1.39,2.31Z"/><path class="cls-4" d="M27.61,270.65c0,5-4.77,9.36-9.89,9.36s-9.88-4.78-9.88-9.82,5.49-11.08,10.6-11.08S27.61,265.61,27.61,270.65Z"/><path class="cls-4" d="M17.72,280.61c-5.4,0-10.51-5.07-10.51-10.42,0-5.57,5.88-11.68,11.23-11.68s9.79,6.64,9.79,12.14C28.23,276,23.32,280.61,17.72,280.61Zm.72-20.91c-4.67,0-10,5.59-10,10.49a9.74,9.74,0,0,0,9.26,9.23c4.85,0,9.27-4.18,9.27-8.77C27,265.72,23,259.7,18.44,259.7Z"/><path class="cls-1" d="M235.71,201.32c1.08,0,2.12,0,3.15,0a64.84,64.84,0,0,0,13.44-1.64,57,57,0,0,0,6-1.77.93.93,0,0,0,.22-.08c1-.35,1.89-.73,2.78-1.11l1.27-.58c.91-.43,1.78-.88,2.61-1.33a43.8,43.8,0,0,0,5.3-3.44,33.87,33.87,0,0,0,9.4-10.25l9.37,4.4c-.29.59-4.44,8.47-14.62,15.36a55.27,55.27,0,0,1-6.84,4,57.24,57.24,0,0,1-6.14,2.57c-.42.15-.84.3-1.28.43-1.45.48-3,.92-4.55,1.32-.4.1-.81.21-1.22.29-1.85.44-3.78.8-5.81,1.09a81.67,81.67,0,0,1-13.28.77l.05-2.38Z"/><path class="cls-1" d="M237.27,211.91h-2.4l.23-11.18h.62c1.07,0,2.11,0,3.13,0a63.29,63.29,0,0,0,13.3-1.62,54.35,54.35,0,0,0,5.94-1.75l.21-.08c.88-.32,1.78-.68,2.74-1.09l1.25-.58c.81-.37,1.63-.79,2.58-1.31a40.64,40.64,0,0,0,5.22-3.39,33.33,33.33,0,0,0,9.23-10l.27-.54,10.48,4.92-.26.53c0,.09-4.21,8.41-14.82,15.6a56.87,56.87,0,0,1-6.92,4,58.46,58.46,0,0,1-6.2,2.6l-1.3.44c-1.47.48-3,.93-4.59,1.33l-.33.08c-.3.07-.61.15-.92.21-1.85.44-3.83.81-5.85,1.1A82.8,82.8,0,0,1,237.27,211.91Zm-1.13-1.19a82.92,82.92,0,0,0,12.56-.78c2-.28,3.91-.64,5.75-1.08.31-.06.6-.13.89-.21l.33-.08c1.54-.38,3.05-.82,4.5-1.3.44-.13.85-.28,1.26-.42a59.22,59.22,0,0,0,6.08-2.55,55.1,55.1,0,0,0,6.76-3.91,46.43,46.43,0,0,0,14.14-14.6l-8.26-3.89a35.77,35.77,0,0,1-9.29,9.94,43.37,43.37,0,0,1-5.37,3.48c-1,.54-1.82,1-2.65,1.35-.41.2-.85.4-1.29.59-1,.43-1.9.79-2.81,1.12a1.07,1.07,0,0,1-.26.1,55.13,55.13,0,0,1-6,1.78,65.11,65.11,0,0,1-13.56,1.65c-.84,0-1.69,0-2.56,0Z"/><path class="cls-2" d="M237.33,201.55a64.85,64.85,0,0,0,12.55-1.44.5.5,0,0,1,.62.62c-1,3.19-2.11,6.6-3.15,9.73a.51.51,0,0,1-.42.35,82.71,82.71,0,0,1-13,.72l.06-2.38Z"/><path class="cls-2" d="M235.74,212.74c-.6,0-1.19,0-1.79,0l-1.25,0,.09-3.8,3.7-8.52.81,0A64.38,64.38,0,0,0,249.61,199a1.81,1.81,0,0,1,1.69.49,1.64,1.64,0,0,1,.39,1.64c-1,3.19-2.12,6.6-3.15,9.74A1.74,1.74,0,0,1,247.1,212,83.91,83.91,0,0,1,235.74,212.74Zm-.5-2.38a84.69,84.69,0,0,0,11.06-.67c.87-2.64,1.79-5.47,2.65-8.17a66.34,66.34,0,0,1-10.78,1.2l-2.9,6.68Z"/><path class="cls-2" d="M265.4,194.68a41.76,41.76,0,0,0,5.08-3.31l4.15,9.51a53.85,53.85,0,0,1-6.44,3.75.35.35,0,0,1-.5-.21c-.75-2.83-1.7-6.45-2.45-9.38A.32.32,0,0,1,265.4,194.68Z"/><path class="cls-2" d="M268,205.86a1.64,1.64,0,0,1-.65-.13,1.53,1.53,0,0,1-.89-1c-.75-2.84-1.69-6.45-2.45-9.38a1.48,1.48,0,0,1,.74-1.67,42.24,42.24,0,0,0,4.93-3.22l1.29-1,5.17,11.84-.82.55a56.41,56.41,0,0,1-6.58,3.84A1.58,1.58,0,0,1,268,205.86Zm-1.41-10.48c.63,2.44,1.37,5.26,2,7.69,1.53-.8,3-1.67,4.48-2.62l-3.14-7.2C268.88,194,267.76,194.72,266.61,195.38Z"/><path class="cls-2" d="M256.93,198.87a.91.91,0,0,1,.58-.64l.79-.32a.93.93,0,0,0,.22-.08l2.63-1.05a.09.09,0,0,1,.13.09l-.86,10.36a.93.93,0,0,1-.64.8c-1.17.37-4.19,1.17-5,1.37a.11.11,0,0,1-.14-.13C255.42,205.73,256.27,201.83,256.93,198.87Z"/><path class="cls-2" d="M254.4,210.72l-.59-.48a1.25,1.25,0,0,1-.39-1.21l2.29-10.41a2.12,2.12,0,0,1,1.35-1.5l.72-.29.17-.06,2.71-1.09.65-.26.67.4a1.28,1.28,0,0,1,.54,1.15l-.85,10.35a2.11,2.11,0,0,1-1.5,1.83c-1.21.39-4.28,1.21-5.1,1.41Zm3.71-11.44-1.88,8.51c1-.28,2.25-.62,3-.84l.69-8.38-.85.34-.29.11Z"/><path class="cls-3" d="M288.07,197.26c-5.55,5.56-15.77,13.4-16.94,12.56-.94-.67-1.63-3.74-2.09-4.81L263,191.13a5.12,5.12,0,0,1,2.74-6.75c6.78-3,12.61-7.85,18-13a5.65,5.65,0,0,1,6-1.14l11,4.36a2.93,2.93,0,0,1,1.41,4.43C298.55,184,291.55,193.79,288.07,197.26Z"/><path class="cls-3" d="M271.25,210.43a.81.81,0,0,1-.49-.13c-.77-.55-1.27-2-1.85-3.78-.17-.52-.32-1-.45-1.28l-6-13.89a5.68,5.68,0,0,1,3.06-7.51c7.07-3.1,13-8.25,17.82-12.87a6.3,6.3,0,0,1,6.64-1.26l11,4.36a3.62,3.62,0,0,1,2.16,2.28,3.42,3.42,0,0,1-.48,3c-3,4.29-10.41,14.66-14.05,18.29S274.22,210.43,271.25,210.43Zm16.35-40a5,5,0,0,0-3.43,1.36c-4.92,4.69-10.93,9.92-18.18,13.1a4.52,4.52,0,0,0-2.43,6l6.05,13.88c.14.32.3.82.49,1.39a10.5,10.5,0,0,0,1.34,3.12c1.6-.13,10.54-6.79,16.18-12.44,3.57-3.57,10.92-13.87,13.92-18.14a2.27,2.27,0,0,0,.32-2,2.43,2.43,0,0,0-1.45-1.52l-11-4.36A5,5,0,0,0,287.6,170.46Z"/><path class="cls-4" d="M319.81,162.19l-14.25,4.47-1.12-3.77,14.56-3.4a1.48,1.48,0,0,1,1.76,1A1.38,1.38,0,0,1,319.81,162.19Z"/><path class="cls-4" d="M305.14,167.42l-1.48-5,15.2-3.54a2.08,2.08,0,0,1,2.5,1.39,2,2,0,0,1-1.36,2.45Zm.07-4.09.77,2.57,13.64-4.27a.79.79,0,0,0,.54-1,.85.85,0,0,0-1-.57Z"/><path class="cls-4" d="M323.49,149.26l-17.32,13.62-2.51-3.09,18-12.72a1.51,1.51,0,0,1,2,.24A1.35,1.35,0,0,1,323.49,149.26Z"/><path class="cls-4" d="M306.08,163.72l-3.3-4.05,18.56-13.08a2.14,2.14,0,0,1,2.84.34,1.92,1.92,0,0,1-.29,2.78Zm-1.54-3.82,1.73,2.13L323.1,148.8a.78.78,0,0,0,.11-1.12.86.86,0,0,0-1.13-.13Z"/><path class="cls-4" d="M314.93,140.63l-10.44,19.31-3.58-1.89,11.48-18.76a1.48,1.48,0,0,1,1.95-.51A1.35,1.35,0,0,1,314.93,140.63Z"/><path class="cls-4" d="M304.75,160.76l-4.7-2.48L311.86,139a2.1,2.1,0,0,1,2.78-.74,1.93,1.93,0,0,1,.84,2.65Zm-3-2.94,2.46,1.3,10.15-18.77a.76.76,0,0,0-.34-1,.84.84,0,0,0-1.11.29Z"/><path class="cls-4" d="M302.59,139.33l-.4,17.86L298.1,157l1.58-17.8a1.46,1.46,0,0,1,2.91.15Z"/><path class="cls-4" d="M302.79,157.82l-5.37-.28,1.64-18.41a2.08,2.08,0,0,1,4.15.21Zm-4-1.4,2.81.14.39-17.24a.82.82,0,0,0-.8-.82.81.81,0,0,0-.87.73Z"/><path class="cls-4" d="M290.79,151.91l7.34,8.47-3.28,2.35-6.43-9.12a1.37,1.37,0,0,1,.34-1.93A1.54,1.54,0,0,1,290.79,151.91Z"/><path class="cls-4" d="M294.7,163.58l-6.8-9.64a2,2,0,0,1,.48-2.74,2.17,2.17,0,0,1,2.88.33l7.77,8.95ZM289.64,152a.87.87,0,0,0-.51.17.79.79,0,0,0-.2,1.12l6.07,8.6,2.23-1.6-6.92-8A.87.87,0,0,0,289.64,152Z"/><path class="cls-4" d="M293,157.59c2.08-4.63,8.26-6.79,12.95-4.85a10,10,0,0,1,5,12.77c-2.09,4.62-9.63,8.09-14.32,6.15S291,162.22,293,157.59Z"/><path class="cls-4" d="M299.69,172.81a8.6,8.6,0,0,1-3.26-.6c-5-2.05-6.24-9.81-4-14.86a10.25,10.25,0,0,1,5.85-5.21,11.1,11.1,0,0,1,7.93.05,10.06,10.06,0,0,1,5.38,5.71,10.18,10.18,0,0,1-.05,7.84,12.72,12.72,0,0,1-6.49,5.85A13.57,13.57,0,0,1,299.69,172.81Zm-6.08-15c-2,4.53-.91,11.55,3.32,13.3,2,.83,4.87.6,7.63-.61a11.46,11.46,0,0,0,5.87-5.24,9,9,0,0,0,0-7,8.85,8.85,0,0,0-4.71-5,9.7,9.7,0,0,0-7,0,8.92,8.92,0,0,0-5.15,4.56Z"/><path class="cls-5" d="M82.59,192.62v24.16a9.76,9.76,0,0,1-10,9.54h-9A11.61,11.61,0,0,1,51.79,215V194.38a11.61,11.61,0,0,1,11.82-11.31h9A9.77,9.77,0,0,1,82.59,192.62Z"/><path class="cls-5" d="M72.61,226.91h-9A12.19,12.19,0,0,1,51.17,215V194.38a12.19,12.19,0,0,1,12.44-11.9h9a10.39,10.39,0,0,1,10.6,10.14v24.16A10.39,10.39,0,0,1,72.61,226.91Zm-9-43.24a11,11,0,0,0-11.2,10.71V215a11,11,0,0,0,11.2,10.71h9A9.17,9.17,0,0,0,82,216.78V192.62a9.17,9.17,0,0,0-9.36-9Z"/><path class="cls-5" d="M244.56,194.38V215a11.61,11.61,0,0,1-11.82,11.31h-9a9.77,9.77,0,0,1-10-9.54V192.62a9.78,9.78,0,0,1,10-9.55h9A11.61,11.61,0,0,1,244.56,194.38Z"/><path class="cls-5" d="M232.74,226.91h-9a10.39,10.39,0,0,1-10.61-10.13V192.62a10.4,10.4,0,0,1,10.61-10.14h9a12.19,12.19,0,0,1,12.44,11.9V215A12.19,12.19,0,0,1,232.74,226.91Zm-9-43.24a9.17,9.17,0,0,0-9.37,9v24.16a9.17,9.17,0,0,0,9.37,8.94h9A11,11,0,0,0,243.94,215V194.38a11,11,0,0,0-11.2-10.71Z"/><path class="cls-3" d="M227.42,214.57l-11.08,23.78-21.51,46.16a50.76,50.76,0,0,1-45.69,28.92h-.93a50.78,50.78,0,0,1-45.69-28.92L81,238.35,69.93,214.57c-12.71-21.06,3.18-47.37,28.59-47.37H198.83C224.24,167.2,240.14,193.51,227.42,214.57Z"/><path class="cls-3" d="M148.21,314A51.43,51.43,0,0,1,102,284.75L69.36,214.81a30.61,30.61,0,0,1,0-32.11,33.58,33.58,0,0,1,29.13-16.09H198.83A33.59,33.59,0,0,1,228,182.7a30.66,30.66,0,0,1,0,32.14L195.4,284.75A51.42,51.42,0,0,1,149.15,314ZM98.52,167.8a32.34,32.34,0,0,0-28,15.49,29.49,29.49,0,0,0,0,31l32.62,70a50.18,50.18,0,0,0,45.13,28.56h.92a50.19,50.19,0,0,0,45.13-28.56l32.61-70a29.52,29.52,0,0,0,0-31,32.36,32.36,0,0,0-28.06-15.49Z"/><path class="cls-5" d="M225.92,217.29l-10.26,22.46a2.16,2.16,0,0,1-2,1.24H174.84a2.11,2.11,0,0,1-2.16-2.06V212.86a2.11,2.11,0,0,0-2.16-2.06H123.61a2.11,2.11,0,0,0-2.16,2.06v26.07a2.11,2.11,0,0,1-2.16,2.06H83.86a2.16,2.16,0,0,1-2-1.24L71.62,217.29a1.07,1.07,0,0,0-.07-.15c-12.39-21,3.19-47.3,28.06-47.3h98.32c24.87,0,40.45,26.25,28.06,47.3A1.07,1.07,0,0,0,225.92,217.29Z"/><path class="cls-5" d="M213.68,241.59H174.84a2.73,2.73,0,0,1-2.79-2.66V212.86a1.5,1.5,0,0,0-1.53-1.47H123.61a1.51,1.51,0,0,0-1.54,1.47v26.07a2.72,2.72,0,0,1-2.78,2.66H83.86a2.81,2.81,0,0,1-2.55-1.6L71.05,217.52a31.2,31.2,0,0,1,.24-32.59,32.86,32.86,0,0,1,28.32-15.68h98.32a32.86,32.86,0,0,1,28.32,15.68,31.15,31.15,0,0,1,.29,32.5l-.62-.14.57.23L216.23,240A2.81,2.81,0,0,1,213.68,241.59ZM123.61,210.2h46.91a2.72,2.72,0,0,1,2.78,2.66v26.07a1.51,1.51,0,0,0,1.54,1.47h38.84a1.56,1.56,0,0,0,1.41-.88L225.35,217l.1-.2a30,30,0,0,0-.27-31.3,31.62,31.62,0,0,0-27.25-15.1H99.61a31.62,31.62,0,0,0-27.25,15.1,30,30,0,0,0-.27,31.3l.11.21,10.25,22.47a1.56,1.56,0,0,0,1.41.88h35.43a1.51,1.51,0,0,0,1.54-1.47V212.86A2.72,2.72,0,0,1,123.61,210.2Z"/><path class="cls-6" d="M82.59,192.62v24.16a9.76,9.76,0,0,1-10,9.54h-.84l-5.15-11a30.08,30.08,0,0,1,.4-32.21h5.59A9.77,9.77,0,0,1,82.59,192.62Z"/><path class="cls-6" d="M72.61,226.91H71.36l-5.31-11.39a30.51,30.51,0,0,1,.43-32.76l.19-.28h5.94a10.39,10.39,0,0,1,10.6,10.14v24.16A10.39,10.39,0,0,1,72.61,226.91Zm-.44-1.19h.44A9.17,9.17,0,0,0,82,216.78V192.62a9.17,9.17,0,0,0-9.36-9H67.37A29.38,29.38,0,0,0,67.16,215Z"/><path class="cls-6" d="M230.55,214.92l-5.31,11.4h-.94a9.77,9.77,0,0,1-10-9.54V192.62a9.78,9.78,0,0,1,10-9.55h6.08A30.09,30.09,0,0,1,230.55,214.92Z"/><path class="cls-6" d="M225.64,226.91H224.3a10.39,10.39,0,0,1-10.61-10.13V192.62a10.4,10.4,0,0,1,10.61-10.14h6.44l.18.29a30.62,30.62,0,0,1,.19,32.42Zm-1.34-43.24a9.17,9.17,0,0,0-9.37,9v24.16a9.17,9.17,0,0,0,9.37,8.94h.53l5.18-11.1a29.44,29.44,0,0,0,0-31Z"/><path class="cls-7" d="M227.42,214.57l-11.08,23.78H176a.69.69,0,0,1-.71-.67V210.1a2,2,0,0,0-2-1.95H120.58a2,2,0,0,0-2,1.95v27.58a.68.68,0,0,1-.7.67H81L69.93,214.57c-12.71-21.06,3.18-47.37,28.59-47.37H198.83C224.24,167.2,240.14,193.51,227.42,214.57Z"/><path class="cls-7" d="M216.75,239H176a1.3,1.3,0,0,1-1.33-1.27V210.1a1.38,1.38,0,0,0-1.41-1.35H120.58a1.38,1.38,0,0,0-1.41,1.35v27.58a1.3,1.3,0,0,1-1.32,1.27H80.61L69.36,214.81a30.61,30.61,0,0,1,0-32.11,33.58,33.58,0,0,1,29.13-16.09H198.83A33.59,33.59,0,0,1,228,182.7a30.66,30.66,0,0,1,0,32.14ZM81.42,237.76h36.43l.08-27.66a2.6,2.6,0,0,1,2.65-2.54h52.71A2.6,2.6,0,0,1,176,210.1v27.58l40,.07,10.94-23.48a29.52,29.52,0,0,0,0-31,32.36,32.36,0,0,0-28.06-15.49H98.52a32.34,32.34,0,0,0-28,15.49,29.49,29.49,0,0,0,0,31Z"/><path class="cls-5" d="M169.39,252a3.07,3.07,0,0,1-3.14,3H128.14a2.26,2.26,0,0,1-2.35-2.13s.42-33.85.42-33.85a4.41,4.41,0,0,1,4.34-4.26l36.67-1.29a2.13,2.13,0,0,1,1.88,1,2,2,0,0,1,.29,1Z"/><path class="cls-5" d="M166.25,255.58H128.14a2.86,2.86,0,0,1-3-2.73l.42-33.85a5,5,0,0,1,4.94-4.85l36.66-1.3a2.75,2.75,0,0,1,2.44,1.27,2.51,2.51,0,0,1,.38,1.33V252A3.68,3.68,0,0,1,166.25,255.58ZM167.3,214l-36.72,1.3a3.8,3.8,0,0,0-3.75,3.67l-.42,33.83a1.67,1.67,0,0,0,1.73,1.55h38.11a2.47,2.47,0,0,0,2.52-2.41V215.45a1.34,1.34,0,0,0-.21-.72A1.49,1.49,0,0,0,167.3,214Z"/><rect class="cls-3" x="125.85" y="213.44" width="42.35" height="40.09" rx="1.19"/><path class="cls-5" d="M166.42,254.13H127.63a2.36,2.36,0,0,1-2.41-2.3V215.15a2.36,2.36,0,0,1,2.41-2.3h38.79a2.36,2.36,0,0,1,2.4,2.3v36.68A2.36,2.36,0,0,1,166.42,254.13ZM127.63,214a1.14,1.14,0,0,0-1.16,1.11v36.68a1.14,1.14,0,0,0,1.16,1.11h38.79a1.14,1.14,0,0,0,1.15-1.11V215.15a1.14,1.14,0,0,0-1.15-1.11Z"/><path class="cls-4" d="M63.73,43a76.82,76.82,0,0,0-1.94,9.4c-.47,3.17-.8,6.35-.95,9.53a89.1,89.1,0,0,0,0,9.53,92.69,92.69,0,0,0,1,9.43l-4.42.48a90.58,90.58,0,0,1-.17-9.88,88.93,88.93,0,0,1,.85-9.8A95.45,95.45,0,0,1,59.88,52a80.35,80.35,0,0,1,2.8-9.4Z"/><path class="cls-4" d="M56.82,82l0-.63a96.13,96.13,0,0,1,.68-19.79,97.47,97.47,0,0,1,1.81-9.68,81,81,0,0,1,2.82-9.47l.21-.55,2.18.7-.15.54a75.83,75.83,0,0,0-1.92,9.33,91.29,91.29,0,0,0-.94,9.48,88,88,0,0,0,0,9.47,90.56,90.56,0,0,0,1,9.38l.09.6Zm5.9-37.64c-.81,2.35-1.53,4.87-2.23,7.8a95.54,95.54,0,0,0-1.8,9.58,92.11,92.11,0,0,0-.84,9.73A89.61,89.61,0,0,0,58,80.66l3.14-.34a87.73,87.73,0,0,1-.9-8.88,90.13,90.13,0,0,1,0-9.59c.15-3.09.47-6.32,1-9.58C61.61,49.34,62.12,46.73,62.72,44.34Z"/><path class="cls-4" d="M69.28,40.67a4.42,4.42,0,1,1-4.42-4.23A4.32,4.32,0,0,1,69.28,40.67Z"/><path class="cls-4" d="M64.86,45.49a4.82,4.82,0,1,1,5-4.82A4.94,4.94,0,0,1,64.86,45.49Zm0-8.45a3.63,3.63,0,1,0,3.8,3.63A3.72,3.72,0,0,0,64.86,37Z"/><path class="cls-8" d="M58.25,60.45c.86.11,1.77.2,2.66.29,0-.18,0-.36,0-.53-.86-.08-1.75-.18-2.62-.29C58.3,60.1,58.28,60.27,58.25,60.45Z"/><path class="cls-8" d="M61.5,61.39l-.65-.06c-.9-.09-1.81-.18-2.68-.29L57.55,61l.25-1.7.62.08c.85.11,1.74.21,2.59.29l.59.05Z"/><path class="cls-8" d="M60.93,73l0-.57-3.74,1.77c0,.19,0,.38,0,.58Z"/><path class="cls-8" d="M56.55,75.68V73.77l.35-.16,3.73-1.76.85-.4.11,1.86-.37.18c-1.25.59-2.51,1.19-3.77,1.77Z"/><path class="cls-8" d="M59.47,53.83c.69.07,1.39.13,2.09.18,0-.17,0-.34.07-.51-.68,0-1.36-.12-2-.19Z"/><path class="cls-8" d="M62.1,54.65l-.59,0-2.11-.17-.68-.07.37-1.69.8.07c.6.06,1.19.12,1.79.16l.65.05Z"/><path class="cls-8" d="M60.8,63.14c0-.19,0-.39,0-.58-1,.37-2,.77-3,1.16l-.06.59C58.76,63.91,59.78,63.52,60.8,63.14Z"/><path class="cls-8" d="M57,65.25l.22-1.94.34-.14c1-.39,2-.79,3-1.17l.89-.33-.08,1.88-.38.14c-1,.38-2,.77-3,1.17Z"/><path class="cls-8" d="M61.35,46.57l1.41.36.12-.52-1.37-.35C61.46,46.23,61.41,46.4,61.35,46.57Z"/><polygon class="cls-8" points="63.24 47.67 60.58 46.98 61.09 45.34 63.61 45.98 63.24 47.67"/><path class="cls-8" d="M60.2,50.72l-.15.61,2-.69c0-.19.07-.39.1-.59Z"/><polygon class="cls-8" points="59.18 52.27 59.68 50.27 62.95 49.15 62.62 51.09 59.18 52.27"/><path class="cls-8" d="M57.36,68.69l0,.53,1.07,0c.79,0,1.59.07,2.36.12,0-.18,0-.36,0-.53l-2.32-.12Z"/><polygon class="cls-8" points="61.4 70.02 56.67 69.78 56.77 68.06 61.35 68.29 61.4 70.02"/><path class="cls-8" d="M58.85,56.85c0,.2-.07.4-.11.6l2.52-.89.06-.58Z"/><polygon class="cls-8" points="57.95 58.36 58.3 56.41 62.05 55.09 61.84 56.99 57.95 58.36"/><path class="cls-4" d="M235.6,43a76.82,76.82,0,0,1,1.94,9.4,92.86,92.86,0,0,1,.94,9.53,89.11,89.11,0,0,1,0,9.53,92.69,92.69,0,0,1-1,9.43l4.42.48a95.1,95.1,0,0,0-.68-19.68,95.45,95.45,0,0,0-1.8-9.63,80.35,80.35,0,0,0-2.8-9.4Z"/><path class="cls-4" d="M242.51,82l-5.71-.62.09-.6a94.63,94.63,0,0,0,0-28.33A76.62,76.62,0,0,0,235,43.1l-.15-.54,2.18-.7.21.55a81,81,0,0,1,2.82,9.47,97.12,97.12,0,0,1,1.81,9.69,94.23,94.23,0,0,1,.68,19.78Zm-4.3-1.66,3.14.34c.15-2.8.28-6,.13-9.2a92.06,92.06,0,0,0-.84-9.74,95.54,95.54,0,0,0-1.8-9.58c-.7-2.93-1.42-5.45-2.23-7.8.6,2.4,1.11,5,1.55,7.93.48,3.26.8,6.48,1,9.59a90.14,90.14,0,0,1,0,9.59A87.83,87.83,0,0,1,238.21,80.32Z"/><path class="cls-4" d="M230.05,40.67a4.42,4.42,0,1,0,4.42-4.23A4.32,4.32,0,0,0,230.05,40.67Z"/><path class="cls-4" d="M234.47,45.49a4.82,4.82,0,1,1,5-4.82A4.94,4.94,0,0,1,234.47,45.49Zm0-8.45a3.63,3.63,0,1,0,3.8,3.63A3.72,3.72,0,0,0,234.47,37Z"/><path class="cls-8" d="M241.08,60.45c-.86.11-1.77.2-2.66.29,0-.18,0-.36,0-.53.86-.08,1.75-.18,2.62-.29C241,60.1,241.05,60.27,241.08,60.45Z"/><path class="cls-8" d="M237.83,61.39l-.1-1.72.59-.05c.85-.08,1.74-.18,2.59-.29l.62-.08.25,1.7-.62.09c-.87.11-1.78.2-2.68.29Z"/><path class="cls-8" d="M238.39,73c0-.19,0-.38,0-.57l3.74,1.77c0,.19,0,.38,0,.58Z"/><path class="cls-8" d="M242.78,75.68l-.89-.42c-1.26-.58-2.52-1.18-3.77-1.77l-.37-.18.11-1.86.85.4,3.73,1.76.35.16v1.91Z"/><path class="cls-8" d="M239.86,53.83c-.69.07-1.39.13-2.09.18,0-.17-.05-.34-.07-.51.68,0,1.36-.12,2-.19Z"/><path class="cls-8" d="M237.23,54.65,237,53l.66-.05c.6,0,1.19-.1,1.79-.16l.8-.07.37,1.69-.68.07-2.11.17Z"/><path class="cls-8" d="M238.53,63.14c0-.19,0-.39,0-.58,1,.37,2,.77,3,1.16,0,.2.05.4.07.59C240.57,63.91,239.55,63.52,238.53,63.14Z"/><path class="cls-8" d="M242.31,65.25l-1-.39c-1-.4-2-.79-3-1.17l-.38-.14-.08-1.88.89.33c1,.38,2,.78,3,1.17l.34.14Z"/><path class="cls-8" d="M238,46.57l-1.42.36c0-.17-.07-.34-.11-.52l1.37-.35C237.87,46.23,237.92,46.4,238,46.57Z"/><polygon class="cls-8" points="236.09 47.67 235.72 45.98 238.24 45.34 238.75 46.98 236.09 47.67"/><path class="cls-8" d="M239.13,50.72l.15.61-2-.69c0-.19-.07-.39-.1-.59Z"/><polygon class="cls-8" points="240.15 52.27 236.71 51.09 236.38 49.15 239.65 50.27 240.15 52.27"/><path class="cls-8" d="M242,68.69l0,.53-1.07,0c-.79,0-1.59.07-2.36.12,0-.18,0-.36,0-.53l2.31-.12Z"/><polygon class="cls-8" points="237.93 70.02 237.98 68.29 242.56 68.06 242.66 69.78 237.93 70.02"/><path class="cls-8" d="M240.48,56.85c0,.2.07.4.11.6l-2.52-.89L238,56Z"/><polygon class="cls-8" points="241.38 58.36 237.49 56.99 237.28 55.09 241.03 56.41 241.38 58.36"/><path class="cls-5" d="M79.5,92.52v18.67a14.38,14.38,0,0,1-9.36,13.3,15.41,15.41,0,0,1-5.64,1.05c-8.3,0-17.78-6.69-17.78-14.61V92.26c0-7.49,8.49-13.41,16.42-14,.45,0,.9-.06,1.36-.06a15.28,15.28,0,0,1,10.6,4.2A14,14,0,0,1,79.5,92.52Z"/><path class="cls-5" d="M64.5,126.14c-8.34,0-18.4-6.79-18.4-15.21V92.26c0-8,8.78-14,17-14.61a13.05,13.05,0,0,1,1.41-.07,15.89,15.89,0,0,1,11,4.38,14.5,14.5,0,0,1,4.58,10.56v18.67A14.9,14.9,0,0,1,70.38,125,16,16,0,0,1,64.5,126.14Zm0-47.37c-.44,0-.87,0-1.3.06-7.51.58-15.86,6.24-15.86,13.43v18.67c0,7.76,9.39,14,17.16,14a14.6,14.6,0,0,0,5.4-1,13.71,13.71,0,0,0,9-12.75V92.52a13.36,13.36,0,0,0-4.22-9.72A14.62,14.62,0,0,0,64.5,78.77Z"/><path class="cls-5" d="M251.84,95.17v13.38c0,9.34-8,17-17.77,17A15.56,15.56,0,0,1,230,125a14.45,14.45,0,0,1-10.94-13.81V92.52a14,14,0,0,1,4.4-10.14,15.29,15.29,0,0,1,10.61-4.2,17.25,17.25,0,0,1,2.8.22C245.32,79.68,251.84,86.73,251.84,95.17Z"/><path class="cls-5" d="M234.07,126.14a16.4,16.4,0,0,1-4.24-.56,15.09,15.09,0,0,1-11.39-14.39V92.52A14.53,14.53,0,0,1,223,82a15.91,15.91,0,0,1,11-4.38,18.31,18.31,0,0,1,2.9.23c8.83,1.34,15.49,8.8,15.49,17.36v13.38C252.46,118.25,244.21,126.14,234.07,126.14Zm0-47.37a14.63,14.63,0,0,0-10.17,4,13.36,13.36,0,0,0-4.22,9.72v18.67a13.88,13.88,0,0,0,10.49,13.24,15.08,15.08,0,0,0,3.9.52c9.46,0,17.15-7.36,17.15-16.4V95.17c0-8-6.21-14.94-14.45-16.18A16,16,0,0,0,234.07,78.77Z"/><path class="cls-6" d="M79.5,92.52v18.67a14.38,14.38,0,0,1-9.36,13.3,48.38,48.38,0,0,1-9.33-29.32,64.17,64.17,0,0,1,2.33-16.93c.45,0,.9-.06,1.36-.06a15.28,15.28,0,0,1,10.6,4.2A14,14,0,0,1,79.5,92.52Z"/><path class="cls-6" d="M69.92,125.21l-.29-.38a48.93,48.93,0,0,1-9.45-29.66,65,65,0,0,1,2.36-17.08l.1-.4.44,0A15.87,15.87,0,0,1,75.54,82a14.5,14.5,0,0,1,4.58,10.56v18.67A14.9,14.9,0,0,1,70.38,125ZM63.63,78.8a63.75,63.75,0,0,0-2.2,16.37,47.82,47.82,0,0,0,8.93,28.58,13.69,13.69,0,0,0,8.52-12.56V92.52a13.36,13.36,0,0,0-4.22-9.72A14.62,14.62,0,0,0,63.63,78.8Z"/><path class="cls-6" d="M239.41,95.69A48,48,0,0,1,230,125a14.45,14.45,0,0,1-10.94-13.81V92.52a14,14,0,0,1,4.4-10.14,15.29,15.29,0,0,1,10.61-4.2,17.25,17.25,0,0,1,2.8.22A62,62,0,0,1,239.41,95.69Z"/><path class="cls-6" d="M230.25,125.69l-.42-.11a15.09,15.09,0,0,1-11.39-14.39V92.52A14.53,14.53,0,0,1,223,82a15.91,15.91,0,0,1,11-4.38,18.31,18.31,0,0,1,2.9.23l.39.07.11.36A62.8,62.8,0,0,1,240,95.69a48.58,48.58,0,0,1-9.52,29.66Zm3.82-46.92a14.63,14.63,0,0,0-10.17,4,13.36,13.36,0,0,0-4.22,9.72v18.67a13.86,13.86,0,0,0,10.07,13.12,47.46,47.46,0,0,0,9-28.62,61.5,61.5,0,0,0-2.41-16.76A15.91,15.91,0,0,0,234.07,78.77Z"/><path class="cls-3" d="M235.82,95.43c0,38.61-38.69,58.29-86.17,58.29S63.84,134,63.84,95.43c0-32.71,27-66.76,64.12-76.39A83.85,83.85,0,0,1,169.67,19C207.36,28.49,235.82,62.62,235.82,95.43Z"/><path class="cls-3" d="M149.65,154.32c-52.5,0-86.43-23.12-86.43-58.89,0-33.77,28.37-67.58,64.58-77a84.84,84.84,0,0,1,42-.08c37.35,9.44,66.61,43.27,66.61,77C236.44,131.2,202.37,154.32,149.65,154.32ZM148.91,17a82.87,82.87,0,0,0-20.78,2.66c-35.7,9.25-63.66,42.55-63.66,75.81,0,35,33.43,57.69,85.18,57.69,52,0,85.55-22.64,85.55-57.69,0-33.25-28.86-66.58-65.69-75.89A84,84,0,0,0,148.91,17Z"/><path class="cls-5" d="M214.73,104c0,26.11-23,32-53.52,32.91l-1.42-9.5h-21.6l-1.41,9.46c-29.9-1.1-52.57-7.17-52.57-32.87,0-29.3,6.64-64,63.93-64S214.73,74.69,214.73,104Z"/><path class="cls-5" d="M160.67,137.51,159.25,128H138.73l-1.41,9.48-.56,0c-26.3-1-53.17-5.7-53.17-33.46,0-30.1,7.33-64.65,64.55-64.65,45.23,0,67.21,21.15,67.21,64.65,0,28-26,32.62-54.12,33.5Zm-23-10.71h22.68l1.42,9.49c27.26-.91,52.36-5.54,52.36-32.3,0-42.7-21.58-63.46-66-63.46C92,40.53,84.83,74.45,84.83,104c0,26.5,24.64,31.21,51.42,32.25Z"/><path class="cls-9" d="M212.81,103.53c0,25.34-22.34,31-51.95,31.94l-1.38-9.22H138.53l-1.37,9.18c-29-1.07-51-7-51-31.9,0-28.44,6.45-62.16,62.05-62.16S212.81,75.09,212.81,103.53Z"/><path class="cls-8" d="M160.33,136.09l-1.39-9.24H139.06l-1.37,9.2-.56,0c-25.53-.94-51.62-5.54-51.62-32.5,0-29.22,7.12-62.76,62.67-62.76,43.91,0,65.25,20.53,65.25,62.76,0,27.15-25.25,31.68-52.55,32.54ZM138,125.65h22l1.38,9.21c26.45-.88,50.79-5.38,50.79-31.33,0-41.43-20.94-61.57-64-61.57-54.45,0-61.43,32.91-61.43,61.57,0,25.7,23.89,30.28,49.87,31.29Z"/><ellipse class="cls-4" cx="115.49" cy="82.49" rx="17.95" ry="17.17"/><path class="cls-4" d="M115.49,100.25c-10.24,0-18.57-8-18.57-17.76s8.33-17.77,18.57-17.77,18.58,8,18.58,17.77S125.74,100.25,115.49,100.25Zm0-34.34c-9.55,0-17.33,7.44-17.33,16.58s7.78,16.57,17.33,16.57,17.33-7.43,17.33-16.57S125.05,65.91,115.49,65.91Z"/><ellipse class="cls-10" cx="115.49" cy="82.49" rx="14.09" ry="13.47"/><path class="cls-11" d="M115.49,96.55c-8.11,0-14.7-6.31-14.7-14.06s6.59-14.07,14.7-14.07,14.71,6.31,14.71,14.07S123.6,96.55,115.49,96.55Zm0-26.94c-7.42,0-13.46,5.78-13.46,12.88s6,12.87,13.46,12.87S129,89.59,129,82.49,122.92,69.61,115.49,69.61Z"/><ellipse class="cls-12" cx="115.49" cy="82.49" rx="8.38" ry="8.01"/><path class="cls-12" d="M115.49,91.1a8.62,8.62,0,1,1,9-8.61A8.82,8.82,0,0,1,115.49,91.1Zm0-16a7.43,7.43,0,1,0,7.76,7.42A7.6,7.6,0,0,0,115.49,75.07Z"/><ellipse class="cls-4" cx="182.88" cy="82.49" rx="17.95" ry="17.17"/><path class="cls-4" d="M182.88,100.25c-10.24,0-18.57-8-18.57-17.76s8.33-17.77,18.57-17.77,18.58,8,18.58,17.77S193.12,100.25,182.88,100.25Zm0-34.34c-9.55,0-17.33,7.44-17.33,16.58s7.78,16.57,17.33,16.57,17.33-7.43,17.33-16.57S192.44,65.91,182.88,65.91Z"/><ellipse class="cls-13" cx="182.88" cy="82.49" rx="14.09" ry="13.47"/><path class="cls-11" d="M182.88,96.55c-8.11,0-14.71-6.31-14.71-14.06s6.6-14.07,14.71-14.07,14.71,6.31,14.71,14.07S191,96.55,182.88,96.55Zm0-26.94c-7.42,0-13.46,5.78-13.46,12.88s6,12.87,13.46,12.87,13.47-5.77,13.47-12.87S190.31,69.61,182.88,69.61Z"/><ellipse class="cls-12" cx="182.88" cy="82.49" rx="8.38" ry="8.01"/><path class="cls-12" d="M182.88,91.1a8.62,8.62,0,1,1,9-8.61A8.82,8.82,0,0,1,182.88,91.1Zm0-16a7.43,7.43,0,1,0,7.76,7.42A7.6,7.6,0,0,0,182.88,75.07Z"/><path class="cls-5" d="M169.67,19v6.46a7,7,0,0,1-7.18,6.87H135.14A7,7,0,0,1,128,25.43V19A83.85,83.85,0,0,1,169.67,19Z"/><path class="cls-5" d="M162.49,32.9H135.15a7.65,7.65,0,0,1-7.81-7.47V18.59l.46-.12a84.84,84.84,0,0,1,42-.08l.46.12v6.92A7.65,7.65,0,0,1,162.49,32.9Zm-33.9-13.4v5.93a6.43,6.43,0,0,0,6.56,6.28h27.34a6.44,6.44,0,0,0,6.56-6.28v-6A83.42,83.42,0,0,0,128.59,19.5Z"/><path class="cls-8" d="M194.58,34.3A14.08,14.08,0,0,0,186.45,33c-2.14.33-3.8,1.12-1.87,3,3.87,3.7,18.78,11.09,23.2,15.85C212,56.36,214.56,43.72,194.58,34.3Z"/><path class="cls-8" d="M209.43,53.39a2.93,2.93,0,0,1-2.11-1.15c-2.39-2.57-8.13-6.06-13.2-9.14-4.22-2.56-8.2-5-10-6.68-.87-.84-1.2-1.61-1-2.31s1.32-1.39,3.17-1.67a14.67,14.67,0,0,1,8.5,1.32c13.52,6.38,16.69,14.11,16.48,17.3A2.31,2.31,0,0,1,210,53.3,1.53,1.53,0,0,1,209.43,53.39Zm-21-19.92a13.11,13.11,0,0,0-1.88.14c-1.9.3-2.16.77-2.19.87s.17.63.66,1.1c1.68,1.6,5.61,4,9.77,6.52,5.39,3.27,11,6.66,13.46,9.35.6.65,1.07.8,1.31.73s.48-.56.53-1.19c.22-3.4-3.8-10.5-15.79-16.16A13.72,13.72,0,0,0,188.43,33.47Z"/><path class="cls-8" d="M242,83.54s6.49.93,7,8.85-2.62,11.1-3.31,6.87-1.25-7-1.66-9.64-2.49-4.49-2.62-5.42S242,83.54,242,83.54Z"/><path class="cls-8" d="M246.88,101.73c-.56,0-1.41-.36-1.74-2.38s-.67-3.94-.95-5.51-.5-2.84-.71-4.13a9.22,9.22,0,0,0-1.75-3.77,4.64,4.64,0,0,1-.87-1.65,1.16,1.16,0,0,1,.36-1.18,1.08,1.08,0,0,1,1-.14c.73.13,7,1.53,7.5,9.38.36,5.06-.82,9.18-2.66,9.38ZM242.1,84.16a5.81,5.81,0,0,0,.68,1.14,10.46,10.46,0,0,1,1.94,4.23c.2,1.29.43,2.6.7,4.11s.6,3.36,1,5.53c.2,1.19.54,1.37.54,1.38.49-.08,1.92-2.67,1.54-8.12C248,85.71,243.09,84.37,242.1,84.16Z"/><path class="cls-14" d="M167.68,103.18a19,19,0,0,1-36.9,0Z"/><path class="cls-14" d="M149.23,118.39c-9.32,0-17.34-6.35-19.06-15.1l-.14-.7h38.4l-.14.7C166.57,112,158.55,118.39,149.23,118.39Zm-17.68-14.61a18.36,18.36,0,0,0,35.36,0Z"/><path class="cls-15" d="M159.64,103.18v2.73a3,3,0,0,1-3,2.9H141.86a3,3,0,0,1-3-2.9v-2.73Z"/><path class="cls-15" d="M156.6,109.41H141.86a3.59,3.59,0,0,1-3.66-3.5v-3.32h22.06v3.32A3.59,3.59,0,0,1,156.6,109.41Zm-17.15-5.63v2.13a2.37,2.37,0,0,0,2.41,2.31H156.6a2.37,2.37,0,0,0,2.41-2.31v-2.13Z"/><path class="cls-15" d="M188.82,176.17s13.25-2.47,21.72,3.87,10,13.39,6.63,13.74S205.39,187.09,201,186,185.13,180.39,188.82,176.17Z"/><path class="cls-15" d="M216.93,194.39c-2.05,0-5.26-1.94-8.66-4-2.73-1.65-5.55-3.35-7.45-3.8-3.6-.86-11.9-4-13.18-7.73a3.05,3.05,0,0,1,.7-3.09l.14-.17.22,0c.55-.1,13.63-2.44,22.23,4,6.51,4.88,9.16,10.38,8.36,13.09a2.28,2.28,0,0,1-2,1.71Zm-27.77-17.67a1.8,1.8,0,0,0-.33,1.79c1,2.9,8.41,6,12.29,6.94,2.1.5,5,2.26,7.82,4,3.08,1.85,6.57,3.94,8.16,3.79a1.08,1.08,0,0,0,1-.85c.6-2-1.47-7-7.93-11.83C202.61,174.86,190.92,176.44,189.16,176.72Z"/><path class="cls-7" d="M388.64.6H285.94V64.88h5.27c-2.27,8-6.2,21.88-6.2,21.88l19.83-21.88h83.8Z"/><path class="cls-7" d="M283.7,89.12l.71-2.52s3.69-13,6-21.12h-5.08V0H389.26V65.48H305.13Zm2.87-24.83H292l-.22.75c-1.67,5.9-4.25,15-5.49,19.36l18.24-20.11H388V1.19H286.57Z"/><path class="cls-2" d="M327.58,19.76v9.87h8.68V19.76h2.35v23.6h-2.35V32.29h-8.68V43.36h-2.32V19.76Z"/><path class="cls-2" d="M339.23,44h-3.59V32.89H328.2V44h-3.56V19.16h3.56V29h7.44V19.16h3.59Zm-2.34-1.19H338V20.35h-1.1v9.88H327V20.35h-1.08V42.76H327V31.7h9.93Z"/><path class="cls-2" d="M345.58,27.74a1.32,1.32,0,0,1-1.45,1.35,1.33,1.33,0,0,1-1.38-1.35,1.36,1.36,0,0,1,1.43-1.36A1.32,1.32,0,0,1,345.58,27.74ZM343,43.16v-12h2.28v12Z"/><path class="cls-2" d="M346,43.75h-3.54V30.53H346Zm-2.29-1.19h1V31.72h-1Zm.47-12.88a2,2,0,1,1,2.08-1.95,1.85,1.85,0,0,1-.54,1.36A2.15,2.15,0,0,1,344.13,29.68Zm.05-2.71a.76.76,0,0,0-.81.77.72.72,0,0,0,.76.75.9.9,0,0,0,.64-.22.66.66,0,0,0,.19-.51A.72.72,0,0,0,344.18,27Z"/><path class="cls-2" d="M351.83,41.45a2,2,0,0,1,2-2,2,2,0,0,1,0,4A2,2,0,0,1,351.83,41.45Zm.85-4.68-.48-15.7,3.2-2.62L355,36.77Z"/><path class="cls-2" d="M353.84,44.07a2.63,2.63,0,1,1,0-5.25,2.52,2.52,0,0,1,2.64,2.63A2.54,2.54,0,0,1,353.84,44.07Zm0-4.06a1.44,1.44,0,1,0,1.4,1.44A1.31,1.31,0,0,0,353.84,40Zm1.78-2.65h-3.54l-.51-16.56,4.48-3.66Zm-2.33-1.19h1.11l.34-16.4-1.91,1.57Z"/><ellipse class="cls-7" cx="150.63" cy="355.76" rx="68.88" ry="11.7"/><path class="cls-7" d="M150.63,368.14c-33.74,0-69.6-4.34-69.6-12.38s35.86-12.37,69.6-12.37,69.59,4.34,69.59,12.37S184.37,368.14,150.63,368.14Zm0-23.39c-40.78,0-68.18,5.69-68.18,11s27.4,11,68.18,11,68.17-5.69,68.17-11S191.41,344.75,150.63,344.75Z"/></g></g></svg>